NotoAmalgamated-DisplayLightItalic.ufo
<glyph name="quotedbl" format="2">
  <advance width="296"/>
  <unicode hex="0022"/>
  <outline>
    <contour>
      <point x="241" y="456" type="line"/>
      <point x="261" y="456" type="line"/>
      <point x="320" y="714" type="line"/>
      <point x="292" y="714" type="line"/>
    </contour>
    <contour>
      <point x="109" y="456" type="line"/>
      <point x="129" y="456" type="line"/>
      <point x="188" y="714" type="line"/>
      <point x="160" y="714" type="line"/>
    </contour>
  </outline>
</glyph>
<glyph name="numbersign" format="2">
  <advance width="584"/>
  <unicode hex="0023"/>
  <outline>
    <contour>
      <point x="102" y="0" type="line"/>
      <point x="127" y="0" type="line"/>
      <point x="192" y="227" type="line"/>
      <point x="370" y="227" type="line"/>
      <point x="303" y="0" type="line"/>
      <point x="329" y="0" type="line"/>
      <point x="396" y="227" type="line"/>
      <point x="536" y="227" type="line"/>
      <point x="538" y="251" type="line"/>
      <point x="402" y="251" type="line"/>
      <point x="460" y="462" type="line"/>
      <point x="597" y="462" type="line"/>
      <point x="599" y="486" type="line"/>
      <point x="466" y="486" type="line"/>
      <point x="531" y="714" type="line"/>
      <point x="507" y="714" type="line"/>
      <point x="442" y="486" type="line"/>
      <point x="266" y="486" type="line"/>
      <point x="330" y="714" type="line"/>
      <point x="305" y="714" type="line"/>
      <point x="240" y="486" type="line"/>
      <point x="100" y="486" type="line"/>
      <point x="97" y="462" type="line"/>
      <point x="233" y="462" type="line"/>
      <point x="172" y="251" type="line"/>
      <point x="38" y="251" type="line"/>
      <point x="36" y="227" type="line"/>
      <point x="166" y="227" type="line"/>
    </contour>
    <contour>
      <point x="198" y="251" type="line"/>
      <point x="259" y="462" type="line"/>
      <point x="434" y="462" type="line"/>
      <point x="376" y="251" type="line"/>
    </contour>
  </outline>
</glyph>
<glyph name="dollar" format="2">
  <advance width="523"/>
  <unicode hex="0024"/>
  <outline>
    <contour>
      <point x="204" y="50" type="curve"/>
      <point x="180" y="-58" type="line"/>
      <point x="204" y="-58" type="line"/>
      <point x="228" y="50" type="line"/>
      <point x="336" y="55"/>
      <point x="433" y="116"/>
      <point x="433" y="225" type="curve" smooth="yes"/>
      <point x="433" y="308"/>
      <point x="377" y="334"/>
      <point x="296" y="370" type="curve"/>
      <point x="356" y="650" type="line"/>
      <point x="398" y="646"/>
      <point x="438" y="639"/>
      <point x="483" y="617" type="curve"/>
      <point x="495" y="641" type="line"/>
      <point x="454" y="661"/>
      <point x="408" y="671"/>
      <point x="361" y="675" type="curve"/>
      <point x="378" y="758" type="line"/>
      <point x="354" y="758" type="line"/>
      <point x="337" y="675" type="line"/>
      <point x="230" y="670"/>
      <point x="134" y="615"/>
      <point x="134" y="503" type="curve" smooth="yes"/>
      <point x="134" y="420"/>
      <point x="190" y="385"/>
      <point x="269" y="353" type="curve"/>
      <point x="210" y="75" type="line"/>
      <point x="143" y="76"/>
      <point x="86" y="90"/>
      <point x="49" y="107" type="curve"/>
      <point x="49" y="79" type="line"/>
      <point x="81" y="65"/>
      <point x="139" y="50"/>
    </contour>
    <contour>
      <point x="234" y="75" type="curve"/>
      <point x="290" y="344" type="line"/>
      <point x="362" y="312"/>
      <point x="407" y="289"/>
      <point x="407" y="222" type="curve" smooth="yes"/>
      <point x="407" y="131"/>
      <point x="325" y="80"/>
    </contour>
    <contour>
      <point x="332" y="650" type="curve"/>
      <point x="274" y="378" type="line"/>
      <point x="212" y="407"/>
      <point x="162" y="431"/>
      <point x="162" y="506" type="curve" smooth="yes"/>
      <point x="162" y="594"/>
      <point x="237" y="645"/>
    </contour>
  </outline>
</glyph>
<glyph name="percent" format="2">
  <advance width="726"/>
  <unicode hex="0025"/>
  <outline>
    <contour>
      <point x="114" y="0" type="line"/>
      <point x="144" y="0" type="line"/>
      <point x="652" y="714" type="line"/>
      <point x="622" y="714" type="line"/>
    </contour>
    <contour>
      <point x="182" y="276" type="curve" smooth="yes"/>
      <point x="311" y="276"/>
      <point x="357" y="491"/>
      <point x="357" y="598" type="curve" smooth="yes"/>
      <point x="357" y="683"/>
      <point x="325" y="724"/>
      <point x="262" y="724" type="curve" smooth="yes"/>
      <point x="135" y="724"/>
      <point x="86" y="518"/>
      <point x="86" y="405" type="curve" smooth="yes"/>
      <point x="86" y="317"/>
      <point x="122" y="276"/>
    </contour>
    <contour>
      <point x="183" y="301" type="curve" smooth="yes"/>
      <point x="139" y="301"/>
      <point x="113" y="334"/>
      <point x="113" y="407" type="curve" smooth="yes"/>
      <point x="113" y="507"/>
      <point x="155" y="699"/>
      <point x="261" y="699" type="curve" smooth="yes"/>
      <point x="307" y="699"/>
      <point x="331" y="667"/>
      <point x="331" y="596" type="curve" smooth="yes"/>
      <point x="331" y="496"/>
      <point x="290" y="301"/>
    </contour>
    <contour>
      <point x="501" y="-12" type="curve" smooth="yes"/>
      <point x="631" y="-12"/>
      <point x="677" y="203"/>
      <point x="677" y="310" type="curve" smooth="yes"/>
      <point x="677" y="395"/>
      <point x="644" y="436"/>
      <point x="582" y="436" type="curve" smooth="yes"/>
      <point x="455" y="436"/>
      <point x="406" y="230"/>
      <point x="406" y="117" type="curve" smooth="yes"/>
      <point x="406" y="29"/>
      <point x="441" y="-12"/>
    </contour>
    <contour>
      <point x="503" y="13" type="curve" smooth="yes"/>
      <point x="459" y="13"/>
      <point x="432" y="46"/>
      <point x="432" y="119" type="curve" smooth="yes"/>
      <point x="432" y="219"/>
      <point x="474" y="411"/>
      <point x="581" y="411" type="curve" smooth="yes"/>
      <point x="627" y="411"/>
      <point x="650" y="379"/>
      <point x="650" y="308" type="curve" smooth="yes"/>
      <point x="650" y="208"/>
      <point x="610" y="13"/>
    </contour>
  </outline>
</glyph>
<glyph name="ampersand" format="2">
  <advance width="648"/>
  <unicode hex="0026"/>
  <outline>
    <contour>
      <point x="212" y="-10" type="curve" smooth="yes"/>
      <point x="319" y="-10"/>
      <point x="389" y="38"/>
      <point x="458" y="105" type="curve"/>
      <point x="525" y="0" type="line"/>
      <point x="556" y="0" type="line"/>
      <point x="477" y="121" type="line"/>
      <point x="529" y="179"/>
      <point x="577" y="246"/>
      <point x="612" y="328" type="curve"/>
      <point x="585" y="328" type="line"/>
      <point x="555" y="257"/>
      <point x="509" y="188"/>
      <point x="462" y="140" type="curve"/>
      <point x="298" y="386" type="line"/>
      <point x="426" y="441"/>
      <point x="499" y="492"/>
      <point x="499" y="598" type="curve" smooth="yes"/>
      <point x="499" y="674"/>
      <point x="451" y="725"/>
      <point x="371" y="725" type="curve" smooth="yes"/>
      <point x="268" y="725"/>
      <point x="199" y="655"/>
      <point x="199" y="552" type="curve" smooth="yes"/>
      <point x="199" y="501"/>
      <point x="221" y="451"/>
      <point x="261" y="395" type="curve"/>
      <point x="136" y="337"/>
      <point x="46" y="275"/>
      <point x="46" y="150" type="curve" smooth="yes"/>
      <point x="46" y="47"/>
      <point x="116" y="-10"/>
    </contour>
    <contour>
      <point x="215" y="15" type="curve" smooth="yes"/>
      <point x="139" y="15"/>
      <point x="73" y="62"/>
      <point x="73" y="151" type="curve" smooth="yes"/>
      <point x="73" y="264"/>
      <point x="153" y="321"/>
      <point x="274" y="377" type="curve"/>
      <point x="445" y="123" type="line"/>
      <point x="376" y="57"/>
      <point x="313" y="15"/>
    </contour>
    <contour>
      <point x="286" y="405" type="curve"/>
      <point x="248" y="456"/>
      <point x="226" y="505"/>
      <point x="226" y="553" type="curve" smooth="yes"/>
      <point x="226" y="648"/>
      <point x="290" y="700"/>
      <point x="367" y="700" type="curve" smooth="yes"/>
      <point x="432" y="700"/>
      <point x="472" y="659"/>
      <point x="472" y="596" type="curve" smooth="yes"/>
      <point x="472" y="504"/>
      <point x="409" y="457"/>
    </contour>
  </outline>
</glyph>
<glyph name="quotesingle" format="2">
  <advance width="164"/>
  <unicode hex="0027"/>
  <outline>
    <contour>
      <point x="109" y="456" type="line"/>
      <point x="129" y="456" type="line"/>
      <point x="188" y="714" type="line"/>
      <point x="160" y="714" type="line"/>
    </contour>
  </outline>
</glyph>
<glyph name="parenleft" format="2">
  <advance width="231"/>
  <unicode hex="0028"/>
  <outline>
    <contour>
      <point x="91" y="-158" type="curve"/>
      <point x="119" y="-158" type="line"/>
      <point x="79" y="-81"/>
      <point x="58" y="11"/>
      <point x="58" y="112" type="curve" smooth="yes"/>
      <point x="58" y="336"/>
      <point x="150" y="559"/>
      <point x="304" y="714" type="curve"/>
      <point x="271" y="714" type="line"/>
      <point x="134" y="575"/>
      <point x="32" y="357"/>
      <point x="32" y="111" type="curve" smooth="yes"/>
      <point x="32" y="7"/>
      <point x="53" y="-85"/>
    </contour>
  </outline>
</glyph>
<glyph name="parenright" format="2">
  <advance width="230"/>
  <unicode hex="0029"/>
  <outline>
    <contour>
      <point x="-62" y="-158" type="curve"/>
      <point x="-29" y="-158" type="line"/>
      <point x="109" y="-19"/>
      <point x="210" y="199"/>
      <point x="210" y="445" type="curve" smooth="yes"/>
      <point x="210" y="549"/>
      <point x="190" y="641"/>
      <point x="151" y="714" type="curve"/>
      <point x="123" y="714" type="line"/>
      <point x="164" y="637"/>
      <point x="184" y="545"/>
      <point x="184" y="444" type="curve" smooth="yes"/>
      <point x="184" y="220"/>
      <point x="92" y="-3"/>
    </contour>
  </outline>
</glyph>
<glyph name="asterisk" format="2">
  <advance width="505"/>
  <unicode hex="002A"/>
  <outline>
    <contour>
      <point x="379" y="338" type="line"/>
      <point x="405" y="349" type="line"/>
      <point x="324" y="534" type="line"/>
      <point x="514" y="549" type="line"/>
      <point x="515" y="577" type="line"/>
      <point x="321" y="550" type="line"/>
      <point x="370" y="751" type="line"/>
      <point x="343" y="757" type="line"/>
      <point x="305" y="554" type="line"/>
      <point x="141" y="662" type="line"/>
      <point x="127" y="637" type="line"/>
      <point x="296" y="540" type="line"/>
      <point x="147" y="407" type="line"/>
      <point x="165" y="387" type="line"/>
      <point x="308" y="528" type="line"/>
    </contour>
  </outline>
</glyph>
<glyph name="plus" format="2">
  <advance width="536"/>
  <unicode hex="002B"/>
  <outline>
    <contour>
      <point x="300" y="365" type="line"/>
      <point x="300" y="583" type="line"/>
      <point x="275" y="583" type="line"/>
      <point x="275" y="365" type="line"/>
      <point x="71" y="365" type="line"/>
      <point x="71" y="341" type="line"/>
      <point x="275" y="341" type="line"/>
      <point x="275" y="123" type="line"/>
      <point x="300" y="123" type="line"/>
      <point x="300" y="341" type="line"/>
      <point x="504" y="341" type="line"/>
      <point x="504" y="365" type="line"/>
    </contour>
  </outline>
</glyph>
<glyph name="comma" format="2">
  <advance width="200"/>
  <unicode hex="002C"/>
  <outline>
    <contour>
      <point x="-44" y="-129" type="curve"/>
      <point x="-21" y="-129" type="line"/>
      <point x="20" y="-60"/>
      <point x="59" y="30"/>
      <point x="86" y="104" type="curve"/>
      <point x="85" y="116" type="line"/>
      <point x="58" y="116" type="line"/>
      <point x="33" y="40"/>
      <point x="3" y="-32"/>
    </contour>
  </outline>
</glyph>
<glyph name="period" format="2">
  <advance width="200"/>
  <unicode hex="002E"/>
  <outline>
    <contour>
      <point x="52" y="-8" type="curve" smooth="yes"/>
      <point x="71" y="-8"/>
      <point x="81" y="14"/>
      <point x="81" y="32" type="curve" smooth="yes"/>
      <point x="81" y="43"/>
      <point x="75" y="54"/>
      <point x="60" y="54" type="curve" smooth="yes"/>
      <point x="40" y="54"/>
      <point x="30" y="32"/>
      <point x="30" y="14" type="curve" smooth="yes"/>
      <point x="30" y="0"/>
      <point x="39" y="-8"/>
    </contour>
  </outline>
</glyph>
<glyph name="zero" format="2">
  <advance width="523"/>
  <unicode hex="0030"/>
  <outline>
    <contour>
      <point x="224" y="-10" type="curve" smooth="yes"/>
      <point x="416" y="-10"/>
      <point x="508" y="279"/>
      <point x="508" y="526" type="curve" smooth="yes"/>
      <point x="508" y="646"/>
      <point x="456" y="725"/>
      <point x="350" y="725" type="curve" smooth="yes"/>
      <point x="148" y="725"/>
      <point x="65" y="417"/>
      <point x="65" y="199" type="curve" smooth="yes"/>
      <point x="65" y="60"/>
      <point x="129" y="-10"/>
    </contour>
    <contour>
      <point x="226" y="15" type="curve" smooth="yes"/>
      <point x="143" y="15"/>
      <point x="92" y="75"/>
      <point x="92" y="200" type="curve" smooth="yes"/>
      <point x="92" y="399"/>
      <point x="166" y="700"/>
      <point x="348" y="700" type="curve" smooth="yes"/>
      <point x="440" y="700"/>
      <point x="481" y="633"/>
      <point x="481" y="524" type="curve" smooth="yes"/>
      <point x="481" y="297"/>
      <point x="391" y="15"/>
    </contour>
  </outline>
</glyph>
<glyph name="one" format="2">
  <advance width="523"/>
  <unicode hex="0031"/>
  <outline>
    <contour>
      <point x="336" y="563" type="curve" smooth="yes"/>
      <point x="217" y="0" type="line"/>
      <point x="244" y="0" type="line"/>
      <point x="395" y="714" type="line"/>
      <point x="370" y="714" type="line"/>
      <point x="163" y="571" type="line"/>
      <point x="176" y="551" type="line"/>
      <point x="305" y="641" type="line" smooth="yes"/>
      <point x="332" y="660"/>
      <point x="346" y="671"/>
      <point x="363" y="685" type="curve"/>
      <point x="356" y="658"/>
      <point x="348" y="620"/>
    </contour>
  </outline>
</glyph>
<glyph name="two" format="2">
  <advance width="523"/>
  <unicode hex="0032"/>
  <outline>
    <contour>
      <point x="9" y="0" type="line"/>
      <point x="399" y="0" type="line"/>
      <point x="404" y="25" type="line"/>
      <point x="52" y="25" type="line"/>
      <point x="52" y="26" type="line"/>
      <point x="285" y="246" type="line" smooth="yes"/>
      <point x="393" y="348"/>
      <point x="488" y="444"/>
      <point x="488" y="578" type="curve" smooth="yes"/>
      <point x="488" y="666"/>
      <point x="429" y="724"/>
      <point x="347" y="724" type="curve" smooth="yes"/>
      <point x="291" y="724"/>
      <point x="228" y="706"/>
      <point x="163" y="655" type="curve"/>
      <point x="175" y="635" type="line"/>
      <point x="234" y="678"/>
      <point x="289" y="699"/>
      <point x="341" y="699" type="curve" smooth="yes"/>
      <point x="414" y="699"/>
      <point x="462" y="656"/>
      <point x="462" y="578" type="curve" smooth="yes"/>
      <point x="462" y="443"/>
      <point x="353" y="345"/>
      <point x="266" y="262" type="curve" smooth="yes"/>
      <point x="14" y="23" type="line"/>
    </contour>
  </outline>
</glyph>
<glyph name="three" format="2">
  <advance width="523"/>
  <unicode hex="0033"/>
  <outline>
    <contour>
      <point x="199" y="-10" type="curve" smooth="yes"/>
      <point x="354" y="-10"/>
      <point x="449" y="79"/>
      <point x="449" y="211" type="curve" smooth="yes"/>
      <point x="449" y="296"/>
      <point x="402" y="354"/>
      <point x="327" y="371" type="curve"/>
      <point x="327" y="373" type="line"/>
      <point x="419" y="389"/>
      <point x="505" y="456"/>
      <point x="505" y="574" type="curve" smooth="yes"/>
      <point x="505" y="659"/>
      <point x="442" y="724"/>
      <point x="347" y="724" type="curve" smooth="yes"/>
      <point x="274" y="724"/>
      <point x="202" y="695"/>
      <point x="140" y="650" type="curve"/>
      <point x="153" y="629" type="line"/>
      <point x="220" y="675"/>
      <point x="283" y="699"/>
      <point x="347" y="699" type="curve" smooth="yes"/>
      <point x="427" y="699"/>
      <point x="478" y="649"/>
      <point x="478" y="575" type="curve" smooth="yes"/>
      <point x="478" y="440"/>
      <point x="357" y="384"/>
      <point x="255" y="384" type="curve" smooth="yes"/>
      <point x="180" y="384" type="line"/>
      <point x="175" y="359" type="line"/>
      <point x="250" y="359" type="line" smooth="yes"/>
      <point x="354" y="359"/>
      <point x="422" y="311"/>
      <point x="422" y="211" type="curve" smooth="yes"/>
      <point x="422" y="97"/>
      <point x="336" y="15"/>
      <point x="200" y="15" type="curve" smooth="yes"/>
      <point x="127" y="15"/>
      <point x="61" y="36"/>
      <point x="21" y="61" type="curve"/>
      <point x="21" y="33" type="line"/>
      <point x="62" y="9"/>
      <point x="119" y="-10"/>
    </contour>
  </outline>
</glyph>
<glyph name="four" format="2">
  <advance width="523"/>
  <unicode hex="0034"/>
  <outline>
    <contour>
      <point x="311" y="0" type="line"/>
      <point x="338" y="0" type="line"/>
      <point x="379" y="194" type="line"/>
      <point x="499" y="194" type="line"/>
      <point x="505" y="219" type="line"/>
      <point x="385" y="219" type="line"/>
      <point x="490" y="718" type="line"/>
      <point x="459" y="718" type="line"/>
      <point x="20" y="212" type="line"/>
      <point x="16" y="194" type="line"/>
      <point x="352" y="194" type="line"/>
    </contour>
    <contour>
      <point x="57" y="219" type="line"/>
      <point x="381" y="592" type="line" smooth="yes"/>
      <point x="417" y="633"/>
      <point x="433" y="652"/>
      <point x="457" y="686" type="curve"/>
      <point x="459" y="686" type="line"/>
      <point x="446" y="633"/>
      <point x="440" y="606"/>
      <point x="423" y="524" type="curve" smooth="yes"/>
      <point x="358" y="219" type="line"/>
    </contour>
  </outline>
</glyph>
<glyph name="five" format="2">
  <advance width="523"/>
  <unicode hex="0035"/>
  <outline>
    <contour>
      <point x="195" y="-10" type="curve" smooth="yes"/>
      <point x="335" y="-10"/>
      <point x="454" y="71"/>
      <point x="454" y="249" type="curve" smooth="yes"/>
      <point x="454" y="355"/>
      <point x="384" y="427"/>
      <point x="274" y="427" type="curve" smooth="yes"/>
      <point x="220" y="427"/>
      <point x="182" y="417"/>
      <point x="151" y="408" type="curve"/>
      <point x="235" y="689" type="line"/>
      <point x="512" y="689" type="line"/>
      <point x="517" y="714" type="line"/>
      <point x="216" y="714" type="line"/>
      <point x="121" y="393" type="line"/>
      <point x="136" y="379" type="line"/>
      <point x="183" y="393"/>
      <point x="218" y="402"/>
      <point x="274" y="402" type="curve" smooth="yes"/>
      <point x="372" y="402"/>
      <point x="427" y="341"/>
      <point x="427" y="248" type="curve" smooth="yes"/>
      <point x="427" y="88"/>
      <point x="319" y="15"/>
      <point x="197" y="15" type="curve" smooth="yes"/>
      <point x="135" y="15"/>
      <point x="71" y="35"/>
      <point x="36" y="62" type="curve"/>
      <point x="36" y="32" type="line"/>
      <point x="69" y="8"/>
      <point x="124" y="-10"/>
    </contour>
  </outline>
</glyph>
<glyph name="six" format="2">
  <advance width="523"/>
  <unicode hex="0036"/>
  <outline>
    <contour>
      <point x="240" y="-10" type="curve" smooth="yes"/>
      <point x="365" y="-10"/>
      <point x="470" y="112"/>
      <point x="470" y="270" type="curve" smooth="yes"/>
      <point x="470" y="369"/>
      <point x="410" y="439"/>
      <point x="311" y="439" type="curve" smooth="yes"/>
      <point x="212" y="439"/>
      <point x="143" y="379"/>
      <point x="109" y="329" type="curve"/>
      <point x="107" y="329" type="line"/>
      <point x="176" y="604"/>
      <point x="296" y="701"/>
      <point x="433" y="701" type="curve" smooth="yes"/>
      <point x="467" y="701"/>
      <point x="498" y="695"/>
      <point x="518" y="686" type="curve"/>
      <point x="524" y="712" type="line"/>
      <point x="502" y="720"/>
      <point x="468" y="726"/>
      <point x="434" y="726" type="curve" smooth="yes"/>
      <point x="360" y="726"/>
      <point x="288" y="701"/>
      <point x="228" y="639" type="curve" smooth="yes"/>
      <point x="132" y="539"/>
      <point x="67" y="345"/>
      <point x="67" y="205" type="curve" smooth="yes"/>
      <point x="67" y="86"/>
      <point x="119" y="-10"/>
    </contour>
    <contour>
      <point x="240" y="15" type="curve" smooth="yes"/>
      <point x="129" y="15"/>
      <point x="94" y="105"/>
      <point x="94" y="194" type="curve" smooth="yes"/>
      <point x="94" y="218"/>
      <point x="97" y="241"/>
      <point x="100" y="258" type="curve" smooth="yes"/>
      <point x="113" y="327"/>
      <point x="200" y="414"/>
      <point x="309" y="414" type="curve" smooth="yes"/>
      <point x="391" y="414"/>
      <point x="443" y="362"/>
      <point x="443" y="269" type="curve" smooth="yes"/>
      <point x="443" y="145"/>
      <point x="361" y="15"/>
    </contour>
  </outline>
</glyph>
<glyph name="seven" format="2">
  <advance width="523"/>
  <unicode hex="0037"/>
  <outline>
    <contour>
      <point x="108" y="0" type="line"/>
      <point x="139" y="0" type="line"/>
      <point x="538" y="697" type="line"/>
      <point x="541" y="714" type="line"/>
      <point x="133" y="714" type="line"/>
      <point x="128" y="689" type="line"/>
      <point x="504" y="689" type="line"/>
    </contour>
  </outline>
</glyph>
<glyph name="eight" format="2">
  <advance width="523"/>
  <unicode hex="0038"/>
  <outline>
    <contour>
      <point x="232" y="-10" type="curve" smooth="yes"/>
      <point x="350" y="-10"/>
      <point x="451" y="61"/>
      <point x="451" y="192" type="curve" smooth="yes"/>
      <point x="451" y="289"/>
      <point x="391" y="331"/>
      <point x="320" y="374" type="curve"/>
      <point x="429" y="416"/>
      <point x="510" y="474"/>
      <point x="510" y="578" type="curve" smooth="yes"/>
      <point x="510" y="660"/>
      <point x="445" y="724"/>
      <point x="349" y="724" type="curve" smooth="yes"/>
      <point x="239" y="724"/>
      <point x="158" y="653"/>
      <point x="158" y="535" type="curve" smooth="yes"/>
      <point x="158" y="458"/>
      <point x="206" y="414"/>
      <point x="262" y="379" type="curve"/>
      <point x="141" y="338"/>
      <point x="46" y="284"/>
      <point x="46" y="156" type="curve" smooth="yes"/>
      <point x="46" y="54"/>
      <point x="119" y="-10"/>
    </contour>
    <contour>
      <point x="232" y="15" type="curve" smooth="yes"/>
      <point x="138" y="15"/>
      <point x="72" y="68"/>
      <point x="72" y="156" type="curve" smooth="yes"/>
      <point x="72" y="281"/>
      <point x="180" y="327"/>
      <point x="291" y="364" type="curve"/>
      <point x="371" y="315"/>
      <point x="424" y="284"/>
      <point x="424" y="192" type="curve" smooth="yes"/>
      <point x="424" y="73"/>
      <point x="334" y="15"/>
    </contour>
    <contour>
      <point x="295" y="388" type="curve"/>
      <point x="227" y="425"/>
      <point x="184" y="468"/>
      <point x="184" y="536" type="curve" smooth="yes"/>
      <point x="184" y="645"/>
      <point x="257" y="699"/>
      <point x="349" y="699" type="curve" smooth="yes"/>
      <point x="425" y="699"/>
      <point x="483" y="654"/>
      <point x="483" y="578" type="curve" smooth="yes"/>
      <point x="483" y="471"/>
      <point x="393" y="428"/>
    </contour>
  </outline>
</glyph>
<glyph name="nine" format="2">
  <advance width="523"/>
  <unicode hex="0039"/>
  <outline>
    <contour>
      <point x="157" y="-10" type="curve" smooth="yes"/>
      <point x="215" y="-10"/>
      <point x="277" y="13"/>
      <point x="332" y="65" type="curve" smooth="yes"/>
      <point x="431" y="159"/>
      <point x="503" y="366"/>
      <point x="503" y="511" type="curve" smooth="yes"/>
      <point x="503" y="628"/>
      <point x="451" y="724"/>
      <point x="330" y="724" type="curve" smooth="yes"/>
      <point x="205" y="724"/>
      <point x="100" y="602"/>
      <point x="100" y="441" type="curve" smooth="yes"/>
      <point x="100" y="345"/>
      <point x="160" y="275"/>
      <point x="259" y="275" type="curve" smooth="yes"/>
      <point x="358" y="275"/>
      <point x="427" y="335"/>
      <point x="461" y="385" type="curve"/>
      <point x="463" y="385" type="line"/>
      <point x="403" y="135"/>
      <point x="284" y="15"/>
      <point x="157" y="15" type="curve" smooth="yes"/>
      <point x="114" y="15"/>
      <point x="70" y="24"/>
      <point x="45" y="34" type="curve"/>
      <point x="45" y="6" type="line"/>
      <point x="73" y="-3"/>
      <point x="113" y="-10"/>
    </contour>
    <contour>
      <point x="260" y="300" type="curve" smooth="yes"/>
      <point x="179" y="300"/>
      <point x="127" y="354"/>
      <point x="127" y="441" type="curve" smooth="yes"/>
      <point x="127" y="571"/>
      <point x="206" y="699"/>
      <point x="332" y="699" type="curve" smooth="yes"/>
      <point x="441" y="699"/>
      <point x="476" y="609"/>
      <point x="476" y="515" type="curve" smooth="yes"/>
      <point x="476" y="493"/>
      <point x="474" y="477"/>
      <point x="470" y="458" type="curve" smooth="yes"/>
      <point x="454" y="383"/>
      <point x="370" y="300"/>
    </contour>
  </outline>
</glyph>
<glyph name="semicolon" format="2">
  <advance width="200"/>
  <unicode hex="003B"/>
  <outline>
    <contour>
      <point x="-44" y="-129" type="curve"/>
      <point x="-21" y="-129" type="line"/>
      <point x="20" y="-60"/>
      <point x="59" y="30"/>
      <point x="86" y="104" type="curve"/>
      <point x="85" y="116" type="line"/>
      <point x="58" y="116" type="line"/>
      <point x="33" y="40"/>
      <point x="3" y="-32"/>
    </contour>
    <contour>
      <point x="153" y="470" type="curve" smooth="yes"/>
      <point x="172" y="470"/>
      <point x="182" y="492"/>
      <point x="182" y="510" type="curve" smooth="yes"/>
      <point x="182" y="521"/>
      <point x="176" y="532"/>
      <point x="161" y="532" type="curve" smooth="yes"/>
      <point x="141" y="532"/>
      <point x="131" y="510"/>
      <point x="131" y="492" type="curve" smooth="yes"/>
      <point x="131" y="478"/>
      <point x="139" y="470"/>
    </contour>
  </outline>
</glyph>
<glyph name="less" format="2">
  <advance width="535"/>
  <unicode hex="003C"/>
  <outline>
    <contour>
      <point x="503" y="138" type="line"/>
      <point x="503" y="164" type="line"/>
      <point x="107" y="362" type="line"/>
      <point x="503" y="560" type="line"/>
      <point x="503" y="586" type="line"/>
      <point x="72" y="371" type="line"/>
      <point x="72" y="353" type="line"/>
    </contour>
  </outline>
</glyph>
<glyph name="equal" format="2">
  <advance width="536"/>
  <unicode hex="003D"/>
  <outline>
    <contour>
      <point x="72" y="443" type="line"/>
      <point x="504" y="443" type="line"/>
      <point x="504" y="467" type="line"/>
      <point x="72" y="467" type="line"/>
    </contour>
    <contour>
      <point x="72" y="239" type="line"/>
      <point x="504" y="239" type="line"/>
      <point x="504" y="263" type="line"/>
      <point x="72" y="263" type="line"/>
    </contour>
  </outline>
</glyph>
<glyph name="question" format="2">
  <advance width="383"/>
  <unicode hex="003F"/>
  <outline>
    <contour>
      <point x="112" y="174" type="curve"/>
      <point x="137" y="174" type="line"/>
      <point x="156" y="272"/>
      <point x="201" y="309"/>
      <point x="261" y="355" type="curve" smooth="yes"/>
      <point x="342" y="417"/>
      <point x="406" y="466"/>
      <point x="406" y="572" type="curve" smooth="yes"/>
      <point x="406" y="660"/>
      <point x="349" y="724"/>
      <point x="267" y="724" type="curve" smooth="yes"/>
      <point x="217" y="724"/>
      <point x="177" y="716"/>
      <point x="121" y="690" type="curve"/>
      <point x="131" y="667" type="line"/>
      <point x="179" y="689"/>
      <point x="220" y="699"/>
      <point x="265" y="699" type="curve" smooth="yes"/>
      <point x="330" y="699"/>
      <point x="379" y="649"/>
      <point x="379" y="571" type="curve" smooth="yes"/>
      <point x="379" y="471"/>
      <point x="313" y="428"/>
      <point x="249" y="377" type="curve" smooth="yes"/>
      <point x="178" y="320"/>
      <point x="132" y="289"/>
    </contour>
    <contour>
      <point x="94" y="-8" type="curve" smooth="yes"/>
      <point x="113" y="-8"/>
      <point x="123" y="14"/>
      <point x="123" y="32" type="curve" smooth="yes"/>
      <point x="123" y="43"/>
      <point x="117" y="54"/>
      <point x="102" y="54" type="curve" smooth="yes"/>
      <point x="82" y="54"/>
      <point x="72" y="32"/>
      <point x="72" y="14" type="curve" smooth="yes"/>
      <point x="72" y="0"/>
      <point x="81" y="-8"/>
    </contour>
  </outline>
</glyph>
<glyph name="at" format="2">
  <advance width="793"/>
  <unicode hex="0040"/>
  <outline>
    <contour>
      <point x="356" y="-90" type="curve" smooth="yes"/>
      <point x="425" y="-90"/>
      <point x="486" y="-78"/>
      <point x="544" y="-56" type="curve"/>
      <point x="544" y="-31" type="line"/>
      <point x="481" y="-56"/>
      <point x="417" y="-65"/>
      <point x="356" y="-65" type="curve" smooth="yes"/>
      <point x="212" y="-65"/>
      <point x="83" y="31"/>
      <point x="83" y="239" type="curve" smooth="yes"/>
      <point x="83" y="470"/>
      <point x="232" y="681"/>
      <point x="498" y="681" type="curve" smooth="yes"/>
      <point x="657" y="681"/>
      <point x="745" y="576"/>
      <point x="745" y="417" type="curve" smooth="yes"/>
      <point x="745" y="257"/>
      <point x="663" y="132"/>
      <point x="577" y="132" type="curve" smooth="yes"/>
      <point x="534" y="132"/>
      <point x="521" y="165"/>
      <point x="521" y="208" type="curve" smooth="yes"/>
      <point x="521" y="237"/>
      <point x="531" y="278"/>
      <point x="548" y="341" type="curve" smooth="yes"/>
      <point x="586" y="483" type="line"/>
      <point x="556" y="496"/>
      <point x="515" y="506"/>
      <point x="472" y="506" type="curve" smooth="yes"/>
      <point x="345" y="506"/>
      <point x="235" y="387"/>
      <point x="235" y="229" type="curve" smooth="yes"/>
      <point x="235" y="150"/>
      <point x="280" y="107"/>
      <point x="342" y="107" type="curve" smooth="yes"/>
      <point x="408" y="107"/>
      <point x="460" y="144"/>
      <point x="495" y="209" type="curve"/>
      <point x="497" y="209" type="line"/>
      <point x="497" y="140"/>
      <point x="521" y="107"/>
      <point x="575" y="107" type="curve" smooth="yes"/>
      <point x="686" y="107"/>
      <point x="772" y="248"/>
      <point x="772" y="417" type="curve" smooth="yes"/>
      <point x="772" y="594"/>
      <point x="668" y="706"/>
      <point x="501" y="706" type="curve" smooth="yes"/>
      <point x="208" y="706"/>
      <point x="55" y="470"/>
      <point x="55" y="237" type="curve" smooth="yes"/>
      <point x="55" y="16"/>
      <point x="198" y="-90"/>
    </contour>
    <contour>
      <point x="345" y="132" type="curve" smooth="yes"/>
      <point x="295" y="132"/>
      <point x="262" y="166"/>
      <point x="262" y="230" type="curve" smooth="yes"/>
      <point x="262" y="380"/>
      <point x="360" y="481"/>
      <point x="469" y="481" type="curve" smooth="yes"/>
      <point x="505" y="481"/>
      <point x="532" y="474"/>
      <point x="556" y="465" type="curve"/>
      <point x="517" y="320" type="line" smooth="yes"/>
      <point x="484" y="199"/>
      <point x="425" y="132"/>
    </contour>
  </outline>
</glyph>
<glyph name="A" format="2">
  <advance width="520"/>
  <unicode hex="0041"/>
  <anchor x="208" y="0" name="bottom"/>
  <anchor x="367" y="714" name="top"/>
  <anchor x="599" y="714" name="topright"/>
  <outline>
    <contour>
      <point x="-48" y="0" type="line"/>
      <point x="-18" y="0" type="line"/>
      <point x="134" y="271" type="line"/>
      <point x="412" y="271" type="line"/>
      <point x="448" y="0" type="line"/>
      <point x="473" y="0" type="line"/>
      <point x="380" y="716" type="line"/>
      <point x="356" y="716" type="line"/>
    </contour>
    <contour>
      <point x="148" y="296" type="line"/>
      <point x="313" y="594" type="line" smooth="yes"/>
      <point x="328" y="622"/>
      <point x="345" y="652"/>
      <point x="360" y="682" type="curve"/>
      <point x="362" y="682" type="line"/>
      <point x="364" y="651"/>
      <point x="369" y="620"/>
      <point x="372" y="594" type="curve" smooth="yes"/>
      <point x="409" y="296" type="line"/>
    </contour>
  </outline>
</glyph>
<glyph name="C" format="2">
  <advance width="564"/>
  <unicode hex="0043"/>
  <anchor x="270" y="0" name="bottom"/>
  <anchor x="432" y="714" name="top"/>
  <anchor x="644" y="714" name="topright"/>
  <outline>
    <contour>
      <point x="309" y="-10" type="curve" smooth="yes"/>
      <point x="376" y="-10"/>
      <point x="432" y="4"/>
      <point x="475" y="21" type="curve"/>
      <point x="475" y="44" type="line"/>
      <point x="429" y="28"/>
      <point x="375" y="15"/>
      <point x="311" y="15" type="curve" smooth="yes"/>
      <point x="184" y="15"/>
      <point x="108" y="110"/>
      <point x="108" y="266" type="curve" smooth="yes"/>
      <point x="108" y="524"/>
      <point x="259" y="699"/>
      <point x="454" y="699" type="curve" smooth="yes"/>
      <point x="504" y="699"/>
      <point x="552" y="690"/>
      <point x="596" y="662" type="curve"/>
      <point x="608" y="687" type="line"/>
      <point x="564" y="712"/>
      <point x="514" y="724"/>
      <point x="455" y="724" type="curve" smooth="yes"/>
      <point x="246" y="724"/>
      <point x="82" y="538"/>
      <point x="82" y="264" type="curve" smooth="yes"/>
      <point x="82" y="98"/>
      <point x="165" y="-10"/>
    </contour>
  </outline>
</glyph>
<glyph name="D" format="2">
  <advance width="642"/>
  <unicode hex="0044"/>
  <anchor x="248" y="0" name="bottom"/>
  <anchor x="345" y="357" name="center"/>
  <anchor x="397" y="714" name="top"/>
  <anchor x="712" y="714" name="topright"/>
  <outline>
    <contour>
      <point x="47" y="0" type="line"/>
      <point x="186" y="0" type="line" smooth="yes"/>
      <point x="474" y="0"/>
      <point x="609" y="209"/>
      <point x="609" y="430" type="curve" smooth="yes"/>
      <point x="609" y="621"/>
      <point x="507" y="714"/>
      <point x="336" y="714" type="curve" smooth="yes"/>
      <point x="198" y="714" type="line"/>
    </contour>
    <contour>
      <point x="188" y="25" type="curve" smooth="yes"/>
      <point x="79" y="25" type="line"/>
      <point x="220" y="689" type="line"/>
      <point x="327" y="689" type="line" smooth="yes"/>
      <point x="490" y="689"/>
      <point x="582" y="607"/>
      <point x="582" y="430" type="curve" smooth="yes"/>
      <point x="582" y="213"/>
      <point x="447" y="25"/>
    </contour>
  </outline>
</glyph>
<glyph name="E" format="2">
  <advance width="507"/>
  <unicode hex="0045"/>
  <anchor x="202" y="0" name="bottom"/>
  <anchor x="373" y="714" name="top"/>
  <anchor x="587" y="714" name="topright"/>
  <outline>
    <contour>
      <point x="47" y="0" type="line"/>
      <point x="387" y="0" type="line"/>
      <point x="392" y="25" type="line"/>
      <point x="79" y="25" type="line"/>
      <point x="151" y="364" type="line"/>
      <point x="446" y="364" type="line"/>
      <point x="451" y="389" type="line"/>
      <point x="156" y="389" type="line"/>
      <point x="220" y="689" type="line"/>
      <point x="533" y="689" type="line"/>
      <point x="538" y="714" type="line"/>
      <point x="198" y="714" type="line"/>
    </contour>
  </outline>
</glyph>
<glyph name="F" format="2">
  <advance width="462"/>
  <unicode hex="0046"/>
  <anchor x="178" y="0" name="bottom"/>
  <anchor x="370" y="714" name="top"/>
  <anchor x="542" y="714" name="topright"/>
  <outline>
    <contour>
      <point x="47" y="0" type="line"/>
      <point x="74" y="0" type="line"/>
      <point x="143" y="329" type="line"/>
      <point x="440" y="329" type="line"/>
      <point x="446" y="354" type="line"/>
      <point x="149" y="354" type="line"/>
      <point x="220" y="689" type="line"/>
      <point x="534" y="689" type="line"/>
      <point x="539" y="714" type="line"/>
      <point x="198" y="714" type="line"/>
    </contour>
  </outline>
</glyph>
<glyph name="H" format="2">
  <advance width="647"/>
  <unicode hex="0048"/>
  <anchor x="268" y="0" name="bottom"/>
  <anchor x="344" y="357" name="center"/>
  <anchor x="420" y="714" name="top"/>
  <anchor x="723" y="714" name="topright"/>
  <outline>
    <contour>
      <point x="47" y="0" type="line"/>
      <point x="74" y="0" type="line"/>
      <point x="151" y="363" type="line"/>
      <point x="548" y="363" type="line"/>
      <point x="472" y="0" type="line"/>
      <point x="499" y="0" type="line"/>
      <point x="650" y="714" type="line"/>
      <point x="623" y="714" type="line"/>
      <point x="554" y="388" type="line"/>
      <point x="156" y="388" type="line"/>
      <point x="225" y="714" type="line"/>
      <point x="198" y="714" type="line"/>
    </contour>
  </outline>
</glyph>
<glyph name="I" format="2">
  <advance width="266"/>
  <unicode hex="0049"/>
  <anchor x="77" y="0" name="bottom"/>
  <anchor x="229" y="714" name="top"/>
  <anchor x="342" y="714" name="topright"/>
  <outline>
    <contour>
      <point x="7" y="0" type="line"/>
      <point x="159" y="0" type="line"/>
      <point x="163" y="20" type="line"/>
      <point x="100" y="23" type="line"/>
      <point x="242" y="690" type="line"/>
      <point x="306" y="694" type="line"/>
      <point x="310" y="714" type="line"/>
      <point x="158" y="714" type="line"/>
      <point x="154" y="694" type="line"/>
      <point x="216" y="690" type="line"/>
      <point x="74" y="23" type="line"/>
      <point x="11" y="20" type="line"/>
    </contour>
  </outline>
</glyph>
<glyph name="J" format="2">
  <advance width="220"/>
  <unicode hex="004A"/>
  <anchor x="-85" y="-174" name="bottom"/>
  <anchor x="209" y="714" name="top"/>
  <anchor x="300" y="714" name="topright"/>
  <outline>
    <contour>
      <point x="-85" y="-174" type="curve" smooth="yes"/>
      <point x="1" y="-174"/>
      <point x="51" y="-122"/>
      <point x="74" y="-13" type="curve" smooth="yes"/>
      <point x="228" y="714" type="line"/>
      <point x="201" y="714" type="line"/>
      <point x="48" y="-9" type="line" smooth="yes"/>
      <point x="30" y="-93"/>
      <point x="-4" y="-148"/>
      <point x="-84" y="-148" type="curve" smooth="yes"/>
      <point x="-108" y="-148"/>
      <point x="-138" y="-144"/>
      <point x="-162" y="-136" type="curve"/>
      <point x="-163" y="-161" type="line"/>
      <point x="-145" y="-168"/>
      <point x="-114" y="-174"/>
    </contour>
  </outline>
</glyph>
<glyph name="K" format="2">
  <advance width="516"/>
  <unicode hex="004B"/>
  <anchor x="216" y="0" name="bottom"/>
  <anchor x="378" y="714" name="top"/>
  <anchor x="596" y="714" name="topright"/>
  <outline>
    <contour>
      <point x="47" y="0" type="line"/>
      <point x="74" y="0" type="line"/>
      <point x="135" y="291" type="line"/>
      <point x="253" y="396" type="line"/>
      <point x="430" y="0" type="line"/>
      <point x="460" y="0" type="line"/>
      <point x="274" y="414" type="line"/>
      <point x="605" y="714" type="line"/>
      <point x="569" y="714" type="line"/>
      <point x="197" y="376" type="line"/>
      <point x="142" y="324" type="line"/>
      <point x="225" y="714" type="line"/>
      <point x="198" y="714" type="line"/>
    </contour>
  </outline>
</glyph>
<glyph name="L" format="2">
  <advance width="466"/>
  <unicode hex="004C"/>
  <anchor x="191" y="0" name="bottom"/>
  <anchor x="140" y="357" name="center"/>
  <anchor x="210" y="714" name="top"/>
  <anchor x="491" y="714" name="topright"/>
  <outline>
    <contour>
      <point x="47" y="0" type="line"/>
      <point x="385" y="0" type="line"/>
      <point x="391" y="25" type="line"/>
      <point x="79" y="25" type="line"/>
      <point x="225" y="714" type="line"/>
      <point x="198" y="714" type="line"/>
    </contour>
  </outline>
</glyph>
<glyph name="M" format="2">
  <advance width="766"/>
  <unicode hex="004D"/>
  <anchor x="330" y="0" name="bottom"/>
  <anchor x="481" y="714" name="top"/>
  <anchor x="846" y="714" name="topright"/>
  <outline>
    <contour>
      <point x="47" y="0" type="line"/>
      <point x="74" y="0" type="line"/>
      <point x="199" y="597" type="line" smooth="yes"/>
      <point x="205" y="627"/>
      <point x="209" y="646"/>
      <point x="215" y="679" type="curve"/>
      <point x="217" y="679" type="line"/>
      <point x="322" y="0" type="line"/>
      <point x="343" y="0" type="line"/>
      <point x="735" y="678" type="line"/>
      <point x="737" y="678" type="line"/>
      <point x="729" y="645"/>
      <point x="723" y="622"/>
      <point x="719" y="602" type="curve" smooth="yes"/>
      <point x="593" y="0" type="line"/>
      <point x="618" y="0" type="line"/>
      <point x="769" y="714" type="line"/>
      <point x="727" y="714" type="line"/>
      <point x="343" y="47" type="line"/>
      <point x="340" y="47" type="line"/>
      <point x="236" y="714" type="line"/>
      <point x="198" y="714" type="line"/>
    </contour>
  </outline>
</glyph>
<glyph name="N" format="2">
  <advance width="641"/>
  <unicode hex="004E"/>
  <anchor x="267" y="0" name="bottom"/>
  <anchor x="419" y="714" name="top"/>
  <anchor x="721" y="714" name="topright"/>
  <outline>
    <contour>
      <point x="47" y="0" type="line"/>
      <point x="75" y="0" type="line"/>
      <point x="180" y="502" type="line" smooth="yes"/>
      <point x="191" y="555"/>
      <point x="199" y="601"/>
      <point x="211" y="659" type="curve"/>
      <point x="213" y="659" type="line"/>
      <point x="472" y="0" type="line"/>
      <point x="493" y="0" type="line"/>
      <point x="644" y="714" type="line"/>
      <point x="619" y="714" type="line"/>
      <point x="512" y="211" type="line" smooth="yes"/>
      <point x="502" y="164"/>
      <point x="490" y="106"/>
      <point x="480" y="54" type="curve"/>
      <point x="478" y="54" type="line"/>
      <point x="218" y="714" type="line"/>
      <point x="198" y="714" type="line"/>
    </contour>
  </outline>
</glyph>
<glyph name="O" format="2">
  <advance width="680"/>
  <unicode hex="004F"/>
  <anchor x="287" y="0" name="bottom"/>
  <anchor x="363" y="357" name="center"/>
  <anchor x="438" y="714" name="top"/>
  <anchor x="760" y="714" name="topright"/>
  <outline>
    <contour>
      <point x="317" y="-10" type="curve" smooth="yes"/>
      <point x="575" y="-10"/>
      <point x="647" y="295"/>
      <point x="647" y="451" type="curve" smooth="yes"/>
      <point x="647" y="637"/>
      <point x="556" y="725"/>
      <point x="417" y="725" type="curve" smooth="yes"/>
      <point x="188" y="725"/>
      <point x="82" y="491"/>
      <point x="82" y="271" type="curve" smooth="yes"/>
      <point x="82" y="117"/>
      <point x="145" y="-10"/>
    </contour>
    <contour>
      <point x="318" y="15" type="curve" smooth="yes"/>
      <point x="171" y="15"/>
      <point x="109" y="121"/>
      <point x="109" y="272" type="curve" smooth="yes"/>
      <point x="109" y="446"/>
      <point x="189" y="700"/>
      <point x="415" y="700" type="curve" smooth="yes"/>
      <point x="554" y="700"/>
      <point x="620" y="604"/>
      <point x="620" y="450" type="curve" smooth="yes"/>
      <point x="620" y="293"/>
      <point x="543" y="15"/>
    </contour>
  </outline>
</glyph>
<glyph name="P" format="2">
  <advance width="530"/>
  <unicode hex="0050"/>
  <anchor x="212" y="0" name="bottom"/>
  <anchor x="363" y="714" name="top"/>
  <anchor x="610" y="714" name="topright"/>
  <outline>
    <contour>
      <point x="47" y="0" type="line"/>
      <point x="74" y="0" type="line"/>
      <point x="138" y="305" type="line"/>
      <point x="270" y="305" type="line" smooth="yes"/>
      <point x="453" y="305"/>
      <point x="536" y="403"/>
      <point x="536" y="541" type="curve" smooth="yes"/>
      <point x="536" y="655"/>
      <point x="469" y="714"/>
      <point x="345" y="714" type="curve" smooth="yes"/>
      <point x="198" y="714" type="line"/>
    </contour>
    <contour>
      <point x="274" y="330" type="curve" smooth="yes"/>
      <point x="144" y="330" type="line"/>
      <point x="220" y="689" type="line"/>
      <point x="340" y="689" type="line" smooth="yes"/>
      <point x="448" y="689"/>
      <point x="509" y="644"/>
      <point x="509" y="539" type="curve" smooth="yes"/>
      <point x="509" y="416"/>
      <point x="439" y="330"/>
    </contour>
  </outline>
</glyph>
<glyph name="Q" format="2">
  <advance width="680"/>
  <unicode hex="0051"/>
  <anchor x="271" y="-130" name="bottom"/>
  <anchor x="438" y="714" name="top"/>
  <anchor x="760" y="714" name="topright"/>
  <outline>
    <contour>
      <point x="316" y="-10" type="curve"/>
      <point x="421" y="-170" type="line"/>
      <point x="456" y="-170" type="line"/>
      <point x="350" y="-9" type="line"/>
      <point x="581" y="15"/>
      <point x="647" y="301"/>
      <point x="647" y="451" type="curve" smooth="yes"/>
      <point x="647" y="637"/>
      <point x="556" y="725"/>
      <point x="417" y="725" type="curve" smooth="yes"/>
      <point x="188" y="725"/>
      <point x="82" y="491"/>
      <point x="82" y="271" type="curve" smooth="yes"/>
      <point x="82" y="113"/>
      <point x="148" y="-10"/>
      <point x="308" y="-10" type="curve" smooth="yes"/>
      <point x="312" y="-10"/>
      <point x="314" y="-10"/>
    </contour>
    <contour>
      <point x="318" y="15" type="curve" smooth="yes"/>
      <point x="171" y="15"/>
      <point x="109" y="121"/>
      <point x="109" y="272" type="curve" smooth="yes"/>
      <point x="109" y="446"/>
      <point x="189" y="700"/>
      <point x="415" y="700" type="curve" smooth="yes"/>
      <point x="554" y="700"/>
      <point x="620" y="604"/>
      <point x="620" y="450" type="curve" smooth="yes"/>
      <point x="620" y="293"/>
      <point x="543" y="15"/>
    </contour>
  </outline>
</glyph>
<glyph name="R" format="2">
  <advance width="534"/>
  <unicode hex="0052"/>
  <anchor x="214" y="0" name="bottom"/>
  <anchor x="366" y="714" name="top"/>
  <anchor x="614" y="714" name="topright"/>
  <outline>
    <contour>
      <point x="47" y="0" type="line"/>
      <point x="74" y="0" type="line"/>
      <point x="142" y="320" type="line"/>
      <point x="318" y="320" type="line"/>
      <point x="423" y="0" type="line"/>
      <point x="452" y="0" type="line"/>
      <point x="344" y="325" type="line"/>
      <point x="468" y="347"/>
      <point x="536" y="422"/>
      <point x="536" y="551" type="curve" smooth="yes"/>
      <point x="536" y="661"/>
      <point x="469" y="714"/>
      <point x="338" y="714" type="curve" smooth="yes"/>
      <point x="198" y="714" type="line"/>
    </contour>
    <contour>
      <point x="290" y="345" type="curve" smooth="yes"/>
      <point x="147" y="345" type="line"/>
      <point x="220" y="689" type="line"/>
      <point x="332" y="689" type="line" smooth="yes"/>
      <point x="452" y="689"/>
      <point x="509" y="644"/>
      <point x="509" y="550" type="curve" smooth="yes"/>
      <point x="509" y="406"/>
      <point x="411" y="345"/>
    </contour>
  </outline>
</glyph>
<glyph name="S" format="2">
  <advance width="473"/>
  <unicode hex="0053"/>
  <anchor x="183" y="0" name="bottom"/>
  <anchor x="335" y="714" name="top"/>
  <anchor x="553" y="714" name="topright"/>
  <outline>
    <contour>
      <point x="187" y="-10" type="curve" smooth="yes"/>
      <point x="287" y="-10"/>
      <point x="414" y="41"/>
      <point x="414" y="186" type="curve" smooth="yes"/>
      <point x="414" y="291"/>
      <point x="346" y="334"/>
      <point x="260" y="381" type="curve" smooth="yes"/>
      <point x="202" y="413"/>
      <point x="143" y="448"/>
      <point x="143" y="530" type="curve" smooth="yes"/>
      <point x="143" y="662"/>
      <point x="258" y="699"/>
      <point x="333" y="699" type="curve" smooth="yes"/>
      <point x="392" y="699"/>
      <point x="429" y="689"/>
      <point x="480" y="662" type="curve"/>
      <point x="491" y="687" type="line"/>
      <point x="445" y="710"/>
      <point x="403" y="724"/>
      <point x="334" y="724" type="curve" smooth="yes"/>
      <point x="231" y="724"/>
      <point x="116" y="671"/>
      <point x="116" y="529" type="curve" smooth="yes"/>
      <point x="116" y="440"/>
      <point x="179" y="393"/>
      <point x="243" y="360" type="curve" smooth="yes"/>
      <point x="328" y="316"/>
      <point x="387" y="276"/>
      <point x="387" y="186" type="curve" smooth="yes"/>
      <point x="387" y="60"/>
      <point x="273" y="15"/>
      <point x="188" y="15" type="curve" smooth="yes"/>
      <point x="117" y="15"/>
      <point x="63" y="30"/>
      <point x="18" y="53" type="curve"/>
      <point x="18" y="24" type="line"/>
      <point x="59" y="6"/>
      <point x="106" y="-10"/>
    </contour>
  </outline>
</glyph>
<glyph name="T" format="2">
  <advance width="461"/>
  <unicode hex="0054"/>
  <anchor x="178" y="0" name="bottom"/>
  <anchor x="255" y="357" name="center"/>
  <anchor x="330" y="714" name="top"/>
  <anchor x="541" y="714" name="topright"/>
  <outline>
    <contour>
      <point x="163" y="0" type="line"/>
      <point x="190" y="0" type="line"/>
      <point x="336" y="689" type="line"/>
      <point x="550" y="689" type="line"/>
      <point x="555" y="714" type="line"/>
      <point x="101" y="714" type="line"/>
      <point x="96" y="689" type="line"/>
      <point x="309" y="689" type="line"/>
    </contour>
  </outline>
</glyph>
<glyph name="U" format="2">
  <advance width="657"/>
  <unicode hex="0055"/>
  <anchor x="280" y="0" name="bottom"/>
  <anchor x="417" y="714" name="top"/>
  <anchor x="737" y="714" name="topright"/>
  <outline>
    <contour>
      <point x="285" y="-10" type="curve" smooth="yes"/>
      <point x="426" y="-10"/>
      <point x="529" y="69"/>
      <point x="568" y="252" type="curve" smooth="yes"/>
      <point x="666" y="714" type="line"/>
      <point x="639" y="714" type="line"/>
      <point x="541" y="257" type="line" smooth="yes"/>
      <point x="506" y="94"/>
      <point x="414" y="15"/>
      <point x="286" y="15" type="curve" smooth="yes"/>
      <point x="180" y="15"/>
      <point x="113" y="73"/>
      <point x="113" y="183" type="curve" smooth="yes"/>
      <point x="113" y="205"/>
      <point x="116" y="230"/>
      <point x="122" y="256" type="curve" smooth="yes"/>
      <point x="219" y="714" type="line"/>
      <point x="191" y="714" type="line"/>
      <point x="94" y="254" type="line" smooth="yes"/>
      <point x="88" y="227"/>
      <point x="85" y="204"/>
      <point x="85" y="180" type="curve" smooth="yes"/>
      <point x="85" y="57"/>
      <point x="164" y="-10"/>
    </contour>
  </outline>
</glyph>
<glyph name="V" format="2">
  <advance width="509"/>
  <unicode hex="0056"/>
  <anchor x="202" y="0" name="bottom"/>
  <anchor x="343" y="714" name="top"/>
  <anchor x="588" y="714" name="topright"/>
  <outline>
    <contour>
      <point x="186" y="0" type="line"/>
      <point x="209" y="0" type="line"/>
      <point x="588" y="714" type="line"/>
      <point x="559" y="714" type="line"/>
      <point x="261" y="144" type="line" smooth="yes"/>
      <point x="237" y="99"/>
      <point x="220" y="67"/>
      <point x="205" y="37" type="curve"/>
      <point x="203" y="37" type="line"/>
      <point x="202" y="69"/>
      <point x="198" y="110"/>
      <point x="194" y="146" type="curve" smooth="yes"/>
      <point x="133" y="714" type="line"/>
      <point x="108" y="714" type="line"/>
    </contour>
  </outline>
</glyph>
<glyph name="W" format="2">
  <advance width="785"/>
  <unicode hex="0057"/>
  <anchor x="340" y="0" name="bottom"/>
  <anchor x="492" y="714" name="top"/>
  <anchor x="865" y="714" name="topright"/>
  <outline>
    <contour>
      <point x="152" y="0" type="line"/>
      <point x="173" y="0" type="line"/>
      <point x="452" y="601" type="line" smooth="yes"/>
      <point x="462" y="622"/>
      <point x="471" y="642"/>
      <point x="483" y="674" type="curve"/>
      <point x="485" y="674" type="line"/>
      <point x="485" y="642"/>
      <point x="485" y="616"/>
      <point x="487" y="580" type="curve" smooth="yes"/>
      <point x="515" y="0" type="line"/>
      <point x="538" y="0" type="line"/>
      <point x="855" y="714" type="line"/>
      <point x="827" y="714" type="line"/>
      <point x="586" y="166" type="line" smooth="yes"/>
      <point x="566" y="120"/>
      <point x="551" y="84"/>
      <point x="537" y="48" type="curve"/>
      <point x="534" y="48" type="line"/>
      <point x="534" y="84"/>
      <point x="534" y="130"/>
      <point x="532" y="167" type="curve" smooth="yes"/>
      <point x="504" y="714" type="line"/>
      <point x="479" y="714" type="line"/>
      <point x="225" y="167" type="line" smooth="yes"/>
      <point x="202" y="117"/>
      <point x="190" y="89"/>
      <point x="174" y="52" type="curve"/>
      <point x="171" y="52" type="line"/>
      <point x="171" y="90"/>
      <point x="171" y="132"/>
      <point x="170" y="171" type="curve" smooth="yes"/>
      <point x="150" y="714" type="line"/>
      <point x="126" y="714" type="line"/>
    </contour>
  </outline>
</glyph>
<glyph name="X" format="2">
  <advance width="465"/>
  <unicode hex="0058"/>
  <anchor x="180" y="0" name="bottom"/>
  <anchor x="331" y="714" name="top"/>
  <anchor x="545" y="714" name="topright"/>
  <outline>
    <contour>
      <point x="-56" y="0" type="line"/>
      <point x="-24" y="0" type="line"/>
      <point x="253" y="350" type="line"/>
      <point x="382" y="0" type="line"/>
      <point x="409" y="0" type="line"/>
      <point x="272" y="369" type="line"/>
      <point x="544" y="714" type="line"/>
      <point x="513" y="714" type="line"/>
      <point x="260" y="390" type="line"/>
      <point x="145" y="714" type="line"/>
      <point x="118" y="714" type="line"/>
      <point x="242" y="372" type="line"/>
    </contour>
  </outline>
</glyph>
<glyph name="Y" format="2">
  <advance width="461"/>
  <unicode hex="0059"/>
  <anchor x="178" y="0" name="bottom"/>
  <anchor x="330" y="714" name="top"/>
  <anchor x="541" y="714" name="topright"/>
  <outline>
    <contour>
      <point x="165" y="0" type="line"/>
      <point x="192" y="0" type="line"/>
      <point x="250" y="275" type="line"/>
      <point x="557" y="714" type="line"/>
      <point x="526" y="714" type="line"/>
      <point x="240" y="301" type="line"/>
      <point x="126" y="714" type="line"/>
      <point x="99" y="714" type="line"/>
      <point x="222" y="271" type="line"/>
    </contour>
  </outline>
</glyph>
<glyph name="Z" format="2">
  <advance width="511"/>
  <unicode hex="005A"/>
  <anchor x="202" y="0" name="bottom"/>
  <anchor x="354" y="714" name="top"/>
  <anchor x="570" y="714" name="topright"/>
  <outline>
    <contour>
      <point x="-8" y="0" type="line"/>
      <point x="409" y="0" type="line"/>
      <point x="414" y="25" type="line"/>
      <point x="34" y="25" type="line"/>
      <point x="546" y="696" type="line"/>
      <point x="550" y="714" type="line"/>
      <point x="159" y="714" type="line"/>
      <point x="154" y="689" type="line"/>
      <point x="508" y="689" type="line"/>
      <point x="-5" y="18" type="line"/>
    </contour>
  </outline>
</glyph>
<glyph name="bracketleft" format="2">
  <advance width="287"/>
  <unicode hex="005B"/>
  <outline>
    <contour>
      <point x="-10" y="-158" type="line"/>
      <point x="173" y="-158" type="line"/>
      <point x="180" y="-131" type="line"/>
      <point x="23" y="-131" type="line"/>
      <point x="197" y="687" type="line"/>
      <point x="352" y="687" type="line"/>
      <point x="358" y="714" type="line"/>
      <point x="176" y="714" type="line"/>
    </contour>
  </outline>
</glyph>
<glyph name="backslash" format="2">
  <advance width="291"/>
  <unicode hex="005C"/>
  <outline>
    <contour>
      <point x="216" y="0" type="line"/>
      <point x="239" y="0" type="line"/>
      <point x="125" y="714" type="line"/>
      <point x="101" y="714" type="line"/>
    </contour>
  </outline>
</glyph>
<glyph name="bracketright" format="2">
  <advance width="287"/>
  <unicode hex="005D"/>
  <outline>
    <contour>
      <point x="-70" y="-158" type="line"/>
      <point x="112" y="-158" type="line"/>
      <point x="298" y="714" type="line"/>
      <point x="115" y="714" type="line"/>
      <point x="108" y="687" type="line"/>
      <point x="265" y="687" type="line"/>
      <point x="92" y="-131" type="line"/>
      <point x="-64" y="-131" type="line"/>
    </contour>
  </outline>
</glyph>
<glyph name="asciicircum" format="2">
  <advance width="523"/>
  <unicode hex="005E"/>
  <outline>
    <contour>
      <point x="50" y="278" type="line"/>
      <point x="81" y="278" type="line"/>
      <point x="356" y="686" type="line"/>
      <point x="457" y="278" type="line"/>
      <point x="482" y="278" type="line"/>
      <point x="372" y="719" type="line"/>
      <point x="349" y="719" type="line"/>
    </contour>
  </outline>
</glyph>
<glyph name="underscore" format="2">
  <advance width="353"/>
  <unicode hex="005F"/>
  <outline>
    <contour>
      <point x="-82" y="-134" type="line"/>
      <point x="271" y="-134" type="line"/>
      <point x="277" y="-109" type="line"/>
      <point x="-76" y="-109" type="line"/>
    </contour>
  </outline>
</glyph>
<glyph name="grave" format="2">
  <advance width="220"/>
  <unicode hex="0060"/>
  <anchor x="197" y="531" name="_top"/>
  <outline>
    <contour>
      <point x="238" y="606" type="curve"/>
      <point x="253" y="606" type="line"/>
      <point x="253" y="618" type="line"/>
      <point x="231" y="649"/>
      <point x="194" y="715"/>
      <point x="175" y="766" type="curve"/>
      <point x="147" y="766" type="line"/>
      <point x="147" y="756" type="line"/>
      <point x="163" y="720"/>
      <point x="209" y="642"/>
    </contour>
  </outline>
</glyph>
<glyph name="a" format="2">
  <advance width="520"/>
  <unicode hex="0061"/>
  <anchor x="197" y="0" name="bottom"/>
  <anchor x="319" y="528" name="top"/>
  <anchor x="530" y="528" name="topright"/>
  <outline>
    <contour>
      <point x="187" y="-10" type="curve" smooth="yes"/>
      <point x="276" y="-10"/>
      <point x="350" y="78"/>
      <point x="383" y="139" type="curve"/>
      <point x="385" y="139" type="line"/>
      <point x="358" y="0" type="line"/>
      <point x="380" y="0" type="line"/>
      <point x="492" y="528" type="line"/>
      <point x="470" y="528" type="line"/>
      <point x="443" y="407" type="line"/>
      <point x="441" y="407" type="line"/>
      <point x="432" y="465"/>
      <point x="397" y="538"/>
      <point x="308" y="538" type="curve" smooth="yes"/>
      <point x="139" y="538"/>
      <point x="50" y="338"/>
      <point x="50" y="175" type="curve" smooth="yes"/>
      <point x="50" y="64"/>
      <point x="97" y="-10"/>
    </contour>
    <contour>
      <point x="190" y="15" type="curve" smooth="yes"/>
      <point x="114" y="15"/>
      <point x="77" y="77"/>
      <point x="77" y="175" type="curve" smooth="yes"/>
      <point x="77" y="333"/>
      <point x="159" y="513"/>
      <point x="307" y="513" type="curve" smooth="yes"/>
      <point x="379" y="513"/>
      <point x="423" y="458"/>
      <point x="423" y="361" type="curve" smooth="yes"/>
      <point x="423" y="334"/>
      <point x="419" y="306"/>
      <point x="411" y="264" type="curve" smooth="yes"/>
      <point x="384" y="123"/>
      <point x="276" y="15"/>
    </contour>
  </outline>
</glyph>
<glyph name="d" format="2">
  <advance width="539"/>
  <unicode hex="0064"/>
  <anchor x="197" y="0" name="bottom"/>
  <anchor x="251" y="264" name="center"/>
  <anchor x="378" y="760" name="top"/>
  <anchor x="608" y="760" name="topright"/>
  <outline>
    <contour>
      <point x="190" y="-10" type="curve" smooth="yes"/>
      <point x="287" y="-10"/>
      <point x="361" y="72"/>
      <point x="402" y="141" type="curve"/>
      <point x="404" y="141" type="line"/>
      <point x="376" y="0" type="line"/>
      <point x="398" y="0" type="line"/>
      <point x="559" y="760" type="line"/>
      <point x="534" y="760" type="line"/>
      <point x="488" y="543" type="line" smooth="yes"/>
      <point x="479" y="501"/>
      <point x="468" y="452"/>
      <point x="461" y="407" type="curve"/>
      <point x="459" y="407" type="line"/>
      <point x="451" y="468"/>
      <point x="408" y="538"/>
      <point x="313" y="538" type="curve" smooth="yes"/>
      <point x="136" y="538"/>
      <point x="50" y="337"/>
      <point x="50" y="174" type="curve" smooth="yes"/>
      <point x="50" y="64"/>
      <point x="94" y="-10"/>
    </contour>
    <contour>
      <point x="193" y="15" type="curve" smooth="yes"/>
      <point x="115" y="15"/>
      <point x="77" y="74"/>
      <point x="77" y="174" type="curve" smooth="yes"/>
      <point x="77" y="332"/>
      <point x="156" y="513"/>
      <point x="312" y="513" type="curve" smooth="yes"/>
      <point x="389" y="513"/>
      <point x="442" y="463"/>
      <point x="442" y="361" type="curve" smooth="yes"/>
      <point x="442" y="175"/>
      <point x="314" y="15"/>
    </contour>
  </outline>
</glyph>
<glyph name="e" format="2">
  <advance width="467"/>
  <unicode hex="0065"/>
  <anchor x="228" y="0" name="bottom"/>
  <anchor x="319" y="528" name="top"/>
  <anchor x="487" y="528" name="topright"/>
  <outline>
    <contour>
      <point x="234" y="-10" type="curve" smooth="yes"/>
      <point x="286" y="-10"/>
      <point x="339" y="6"/>
      <point x="368" y="22" type="curve"/>
      <point x="368" y="48" type="line"/>
      <point x="337" y="34"/>
      <point x="293" y="15"/>
      <point x="239" y="15" type="curve" smooth="yes"/>
      <point x="146" y="15"/>
      <point x="88" y="77"/>
      <point x="88" y="191" type="curve" smooth="yes"/>
      <point x="88" y="215"/>
      <point x="90" y="240"/>
      <point x="92" y="256" type="curve"/>
      <point x="124" y="256" type="line" smooth="yes"/>
      <point x="298" y="256"/>
      <point x="440" y="294"/>
      <point x="440" y="425" type="curve" smooth="yes"/>
      <point x="440" y="492"/>
      <point x="392" y="538"/>
      <point x="322" y="538" type="curve" smooth="yes"/>
      <point x="176" y="538"/>
      <point x="61" y="385"/>
      <point x="61" y="191" type="curve" smooth="yes"/>
      <point x="61" y="47"/>
      <point x="145" y="-10"/>
    </contour>
    <contour>
      <point x="141" y="281" type="curve" smooth="yes"/>
      <point x="97" y="281" type="line"/>
      <point x="127" y="428"/>
      <point x="227" y="513"/>
      <point x="318" y="513" type="curve" smooth="yes"/>
      <point x="381" y="513"/>
      <point x="413" y="475"/>
      <point x="413" y="424" type="curve" smooth="yes"/>
      <point x="413" y="325"/>
      <point x="300" y="281"/>
    </contour>
  </outline>
</glyph>
<glyph name="h" format="2">
  <advance width="526"/>
  <unicode hex="0068"/>
  <anchor x="210" y="0" name="bottom"/>
  <anchor x="267" y="264" name="center"/>
  <anchor x="204" y="760" name="top"/>
  <anchor x="546" y="760" name="topright"/>
  <outline>
    <contour>
      <point x="30" y="0" type="line"/>
      <point x="56" y="0" type="line"/>
      <point x="114" y="274" type="line" smooth="yes"/>
      <point x="140" y="398"/>
      <point x="237" y="513"/>
      <point x="342" y="513" type="curve" smooth="yes"/>
      <point x="408" y="513"/>
      <point x="447" y="480"/>
      <point x="447" y="406" type="curve" smooth="yes"/>
      <point x="447" y="388"/>
      <point x="445" y="368"/>
      <point x="440" y="345" type="curve" smooth="yes"/>
      <point x="367" y="0" type="line"/>
      <point x="393" y="0" type="line"/>
      <point x="465" y="342" type="line" smooth="yes"/>
      <point x="470" y="366"/>
      <point x="473" y="390"/>
      <point x="473" y="410" type="curve" smooth="yes"/>
      <point x="473" y="494"/>
      <point x="428" y="538"/>
      <point x="346" y="538" type="curve" smooth="yes"/>
      <point x="245" y="538"/>
      <point x="171" y="453"/>
      <point x="137" y="389" type="curve"/>
      <point x="135" y="389" type="line"/>
      <point x="148" y="441"/>
      <point x="162" y="501"/>
      <point x="174" y="557" type="curve" smooth="yes"/>
      <point x="217" y="760" type="line"/>
      <point x="191" y="760" type="line"/>
    </contour>
  </outline>
</glyph>
<glyph name="i" format="2">
  <advance width="197"/>
  <unicode hex="0069"/>
  <anchor x="46" y="0" name="bottom"/>
  <anchor x="199" y="721" name="top"/>
  <anchor x="258" y="721" name="topright"/>
  <outline>
    <contour>
      <point x="30" y="0" type="line"/>
      <point x="56" y="0" type="line"/>
      <point x="168" y="528" type="line"/>
      <point x="142" y="528" type="line"/>
    </contour>
    <contour>
      <point x="187" y="659" type="curve" smooth="yes"/>
      <point x="205" y="659"/>
      <point x="215" y="681"/>
      <point x="215" y="699" type="curve" smooth="yes"/>
      <point x="215" y="710"/>
      <point x="210" y="721"/>
      <point x="194" y="721" type="curve" smooth="yes"/>
      <point x="175" y="721"/>
      <point x="165" y="699"/>
      <point x="165" y="681" type="curve" smooth="yes"/>
      <point x="165" y="667"/>
      <point x="174" y="659"/>
    </contour>
  </outline>
</glyph>
<glyph name="k" format="2">
  <advance width="418"/>
  <unicode hex="006B"/>
  <anchor x="177" y="0" name="bottom"/>
  <anchor x="204" y="760" name="top"/>
  <anchor x="477" y="830" name="topright"/>
  <outline>
    <contour>
      <point x="30" y="0" type="line"/>
      <point x="56" y="0" type="line"/>
      <point x="92" y="172" type="line"/>
      <point x="205" y="281" type="line"/>
      <point x="337" y="0" type="line"/>
      <point x="366" y="0" type="line"/>
      <point x="225" y="298" type="line"/>
      <point x="460" y="528" type="line"/>
      <point x="427" y="528" type="line"/>
      <point x="97" y="204" type="line"/>
      <point x="96" y="204" type="line"/>
      <point x="112" y="267"/>
      <point x="124" y="318"/>
      <point x="138" y="384" type="curve" smooth="yes"/>
      <point x="218" y="760" type="line"/>
      <point x="191" y="760" type="line"/>
    </contour>
  </outline>
</glyph>
<glyph name="l" format="2">
  <advance width="197"/>
  <unicode hex="006C"/>
  <anchor x="43" y="0" name="bottom"/>
  <anchor x="99" y="264" name="center"/>
  <anchor x="204" y="760" name="top"/>
  <anchor x="282" y="760" name="topright"/>
  <outline>
    <contour>
      <point x="30" y="0" type="line"/>
      <point x="56" y="0" type="line"/>
      <point x="217" y="760" type="line"/>
      <point x="191" y="760" type="line"/>
    </contour>
  </outline>
</glyph>
<glyph name="o" format="2">
  <advance width="536"/>
  <unicode hex="006F"/>
  <anchor x="212" y="0" name="bottom"/>
  <anchor x="268" y="264" name="center"/>
  <anchor x="324" y="528" name="top"/>
  <anchor x="572" y="528" name="topright"/>
  <outline>
    <contour>
      <point x="225" y="-10" type="curve" smooth="yes"/>
      <point x="389" y="-10"/>
      <point x="488" y="151"/>
      <point x="488" y="341" type="curve" smooth="yes"/>
      <point x="488" y="454"/>
      <point x="430" y="538"/>
      <point x="320" y="538" type="curve" smooth="yes"/>
      <point x="170" y="538"/>
      <point x="54" y="400"/>
      <point x="54" y="189" type="curve" smooth="yes"/>
      <point x="54" y="72"/>
      <point x="110" y="-10"/>
    </contour>
    <contour>
      <point x="228" y="15" type="curve" smooth="yes"/>
      <point x="130" y="15"/>
      <point x="81" y="83"/>
      <point x="81" y="189" type="curve" smooth="yes"/>
      <point x="81" y="386"/>
      <point x="184" y="513"/>
      <point x="318" y="513" type="curve" smooth="yes"/>
      <point x="414" y="513"/>
      <point x="461" y="441"/>
      <point x="461" y="342" type="curve" smooth="yes"/>
      <point x="461" y="162"/>
      <point x="373" y="15"/>
    </contour>
  </outline>
</glyph>
<glyph name="p" format="2">
  <advance width="539"/>
  <unicode hex="0070"/>
  <anchor x="-7" y="-232" name="bottom"/>
  <anchor x="326" y="528" name="top"/>
  <anchor x="575" y="528" name="topright"/>
  <outline>
    <contour>
      <point x="-19" y="-232" type="line"/>
      <point x="7" y="-232" type="line"/>
      <point x="53" y="-15" type="line" smooth="yes"/>
      <point x="62" y="27"/>
      <point x="72" y="76"/>
      <point x="79" y="121" type="curve"/>
      <point x="81" y="121" type="line"/>
      <point x="90" y="56"/>
      <point x="132" y="-10"/>
      <point x="227" y="-10" type="curve" smooth="yes"/>
      <point x="405" y="-10"/>
      <point x="491" y="191"/>
      <point x="491" y="353" type="curve" smooth="yes"/>
      <point x="491" y="464"/>
      <point x="435" y="538"/>
      <point x="345" y="538" type="curve" smooth="yes"/>
      <point x="247" y="538"/>
      <point x="175" y="459"/>
      <point x="138" y="389" type="curve"/>
      <point x="136" y="389" type="line"/>
      <point x="164" y="528" type="line"/>
      <point x="142" y="528" type="line"/>
    </contour>
    <contour>
      <point x="228" y="15" type="curve" smooth="yes"/>
      <point x="152" y="15"/>
      <point x="99" y="65"/>
      <point x="99" y="167" type="curve" smooth="yes"/>
      <point x="99" y="340"/>
      <point x="209" y="513"/>
      <point x="340" y="513" type="curve" smooth="yes"/>
      <point x="419" y="513"/>
      <point x="464" y="451"/>
      <point x="464" y="353" type="curve" smooth="yes"/>
      <point x="464" y="196"/>
      <point x="386" y="15"/>
    </contour>
  </outline>
</glyph>
<glyph name="q" format="2">
  <advance width="539"/>
  <unicode hex="0071"/>
  <anchor x="336" y="-232" name="bottom"/>
  <anchor x="326" y="528" name="top"/>
  <anchor x="555" y="528" name="topright"/>
  <outline>
    <contour>
      <point x="369" y="-15" type="curve" smooth="yes"/>
      <point x="323" y="-232" type="line"/>
      <point x="349" y="-232" type="line"/>
      <point x="510" y="528" type="line"/>
      <point x="488" y="528" type="line"/>
      <point x="461" y="407" type="line"/>
      <point x="459" y="407" type="line"/>
      <point x="450" y="469"/>
      <point x="408" y="538"/>
      <point x="314" y="538" type="curve" smooth="yes"/>
      <point x="136" y="538"/>
      <point x="50" y="337"/>
      <point x="50" y="174" type="curve" smooth="yes"/>
      <point x="50" y="64"/>
      <point x="95" y="-10"/>
      <point x="191" y="-10" type="curve" smooth="yes"/>
      <point x="286" y="-10"/>
      <point x="368" y="77"/>
      <point x="404" y="145" type="curve"/>
      <point x="406" y="145" type="line"/>
      <point x="393" y="94"/>
      <point x="378" y="26"/>
    </contour>
    <contour>
      <point x="195" y="15" type="curve" smooth="yes"/>
      <point x="112" y="15"/>
      <point x="77" y="77"/>
      <point x="77" y="174" type="curve" smooth="yes"/>
      <point x="77" y="332"/>
      <point x="156" y="513"/>
      <point x="313" y="513" type="curve" smooth="yes"/>
      <point x="390" y="513"/>
      <point x="442" y="463"/>
      <point x="442" y="361" type="curve" smooth="yes"/>
      <point x="442" y="185"/>
      <point x="320" y="15"/>
    </contour>
  </outline>
</glyph>
<glyph name="r" format="2">
  <advance width="352"/>
  <unicode hex="0072"/>
  <anchor x="45" y="0" name="bottom"/>
  <anchor x="252" y="528" name="top"/>
  <anchor x="378" y="528" name="topright"/>
  <outline>
    <contour>
      <point x="30" y="0" type="line"/>
      <point x="56" y="0" type="line"/>
      <point x="112" y="266" type="line" smooth="yes"/>
      <point x="140" y="401"/>
      <point x="236" y="511"/>
      <point x="325" y="511" type="curve" smooth="yes"/>
      <point x="346" y="511"/>
      <point x="363" y="508"/>
      <point x="375" y="504" type="curve"/>
      <point x="381" y="528" type="line"/>
      <point x="366" y="533"/>
      <point x="346" y="536"/>
      <point x="325" y="536" type="curve" smooth="yes"/>
      <point x="237" y="536"/>
      <point x="169" y="447"/>
      <point x="138" y="389" type="curve"/>
      <point x="136" y="389" type="line"/>
      <point x="164" y="528" type="line"/>
      <point x="142" y="528" type="line"/>
    </contour>
  </outline>
</glyph>
<glyph name="s" format="2">
  <advance width="402"/>
  <unicode hex="0073"/>
  <anchor x="145" y="0" name="bottom"/>
  <anchor x="257" y="528" name="top"/>
  <anchor x="398" y="528" name="topright"/>
  <outline>
    <contour>
      <point x="156" y="-10" type="curve" smooth="yes"/>
      <point x="278" y="-10"/>
      <point x="330" y="57"/>
      <point x="330" y="138" type="curve" smooth="yes"/>
      <point x="330" y="220"/>
      <point x="270" y="251"/>
      <point x="211" y="285" type="curve" smooth="yes"/>
      <point x="157" y="316"/>
      <point x="107" y="341"/>
      <point x="107" y="400" type="curve" smooth="yes"/>
      <point x="107" y="480"/>
      <point x="167" y="513"/>
      <point x="246" y="513" type="curve" smooth="yes"/>
      <point x="296" y="513"/>
      <point x="344" y="500"/>
      <point x="376" y="483" type="curve"/>
      <point x="385" y="508" type="line"/>
      <point x="352" y="524"/>
      <point x="306" y="538"/>
      <point x="247" y="538" type="curve" smooth="yes"/>
      <point x="156" y="538"/>
      <point x="80" y="496"/>
      <point x="80" y="398" type="curve" smooth="yes"/>
      <point x="80" y="325"/>
      <point x="134" y="297"/>
      <point x="196" y="261" type="curve" smooth="yes"/>
      <point x="250" y="230"/>
      <point x="303" y="204"/>
      <point x="303" y="137" type="curve" smooth="yes"/>
      <point x="303" y="67"/>
      <point x="261" y="15"/>
      <point x="157" y="15" type="curve" smooth="yes"/>
      <point x="101" y="15"/>
      <point x="50" y="34"/>
      <point x="12" y="57" type="curve"/>
      <point x="12" y="27" type="line"/>
      <point x="41" y="11"/>
      <point x="90" y="-10"/>
    </contour>
  </outline>
</glyph>
<glyph name="u" format="2">
  <advance width="526"/>
  <unicode hex="0075"/>
  <anchor x="187" y="0" name="bottom"/>
  <anchor x="329" y="528" name="top"/>
  <anchor x="542" y="528" name="topright"/>
  <outline>
    <contour>
      <point x="181" y="-10" type="curve" smooth="yes"/>
      <point x="282" y="-10"/>
      <point x="357" y="76"/>
      <point x="389" y="139" type="curve"/>
      <point x="391" y="139" type="line"/>
      <point x="363" y="0" type="line"/>
      <point x="385" y="0" type="line"/>
      <point x="497" y="528" type="line"/>
      <point x="471" y="528" type="line"/>
      <point x="413" y="254" type="line" smooth="yes"/>
      <point x="387" y="130"/>
      <point x="290" y="15"/>
      <point x="185" y="15" type="curve" smooth="yes"/>
      <point x="119" y="15"/>
      <point x="80" y="48"/>
      <point x="80" y="122" type="curve" smooth="yes"/>
      <point x="80" y="140"/>
      <point x="82" y="160"/>
      <point x="87" y="183" type="curve" smooth="yes"/>
      <point x="160" y="528" type="line"/>
      <point x="134" y="528" type="line"/>
      <point x="62" y="186" type="line" smooth="yes"/>
      <point x="57" y="162"/>
      <point x="54" y="138"/>
      <point x="54" y="118" type="curve" smooth="yes"/>
      <point x="54" y="34"/>
      <point x="99" y="-10"/>
    </contour>
  </outline>
</glyph>
<glyph name="v" format="2">
  <advance width="391"/>
  <unicode hex="0076"/>
  <anchor x="140" y="0" name="bottom"/>
  <anchor x="252" y="528" name="top"/>
  <anchor x="427" y="528" name="topright"/>
  <outline>
    <contour>
      <point x="125" y="0" type="line"/>
      <point x="147" y="0" type="line"/>
      <point x="443" y="528" type="line"/>
      <point x="414" y="528" type="line"/>
      <point x="198" y="138" type="line" smooth="yes"/>
      <point x="175" y="96"/>
      <point x="160" y="68"/>
      <point x="143" y="36" type="curve"/>
      <point x="142" y="36" type="line"/>
      <point x="139" y="69"/>
      <point x="137" y="95"/>
      <point x="131" y="138" type="curve" smooth="yes"/>
      <point x="79" y="528" type="line"/>
      <point x="53" y="528" type="line"/>
    </contour>
  </outline>
</glyph>
<glyph name="w" format="2">
  <advance width="620"/>
  <unicode hex="0077"/>
  <anchor x="244" y="0" name="bottom"/>
  <anchor x="356" y="528" name="top"/>
  <anchor x="646" y="528" name="topright"/>
  <outline>
    <contour>
      <point x="82" y="0" type="line"/>
      <point x="106" y="0" type="line"/>
      <point x="301" y="389" type="line" smooth="yes"/>
      <point x="316" y="419"/>
      <point x="329" y="447"/>
      <point x="346" y="483" type="curve"/>
      <point x="347" y="483" type="line"/>
      <point x="348" y="447"/>
      <point x="350" y="423"/>
      <point x="353" y="389" type="curve" smooth="yes"/>
      <point x="387" y="0" type="line"/>
      <point x="410" y="0" type="line"/>
      <point x="654" y="528" type="line"/>
      <point x="628" y="528" type="line"/>
      <point x="457" y="156" type="line" smooth="yes"/>
      <point x="431" y="100"/>
      <point x="418" y="73"/>
      <point x="407" y="42" type="curve"/>
      <point x="405" y="42" type="line"/>
      <point x="405" y="74"/>
      <point x="402" y="106"/>
      <point x="398" y="156" type="curve" smooth="yes"/>
      <point x="366" y="528" type="line"/>
      <point x="345" y="528" type="line"/>
      <point x="159" y="156" type="line" smooth="yes"/>
      <point x="128" y="95"/>
      <point x="118" y="73"/>
      <point x="104" y="42" type="curve"/>
      <point x="102" y="42" type="line"/>
      <point x="102" y="74"/>
      <point x="102" y="105"/>
      <point x="100" y="156" type="curve" smooth="yes"/>
      <point x="83" y="528" type="line"/>
      <point x="57" y="528" type="line"/>
    </contour>
  </outline>
</glyph>
<glyph name="x" format="2">
  <advance width="434"/>
  <unicode hex="0078"/>
  <anchor x="161" y="0" name="bottom"/>
  <anchor x="273" y="528" name="top"/>
  <anchor x="460" y="528" name="topright"/>
  <outline>
    <contour>
      <point x="-31" y="0" type="line"/>
      <point x="1" y="0" type="line"/>
      <point x="212" y="253" type="line"/>
      <point x="323" y="0" type="line"/>
      <point x="352" y="0" type="line"/>
      <point x="231" y="271" type="line"/>
      <point x="453" y="528" type="line"/>
      <point x="421" y="528" type="line"/>
      <point x="218" y="291" type="line"/>
      <point x="117" y="528" type="line"/>
      <point x="88" y="528" type="line"/>
      <point x="199" y="273" type="line"/>
    </contour>
  </outline>
</glyph>
<glyph name="y" format="2">
  <advance width="391"/>
  <unicode hex="0079"/>
  <anchor x="-56" y="-243" name="bottom"/>
  <anchor x="252" y="528" name="top"/>
  <anchor x="427" y="528" name="topright"/>
  <outline>
    <contour>
      <point x="-56" y="-243" type="curve" smooth="yes"/>
      <point x="5" y="-243"/>
      <point x="48" y="-196"/>
      <point x="92" y="-115" type="curve" smooth="yes"/>
      <point x="443" y="528" type="line"/>
      <point x="414" y="528" type="line"/>
      <point x="219" y="168" type="line" smooth="yes"/>
      <point x="188" y="110"/>
      <point x="165" y="66"/>
      <point x="151" y="37" type="curve"/>
      <point x="149" y="37" type="line"/>
      <point x="146" y="67"/>
      <point x="140" y="110"/>
      <point x="131" y="172" type="curve" smooth="yes"/>
      <point x="79" y="528" type="line"/>
      <point x="53" y="528" type="line"/>
      <point x="131" y="7" type="line"/>
      <point x="70" y="-103" type="line" smooth="yes"/>
      <point x="26" y="-182"/>
      <point x="-8" y="-218"/>
      <point x="-54" y="-218" type="curve" smooth="yes"/>
      <point x="-79" y="-218"/>
      <point x="-95" y="-214"/>
      <point x="-110" y="-207" type="curve"/>
      <point x="-110" y="-233" type="line"/>
      <point x="-96" y="-240"/>
      <point x="-80" y="-243"/>
    </contour>
  </outline>
</glyph>
<glyph name="z" format="2">
  <advance width="415"/>
  <unicode hex="007A"/>
  <anchor x="152" y="0" name="bottom"/>
  <anchor x="264" y="528" name="top"/>
  <anchor x="431" y="528" name="topright"/>
  <outline>
    <contour>
      <point x="-13" y="0" type="line"/>
      <point x="320" y="0" type="line"/>
      <point x="325" y="25" type="line"/>
      <point x="29" y="25" type="line"/>
      <point x="417" y="513" type="line"/>
      <point x="420" y="528" type="line"/>
      <point x="114" y="528" type="line"/>
      <point x="108" y="503" type="line"/>
      <point x="376" y="503" type="line"/>
      <point x="-10" y="17" type="line"/>
    </contour>
  </outline>
</glyph>
<glyph name="braceleft" format="2">
  <advance width="311"/>
  <unicode hex="007B"/>
  <outline>
    <contour>
      <point x="188" y="-158" type="curve" smooth="yes"/>
      <point x="195" y="-158" type="line"/>
      <point x="196" y="-133" type="line"/>
      <point x="125" y="-133"/>
      <point x="92" y="-117"/>
      <point x="92" y="-56" type="curve" smooth="yes"/>
      <point x="92" y="-43"/>
      <point x="94" y="-28"/>
      <point x="98" y="-10" type="curve"/>
      <point x="134" y="154" type="line" smooth="yes"/>
      <point x="138" y="173"/>
      <point x="140" y="188"/>
      <point x="140" y="202" type="curve" smooth="yes"/>
      <point x="140" y="238"/>
      <point x="124" y="267"/>
      <point x="91" y="276" type="curve"/>
      <point x="91" y="278" type="line"/>
      <point x="147" y="293"/>
      <point x="173" y="336"/>
      <point x="187" y="403" type="curve" smooth="yes"/>
      <point x="223" y="573" type="line" smooth="yes"/>
      <point x="240" y="654"/>
      <point x="286" y="688"/>
      <point x="366" y="689" type="curve"/>
      <point x="371" y="714" type="line"/>
      <point x="365" y="714" type="line" smooth="yes"/>
      <point x="273" y="714"/>
      <point x="217" y="672"/>
      <point x="197" y="579" type="curve" smooth="yes"/>
      <point x="160" y="407" type="line" smooth="yes"/>
      <point x="142" y="323"/>
      <point x="110" y="291"/>
      <point x="33" y="291" type="curve"/>
      <point x="28" y="266" type="line"/>
      <point x="87" y="266"/>
      <point x="113" y="247"/>
      <point x="113" y="202" type="curve" smooth="yes"/>
      <point x="113" y="189"/>
      <point x="111" y="173"/>
      <point x="107" y="155" type="curve" smooth="yes"/>
      <point x="71" y="-8" type="line" smooth="yes"/>
      <point x="67" y="-27"/>
      <point x="65" y="-43"/>
      <point x="65" y="-58" type="curve" smooth="yes"/>
      <point x="65" y="-125"/>
      <point x="106" y="-158"/>
    </contour>
  </outline>
</glyph>
<glyph name="braceright" format="2">
  <advance width="311"/>
  <unicode hex="007D"/>
  <outline>
    <contour>
      <point x="-45" y="-133" type="curve"/>
      <point x="-45" y="-158" type="line"/>
      <point x="-44" y="-158" type="line" smooth="yes"/>
      <point x="47" y="-158"/>
      <point x="103" y="-116"/>
      <point x="123" y="-23" type="curve" smooth="yes"/>
      <point x="160" y="149" type="line" smooth="yes"/>
      <point x="178" y="234"/>
      <point x="210" y="266"/>
      <point x="288" y="266" type="curve"/>
      <point x="293" y="291" type="line"/>
      <point x="234" y="291"/>
      <point x="208" y="310"/>
      <point x="208" y="354" type="curve" smooth="yes"/>
      <point x="208" y="366"/>
      <point x="209" y="381"/>
      <point x="213" y="398" type="curve" smooth="yes"/>
      <point x="249" y="564" type="line" smooth="yes"/>
      <point x="253" y="583"/>
      <point x="255" y="599"/>
      <point x="255" y="612" type="curve" smooth="yes"/>
      <point x="255" y="682"/>
      <point x="215" y="714"/>
      <point x="133" y="714" type="curve" smooth="yes"/>
      <point x="130" y="714" type="line"/>
      <point x="125" y="689" type="line"/>
      <point x="196" y="689"/>
      <point x="228" y="673"/>
      <point x="228" y="612" type="curve" smooth="yes"/>
      <point x="228" y="599"/>
      <point x="226" y="584"/>
      <point x="222" y="566" type="curve"/>
      <point x="187" y="402" type="line" smooth="yes"/>
      <point x="183" y="383"/>
      <point x="181" y="368"/>
      <point x="181" y="354" type="curve" smooth="yes"/>
      <point x="181" y="318"/>
      <point x="198" y="292"/>
      <point x="230" y="281" type="curve"/>
      <point x="230" y="279" type="line"/>
      <point x="173" y="268"/>
      <point x="148" y="220"/>
      <point x="134" y="153" type="curve" smooth="yes"/>
      <point x="98" y="-17" type="line" smooth="yes"/>
      <point x="81" y="-98"/>
      <point x="35" y="-132"/>
    </contour>
  </outline>
</glyph>
<glyph name="asciitilde" format="2">
  <advance width="535"/>
  <unicode hex="007E"/>
  <outline>
    <contour>
      <point x="285" y="342" type="curve" smooth="yes"/>
      <point x="323" y="322"/>
      <point x="351" y="309"/>
      <point x="396" y="309" type="curve" smooth="yes"/>
      <point x="441" y="309"/>
      <point x="479" y="331"/>
      <point x="503" y="358" type="curve"/>
      <point x="503" y="387" type="line"/>
      <point x="466" y="345"/>
      <point x="430" y="333"/>
      <point x="396" y="333" type="curve" smooth="yes"/>
      <point x="358" y="333"/>
      <point x="332" y="346"/>
      <point x="298" y="364" type="curve" smooth="yes"/>
      <point x="261" y="383"/>
      <point x="234" y="397"/>
      <point x="182" y="397" type="curve" smooth="yes"/>
      <point x="141" y="397"/>
      <point x="100" y="378"/>
      <point x="72" y="349" type="curve"/>
      <point x="72" y="318" type="line"/>
      <point x="107" y="358"/>
      <point x="145" y="373"/>
      <point x="182" y="373" type="curve" smooth="yes"/>
      <point x="225" y="373"/>
      <point x="250" y="360"/>
    </contour>
  </outline>
</glyph>
<glyph name="exclamdown" format="2">
  <advance width="201"/>
  <unicode hex="00A1"/>
  <outline>
    <contour>
      <point x="-7" y="-182" type="line"/>
      <point x="21" y="-182" type="line"/>
      <point x="135" y="354" type="line"/>
      <point x="110" y="354" type="line"/>
    </contour>
    <contour>
      <point x="150" y="474" type="curve" smooth="yes"/>
      <point x="170" y="474"/>
      <point x="180" y="496"/>
      <point x="180" y="514" type="curve" smooth="yes"/>
      <point x="180" y="528"/>
      <point x="171" y="536"/>
      <point x="157" y="536" type="curve" smooth="yes"/>
      <point x="138" y="536"/>
      <point x="128" y="514"/>
      <point x="128" y="496" type="curve" smooth="yes"/>
      <point x="128" y="485"/>
      <point x="134" y="474"/>
    </contour>
  </outline>
</glyph>
<glyph name="cent" format="2">
  <advance width="523"/>
  <unicode hex="00A2"/>
  <outline>
    <contour>
      <point x="248" y="93" type="curve"/>
      <point x="226" y="-10" type="line"/>
      <point x="251" y="-10" type="line"/>
      <point x="272" y="91" type="line"/>
      <point x="315" y="91"/>
      <point x="355" y="93"/>
      <point x="404" y="120" type="curve"/>
      <point x="404" y="144" type="line"/>
      <point x="363" y="123"/>
      <point x="323" y="115"/>
      <point x="280" y="115" type="curve" smooth="yes"/>
      <point x="186" y="115"/>
      <point x="132" y="189"/>
      <point x="132" y="288" type="curve" smooth="yes"/>
      <point x="132" y="468"/>
      <point x="230" y="613"/>
      <point x="371" y="613" type="curve" smooth="yes"/>
      <point x="405" y="613"/>
      <point x="450" y="606"/>
      <point x="481" y="589" type="curve"/>
      <point x="489" y="614" type="line"/>
      <point x="459" y="629"/>
      <point x="420" y="637"/>
      <point x="382" y="638" type="curve"/>
      <point x="400" y="724" type="line"/>
      <point x="375" y="724" type="line"/>
      <point x="357" y="638" type="line"/>
      <point x="201" y="629"/>
      <point x="105" y="468"/>
      <point x="105" y="286" type="curve" smooth="yes"/>
      <point x="105" y="187"/>
      <point x="156" y="107"/>
    </contour>
  </outline>
</glyph>
<glyph name="sterling" format="2">
  <advance width="523"/>
  <unicode hex="00A3"/>
  <outline>
    <contour>
      <point x="-2" y="23" type="curve"/>
      <point x="-6" y="0" type="line"/>
      <point x="424" y="0" type="line"/>
      <point x="429" y="25" type="line"/>
      <point x="67" y="25" type="line"/>
      <point x="115" y="48"/>
      <point x="147" y="90"/>
      <point x="167" y="183" type="curve" smooth="yes"/>
      <point x="199" y="335" type="line"/>
      <point x="379" y="335" type="line"/>
      <point x="384" y="360" type="line"/>
      <point x="205" y="360" type="line"/>
      <point x="237" y="512" type="line" smooth="yes"/>
      <point x="264" y="639"/>
      <point x="316" y="698"/>
      <point x="410" y="698" type="curve" smooth="yes"/>
      <point x="457" y="698"/>
      <point x="495" y="681"/>
      <point x="525" y="667" type="curve"/>
      <point x="537" y="691" type="line"/>
      <point x="507" y="707"/>
      <point x="463" y="723"/>
      <point x="410" y="723" type="curve" smooth="yes"/>
      <point x="302" y="723"/>
      <point x="241" y="656"/>
      <point x="212" y="518" type="curve" smooth="yes"/>
      <point x="179" y="360" type="line"/>
      <point x="82" y="360" type="line"/>
      <point x="77" y="335" type="line"/>
      <point x="173" y="335" type="line"/>
      <point x="142" y="187" type="line" smooth="yes"/>
      <point x="121" y="89"/>
      <point x="74" y="38"/>
    </contour>
  </outline>
</glyph>
<glyph name="currency" format="2">
  <advance width="541"/>
  <unicode hex="00A4"/>
  <outline>
    <contour>
      <point x="417" y="204" type="curve"/>
      <point x="489" y="126" type="line"/>
      <point x="505" y="142" type="line"/>
      <point x="432" y="220" type="line"/>
      <point x="465" y="259"/>
      <point x="481" y="307"/>
      <point x="481" y="356" type="curve" smooth="yes"/>
      <point x="481" y="403"/>
      <point x="466" y="451"/>
      <point x="435" y="488" type="curve"/>
      <point x="508" y="565" type="line"/>
      <point x="493" y="581" type="line"/>
      <point x="420" y="504" type="line"/>
      <point x="384" y="538"/>
      <point x="338" y="555"/>
      <point x="293" y="555" type="curve" smooth="yes"/>
      <point x="247" y="555"/>
      <point x="202" y="538"/>
      <point x="166" y="504" type="curve"/>
      <point x="93" y="582" type="line"/>
      <point x="77" y="566" type="line"/>
      <point x="149" y="488" type="line"/>
      <point x="118" y="449"/>
      <point x="101" y="401"/>
      <point x="101" y="352" type="curve" smooth="yes"/>
      <point x="101" y="305"/>
      <point x="116" y="257"/>
      <point x="147" y="220" type="curve"/>
      <point x="73" y="142" type="line"/>
      <point x="88" y="126" type="line"/>
      <point x="162" y="204" type="line"/>
      <point x="198" y="170"/>
      <point x="243" y="153"/>
      <point x="288" y="153" type="curve" smooth="yes"/>
      <point x="334" y="153"/>
      <point x="380" y="170"/>
    </contour>
    <contour>
      <point x="288" y="175" type="curve" smooth="yes"/>
      <point x="196" y="175"/>
      <point x="123" y="254"/>
      <point x="123" y="352" type="curve" smooth="yes"/>
      <point x="123" y="451"/>
      <point x="199" y="533"/>
      <point x="293" y="533" type="curve" smooth="yes"/>
      <point x="385" y="533"/>
      <point x="459" y="454"/>
      <point x="459" y="357" type="curve" smooth="yes"/>
      <point x="459" y="257"/>
      <point x="382" y="175"/>
    </contour>
  </outline>
</glyph>
<glyph name="yen" format="2">
  <advance width="522"/>
  <unicode hex="00A5"/>
  <outline>
    <contour>
      <point x="191" y="0" type="line"/>
      <point x="218" y="0" type="line"/>
      <point x="252" y="162" type="line"/>
      <point x="408" y="162" type="line"/>
      <point x="413" y="187" type="line"/>
      <point x="257" y="187" type="line"/>
      <point x="280" y="298" type="line"/>
      <point x="437" y="298" type="line"/>
      <point x="442" y="323" type="line"/>
      <point x="294" y="323" type="line"/>
      <point x="588" y="714" type="line"/>
      <point x="557" y="714" type="line"/>
      <point x="272" y="334" type="line"/>
      <point x="148" y="714" type="line"/>
      <point x="121" y="714" type="line"/>
      <point x="250" y="323" type="line"/>
      <point x="102" y="323" type="line"/>
      <point x="97" y="298" type="line"/>
      <point x="254" y="298" type="line"/>
      <point x="231" y="187" type="line"/>
      <point x="73" y="187" type="line"/>
      <point x="68" y="162" type="line"/>
      <point x="225" y="162" type="line"/>
    </contour>
  </outline>
</glyph>
<glyph name="brokenbar" format="2">
  <advance width="508"/>
  <unicode hex="00A6"/>
  <outline>
    <contour>
      <point x="271" y="395" type="line"/>
      <point x="295" y="395" type="line"/>
      <point x="295" y="760" type="line"/>
      <point x="271" y="760" type="line"/>
    </contour>
    <contour>
      <point x="271" y="-240" type="line"/>
      <point x="295" y="-240" type="line"/>
      <point x="295" y="126" type="line"/>
      <point x="271" y="126" type="line"/>
    </contour>
  </outline>
</glyph>
<glyph name="section" format="2">
  <advance width="473"/>
  <unicode hex="00A7"/>
  <outline>
    <contour>
      <point x="167" y="-1" type="curve" smooth="yes"/>
      <point x="282" y="-1"/>
      <point x="357" y="45"/>
      <point x="357" y="141" type="curve" smooth="yes"/>
      <point x="357" y="184"/>
      <point x="335" y="210"/>
      <point x="303" y="231" type="curve"/>
      <point x="356" y="261"/>
      <point x="416" y="315"/>
      <point x="416" y="392" type="curve" smooth="yes"/>
      <point x="416" y="474"/>
      <point x="346" y="500"/>
      <point x="293" y="525" type="curve" smooth="yes"/>
      <point x="230" y="555"/>
      <point x="187" y="578"/>
      <point x="187" y="626" type="curve" smooth="yes"/>
      <point x="187" y="711"/>
      <point x="269" y="735"/>
      <point x="333" y="735" type="curve" smooth="yes"/>
      <point x="373" y="735"/>
      <point x="426" y="722"/>
      <point x="460" y="706" type="curve"/>
      <point x="471" y="730" type="line"/>
      <point x="437" y="745"/>
      <point x="382" y="759"/>
      <point x="333" y="759" type="curve" smooth="yes"/>
      <point x="253" y="759"/>
      <point x="160" y="725"/>
      <point x="160" y="626" type="curve" smooth="yes"/>
      <point x="160" y="573"/>
      <point x="198" y="542"/>
      <point x="236" y="525" type="curve"/>
      <point x="176" y="511"/>
      <point x="102" y="472"/>
      <point x="102" y="385" type="curve" smooth="yes"/>
      <point x="102" y="308"/>
      <point x="164" y="272"/>
      <point x="220" y="246" type="curve" smooth="yes"/>
      <point x="279" y="219"/>
      <point x="330" y="200"/>
      <point x="330" y="140" type="curve" smooth="yes"/>
      <point x="330" y="64"/>
      <point x="269" y="23"/>
      <point x="167" y="23" type="curve" smooth="yes"/>
      <point x="120" y="23"/>
      <point x="66" y="40"/>
      <point x="27" y="61" type="curve"/>
      <point x="27" y="32" type="line"/>
      <point x="56" y="17"/>
      <point x="107" y="-1"/>
    </contour>
    <contour>
      <point x="282" y="244" type="curve"/>
      <point x="184" y="291"/>
      <point x="128" y="316"/>
      <point x="128" y="385" type="curve" smooth="yes"/>
      <point x="128" y="470"/>
      <point x="201" y="495"/>
      <point x="262" y="511" type="curve"/>
      <point x="345" y="472"/>
      <point x="389" y="453"/>
      <point x="389" y="391" type="curve" smooth="yes"/>
      <point x="389" y="321"/>
      <point x="338" y="275"/>
    </contour>
  </outline>
</glyph>
<glyph name="dieresis" format="2">
  <advance width="546"/>
  <unicode hex="00A8"/>
  <outline>
    <contour>
      <point x="443" y="647" type="curve" smooth="yes"/>
      <point x="464" y="647"/>
      <point x="472" y="670"/>
      <point x="472" y="688" type="curve" smooth="yes"/>
      <point x="472" y="700"/>
      <point x="466" y="709"/>
      <point x="453" y="709" type="curve" smooth="yes"/>
      <point x="431" y="709"/>
      <point x="424" y="685"/>
      <point x="424" y="668" type="curve" smooth="yes"/>
      <point x="424" y="656"/>
      <point x="430" y="647"/>
    </contour>
    <contour>
      <point x="275" y="647" type="curve" smooth="yes"/>
      <point x="297" y="647"/>
      <point x="305" y="670"/>
      <point x="305" y="688" type="curve" smooth="yes"/>
      <point x="305" y="700"/>
      <point x="299" y="709"/>
      <point x="286" y="709" type="curve" smooth="yes"/>
      <point x="264" y="709"/>
      <point x="257" y="685"/>
      <point x="257" y="668" type="curve" smooth="yes"/>
      <point x="257" y="656"/>
      <point x="263" y="647"/>
    </contour>
  </outline>
</glyph>
<glyph name="copyright" format="2">
  <advance width="805"/>
  <unicode hex="00A9"/>
  <outline>
    <contour>
      <point x="422" y="-8" type="curve" smooth="yes"/>
      <point x="614" y="-8"/>
      <point x="773" y="158"/>
      <point x="773" y="360" type="curve" smooth="yes"/>
      <point x="773" y="548"/>
      <point x="630" y="722"/>
      <point x="430" y="722" type="curve" smooth="yes"/>
      <point x="239" y="722"/>
      <point x="78" y="563"/>
      <point x="78" y="353" type="curve" smooth="yes"/>
      <point x="78" y="155"/>
      <point x="220" y="-8"/>
    </contour>
    <contour>
      <point x="441" y="143" type="curve" smooth="yes"/>
      <point x="484" y="143"/>
      <point x="518" y="150"/>
      <point x="551" y="164" type="curve"/>
      <point x="551" y="188" type="line"/>
      <point x="513" y="173"/>
      <point x="486" y="168"/>
      <point x="442" y="168" type="curve" smooth="yes"/>
      <point x="346" y="168"/>
      <point x="276" y="230"/>
      <point x="276" y="353" type="curve" smooth="yes"/>
      <point x="276" y="472"/>
      <point x="348" y="546"/>
      <point x="450" y="546" type="curve" smooth="yes"/>
      <point x="497" y="546"/>
      <point x="529" y="537"/>
      <point x="558" y="523" type="curve"/>
      <point x="569" y="546" type="line"/>
      <point x="537" y="562"/>
      <point x="505" y="572"/>
      <point x="450" y="572" type="curve" smooth="yes"/>
      <point x="332" y="572"/>
      <point x="249" y="486"/>
      <point x="249" y="353" type="curve" smooth="yes"/>
      <point x="249" y="212"/>
      <point x="326" y="143"/>
    </contour>
    <contour>
      <point x="422" y="17" type="curve" smooth="yes"/>
      <point x="231" y="17"/>
      <point x="103" y="170"/>
      <point x="103" y="354" type="curve" smooth="yes"/>
      <point x="103" y="544"/>
      <point x="247" y="697"/>
      <point x="429" y="697" type="curve" smooth="yes"/>
      <point x="613" y="697"/>
      <point x="748" y="542"/>
      <point x="748" y="360" type="curve" smooth="yes"/>
      <point x="748" y="178"/>
      <point x="608" y="17"/>
    </contour>
  </outline>
</glyph>
<glyph name="ordfeminine" format="2">
  <advance width="307"/>
  <unicode hex="00AA"/>
  <anchor x="179" y="398" name="bottom"/>
  <anchor x="241" y="719" name="top"/>
  <outline>
    <contour>
      <point x="179" y="398" type="curve" smooth="yes"/>
      <point x="221" y="398"/>
      <point x="258" y="432"/>
      <point x="282" y="474" type="curve"/>
      <point x="283" y="474" type="line"/>
      <point x="270" y="402" type="line"/>
      <point x="291" y="402" type="line"/>
      <point x="357" y="716" type="line"/>
      <point x="337" y="716" type="line"/>
      <point x="321" y="660" type="line"/>
      <point x="319" y="660" type="line"/>
      <point x="309" y="694"/>
      <point x="286" y="722"/>
      <point x="243" y="722" type="curve" smooth="yes"/>
      <point x="162" y="722"/>
      <point x="91" y="626"/>
      <point x="91" y="502" type="curve" smooth="yes"/>
      <point x="91" y="434"/>
      <point x="127" y="398"/>
    </contour>
    <contour>
      <point x="179" y="423" type="curve" smooth="yes"/>
      <point x="141" y="423"/>
      <point x="117" y="455"/>
      <point x="117" y="503" type="curve" smooth="yes"/>
      <point x="117" y="619"/>
      <point x="181" y="697"/>
      <point x="240" y="697" type="curve" smooth="yes"/>
      <point x="285" y="697"/>
      <point x="305" y="657"/>
      <point x="305" y="611" type="curve" smooth="yes"/>
      <point x="305" y="526"/>
      <point x="245" y="423"/>
    </contour>
  </outline>
</glyph>
<glyph name="registered" format="2">
  <advance width="805"/>
  <unicode hex="00AE"/>
  <outline>
    <contour>
      <point x="314" y="143" type="line"/>
      <point x="338" y="143" type="line"/>
      <point x="338" y="324" type="line"/>
      <point x="444" y="324" type="line"/>
      <point x="545" y="143" type="line"/>
      <point x="577" y="143" type="line"/>
      <point x="470" y="329" type="line"/>
      <point x="521" y="345"/>
      <point x="560" y="385"/>
      <point x="560" y="451" type="curve" smooth="yes"/>
      <point x="560" y="533"/>
      <point x="506" y="569"/>
      <point x="428" y="569" type="curve" smooth="yes"/>
      <point x="314" y="569" type="line"/>
    </contour>
    <contour>
      <point x="422" y="346" type="curve" smooth="yes"/>
      <point x="338" y="346" type="line"/>
      <point x="338" y="545" type="line"/>
      <point x="426" y="545" type="line" smooth="yes"/>
      <point x="491" y="545"/>
      <point x="536" y="517"/>
      <point x="536" y="450" type="curve" smooth="yes"/>
      <point x="536" y="377"/>
      <point x="486" y="346"/>
    </contour>
    <contour>
      <point x="422" y="-8" type="curve" smooth="yes"/>
      <point x="614" y="-8"/>
      <point x="773" y="158"/>
      <point x="773" y="360" type="curve" smooth="yes"/>
      <point x="773" y="548"/>
      <point x="630" y="722"/>
      <point x="430" y="722" type="curve" smooth="yes"/>
      <point x="239" y="722"/>
      <point x="78" y="563"/>
      <point x="78" y="353" type="curve" smooth="yes"/>
      <point x="78" y="155"/>
      <point x="220" y="-8"/>
    </contour>
    <contour>
      <point x="422" y="17" type="curve" smooth="yes"/>
      <point x="231" y="17"/>
      <point x="103" y="170"/>
      <point x="103" y="354" type="curve" smooth="yes"/>
      <point x="103" y="544"/>
      <point x="247" y="697"/>
      <point x="429" y="697" type="curve" smooth="yes"/>
      <point x="613" y="697"/>
      <point x="748" y="542"/>
      <point x="748" y="360" type="curve" smooth="yes"/>
      <point x="748" y="178"/>
      <point x="608" y="17"/>
    </contour>
  </outline>
</glyph>
<glyph name="overscore" format="2">
  <advance width="455"/>
  <unicode hex="00AF"/>
  <outline>
    <contour>
      <point x="104" y="760" type="line"/>
      <point x="478" y="760" type="line"/>
      <point x="485" y="785" type="line"/>
      <point x="110" y="785" type="line"/>
    </contour>
  </outline>
</glyph>
<glyph name="degree" format="2">
  <advance width="406"/>
  <unicode hex="00B0"/>
  <outline>
    <contour>
      <point x="260" y="441" type="curve" smooth="yes"/>
      <point x="335" y="441"/>
      <point x="395" y="501"/>
      <point x="395" y="584" type="curve" smooth="yes"/>
      <point x="395" y="662"/>
      <point x="336" y="724"/>
      <point x="263" y="724" type="curve" smooth="yes"/>
      <point x="189" y="724"/>
      <point x="127" y="662"/>
      <point x="127" y="582" type="curve" smooth="yes"/>
      <point x="127" y="499"/>
      <point x="188" y="441"/>
    </contour>
    <contour>
      <point x="259" y="466" type="curve" smooth="yes"/>
      <point x="197" y="466"/>
      <point x="151" y="518"/>
      <point x="151" y="582" type="curve" smooth="yes"/>
      <point x="151" y="647"/>
      <point x="199" y="699"/>
      <point x="262" y="699" type="curve" smooth="yes"/>
      <point x="322" y="699"/>
      <point x="371" y="649"/>
      <point x="371" y="584" type="curve" smooth="yes"/>
      <point x="371" y="520"/>
      <point x="320" y="466"/>
    </contour>
  </outline>
</glyph>
<glyph name="twosuperior" format="2">
  <advance width="312"/>
  <unicode hex="00B2"/>
  <outline>
    <contour>
      <point x="54" y="416" type="line"/>
      <point x="309" y="416" type="line"/>
      <point x="314" y="441" type="line"/>
      <point x="98" y="441" type="line"/>
      <point x="213" y="541" type="line" smooth="yes"/>
      <point x="306" y="621"/>
      <point x="368" y="680"/>
      <point x="368" y="762" type="curve" smooth="yes"/>
      <point x="368" y="815"/>
      <point x="334" y="855"/>
      <point x="271" y="855" type="curve" smooth="yes"/>
      <point x="228" y="855"/>
      <point x="185" y="839"/>
      <point x="147" y="809" type="curve"/>
      <point x="159" y="789" type="line"/>
      <point x="198" y="817"/>
      <point x="232" y="830"/>
      <point x="270" y="830" type="curve" smooth="yes"/>
      <point x="315" y="830"/>
      <point x="342" y="802"/>
      <point x="342" y="761" type="curve" smooth="yes"/>
      <point x="342" y="693"/>
      <point x="290" y="643"/>
      <point x="195" y="558" type="curve" smooth="yes"/>
      <point x="59" y="437" type="line"/>
    </contour>
  </outline>
</glyph>
<glyph name="threesuperior" format="2">
  <advance width="312"/>
  <unicode hex="00B3"/>
  <outline>
    <contour>
      <point x="168" y="412" type="curve" smooth="yes"/>
      <point x="260" y="412"/>
      <point x="331" y="454"/>
      <point x="331" y="553" type="curve" smooth="yes"/>
      <point x="331" y="596"/>
      <point x="307" y="629"/>
      <point x="272" y="639" type="curve"/>
      <point x="272" y="641" type="line"/>
      <point x="320" y="653"/>
      <point x="366" y="689"/>
      <point x="366" y="760" type="curve" smooth="yes"/>
      <point x="366" y="815"/>
      <point x="328" y="851"/>
      <point x="268" y="851" type="curve" smooth="yes"/>
      <point x="220" y="851"/>
      <point x="177" y="835"/>
      <point x="139" y="810" type="curve"/>
      <point x="148" y="788" type="line"/>
      <point x="186" y="811"/>
      <point x="222" y="826"/>
      <point x="267" y="826" type="curve" smooth="yes"/>
      <point x="314" y="826"/>
      <point x="338" y="798"/>
      <point x="338" y="757" type="curve" smooth="yes"/>
      <point x="338" y="688"/>
      <point x="278" y="653"/>
      <point x="208" y="653" type="curve" smooth="yes"/>
      <point x="164" y="653" type="line"/>
      <point x="159" y="628" type="line"/>
      <point x="203" y="628" type="line" smooth="yes"/>
      <point x="268" y="628"/>
      <point x="304" y="600"/>
      <point x="304" y="553" type="curve" smooth="yes"/>
      <point x="304" y="474"/>
      <point x="248" y="437"/>
      <point x="168" y="437" type="curve" smooth="yes"/>
      <point x="128" y="437"/>
      <point x="94" y="448"/>
      <point x="61" y="465" type="curve"/>
      <point x="61" y="437" type="line"/>
      <point x="88" y="422"/>
      <point x="126" y="412"/>
    </contour>
  </outline>
</glyph>
<glyph name="micro" format="2">
  <advance width="526"/>
  <unicode hex="00B5"/>
  <outline>
    <contour>
      <point x="-23" y="-232" type="line"/>
      <point x="3" y="-232" type="line"/>
      <point x="34" y="-87" type="line" smooth="yes"/>
      <point x="49" y="-20"/>
      <point x="58" y="32"/>
      <point x="65" y="74" type="curve"/>
      <point x="67" y="74" type="line"/>
      <point x="79" y="31"/>
      <point x="112" y="-10"/>
      <point x="183" y="-10" type="curve" smooth="yes"/>
      <point x="288" y="-10"/>
      <point x="356" y="68"/>
      <point x="392" y="139" type="curve"/>
      <point x="394" y="139" type="line"/>
      <point x="367" y="0" type="line"/>
      <point x="389" y="0" type="line"/>
      <point x="501" y="528" type="line"/>
      <point x="474" y="528" type="line"/>
      <point x="418" y="264" type="line" smooth="yes"/>
      <point x="383" y="99"/>
      <point x="281" y="15"/>
      <point x="186" y="15" type="curve" smooth="yes"/>
      <point x="120" y="15"/>
      <point x="83" y="59"/>
      <point x="83" y="115" type="curve" smooth="yes"/>
      <point x="83" y="128"/>
      <point x="84" y="146"/>
      <point x="92" y="186" type="curve" smooth="yes"/>
      <point x="164" y="528" type="line"/>
      <point x="138" y="528" type="line"/>
    </contour>
  </outline>
</glyph>
<glyph name="paragraph" format="2">
  <advance width="623"/>
  <unicode hex="00B6"/>
  <outline>
    <contour>
      <point x="347" y="355" type="curve"/>
      <point x="347" y="-127" type="line"/>
      <point x="372" y="-127" type="line"/>
      <point x="372" y="735" type="line"/>
      <point x="499" y="735" type="line"/>
      <point x="499" y="-127" type="line"/>
      <point x="524" y="-127" type="line"/>
      <point x="524" y="760" type="line"/>
      <point x="298" y="760" type="line" smooth="yes"/>
      <point x="180" y="760"/>
      <point x="124" y="684"/>
      <point x="124" y="553" type="curve" smooth="yes"/>
      <point x="124" y="436"/>
      <point x="175" y="346"/>
      <point x="279" y="346" type="curve" smooth="yes"/>
      <point x="307" y="346"/>
      <point x="326" y="349"/>
    </contour>
  </outline>
</glyph>
<glyph name="cedilla" format="2">
  <advance width="183"/>
  <unicode hex="00B8"/>
  <outline>
    <contour>
      <point x="-31" y="-240" type="curve" smooth="yes"/>
      <point x="28" y="-240"/>
      <point x="86" y="-204"/>
      <point x="86" y="-138" type="curve" smooth="yes"/>
      <point x="86" y="-96"/>
      <point x="59" y="-69"/>
      <point x="18" y="-65" type="curve"/>
      <point x="51" y="0" type="line"/>
      <point x="26" y="0" type="line"/>
      <point x="-20" y="-85" type="line"/>
      <point x="33" y="-85"/>
      <point x="60" y="-104"/>
      <point x="60" y="-138" type="curve" smooth="yes"/>
      <point x="60" y="-196"/>
      <point x="5" y="-216"/>
      <point x="-33" y="-216" type="curve" smooth="yes"/>
      <point x="-52" y="-216"/>
      <point x="-69" y="-214"/>
      <point x="-83" y="-210" type="curve"/>
      <point x="-83" y="-234" type="line"/>
      <point x="-70" y="-238"/>
      <point x="-53" y="-240"/>
    </contour>
  </outline>
</glyph>
<glyph name="onesuperior" format="2">
  <advance width="312"/>
  <unicode hex="00B9"/>
  <outline>
    <contour>
      <point x="241" y="695" type="curve" smooth="yes"/>
      <point x="182" y="416" type="line"/>
      <point x="208" y="416" type="line"/>
      <point x="299" y="844" type="line"/>
      <point x="278" y="844" type="line"/>
      <point x="139" y="771" type="line"/>
      <point x="150" y="749" type="line"/>
      <point x="197" y="774" type="line" smooth="yes"/>
      <point x="229" y="791"/>
      <point x="247" y="801"/>
      <point x="269" y="815" type="curve"/>
      <point x="259" y="777"/>
      <point x="249" y="734"/>
    </contour>
  </outline>
</glyph>
<glyph name="ordmasculine" format="2">
  <advance width="334"/>
  <unicode hex="00BA"/>
  <anchor x="198" y="395" name="bottom"/>
  <anchor x="256" y="721" name="top"/>
  <outline>
    <contour>
      <point x="198" y="395" type="curve" smooth="yes"/>
      <point x="294" y="395"/>
      <point x="360" y="488"/>
      <point x="360" y="605" type="curve" smooth="yes"/>
      <point x="360" y="674"/>
      <point x="326" y="725"/>
      <point x="258" y="725" type="curve" smooth="yes"/>
      <point x="165" y="725"/>
      <point x="95" y="637"/>
      <point x="95" y="516" type="curve" smooth="yes"/>
      <point x="95" y="446"/>
      <point x="132" y="395"/>
    </contour>
    <contour>
      <point x="200" y="420" type="curve" smooth="yes"/>
      <point x="149" y="420"/>
      <point x="121" y="458"/>
      <point x="121" y="516" type="curve" smooth="yes"/>
      <point x="121" y="623"/>
      <point x="180" y="700"/>
      <point x="255" y="700" type="curve" smooth="yes"/>
      <point x="307" y="700"/>
      <point x="333" y="658"/>
      <point x="333" y="603" type="curve" smooth="yes"/>
      <point x="333" y="503"/>
      <point x="277" y="420"/>
    </contour>
  </outline>
</glyph>
<glyph name="AE" format="2">
  <advance width="744"/>
  <unicode hex="00C6"/>
  <anchor x="319" y="0" name="bottom"/>
  <anchor x="471" y="714" name="top"/>
  <outline>
    <contour>
      <point x="-49" y="0" type="line"/>
      <point x="-17" y="0" type="line"/>
      <point x="143" y="270" type="line"/>
      <point x="341" y="270" type="line"/>
      <point x="284" y="0" type="line"/>
      <point x="633" y="0" type="line"/>
      <point x="639" y="25" type="line"/>
      <point x="316" y="25" type="line"/>
      <point x="388" y="364" type="line"/>
      <point x="692" y="364" type="line"/>
      <point x="697" y="389" type="line"/>
      <point x="393" y="389" type="line"/>
      <point x="457" y="689" type="line"/>
      <point x="779" y="689" type="line"/>
      <point x="784" y="714" type="line"/>
      <point x="379" y="714" type="line"/>
    </contour>
    <contour>
      <point x="158" y="295" type="line"/>
      <point x="393" y="689" type="line"/>
      <point x="429" y="689" type="line"/>
      <point x="346" y="295" type="line"/>
    </contour>
  </outline>
</glyph>
<glyph name="Eth" format="2">
  <advance width="642"/>
  <unicode hex="00D0"/>
  <anchor x="248" y="0" name="bottom"/>
  <anchor x="397" y="714" name="top"/>
  <outline>
    <contour>
      <point x="337" y="368" type="line"/>
      <point x="50" y="368" type="line"/>
      <point x="45" y="343" type="line"/>
      <point x="330" y="343" type="line"/>
    </contour>
    <component base="D"/>
  </outline>
</glyph>
<glyph name="multiply" format="2">
  <advance width="536"/>
  <unicode hex="00D7"/>
  <outline>
    <contour>
      <point x="472" y="567" type="line"/>
      <point x="287" y="370" type="line"/>
      <point x="104" y="567" type="line"/>
      <point x="86" y="550" type="line"/>
      <point x="270" y="353" type="line"/>
      <point x="86" y="156" type="line"/>
      <point x="104" y="139" type="line"/>
      <point x="287" y="336" type="line"/>
      <point x="471" y="139" type="line"/>
      <point x="489" y="156" type="line"/>
      <point x="305" y="353" type="line"/>
      <point x="489" y="550" type="line"/>
    </contour>
  </outline>
</glyph>
<glyph name="Oslash" format="2">
  <advance width="680"/>
  <unicode hex="00D8"/>
  <anchor x="281" y="-26" name="bottom"/>
  <anchor x="445" y="740" name="top"/>
  <outline>
    <contour>
      <point x="43" y="-26" type="line"/>
      <point x="132" y="77" type="line"/>
      <point x="169" y="24"/>
      <point x="228" y="-10"/>
      <point x="317" y="-10" type="curve" smooth="yes"/>
      <point x="576" y="-10"/>
      <point x="647" y="295"/>
      <point x="647" y="451" type="curve" smooth="yes"/>
      <point x="647" y="521"/>
      <point x="633" y="580"/>
      <point x="610" y="621" type="curve"/>
      <point x="699" y="723" type="line"/>
      <point x="680" y="740" type="line"/>
      <point x="595" y="643" type="line"/>
      <point x="556" y="698"/>
      <point x="493" y="725"/>
      <point x="417" y="725" type="curve" smooth="yes"/>
      <point x="189" y="725"/>
      <point x="82" y="491"/>
      <point x="82" y="271" type="curve" smooth="yes"/>
      <point x="82" y="206"/>
      <point x="93" y="146"/>
      <point x="119" y="99" type="curve"/>
      <point x="25" y="-8" type="line"/>
    </contour>
    <contour>
      <point x="318" y="15" type="curve" smooth="yes"/>
      <point x="239" y="15"/>
      <point x="184" y="46"/>
      <point x="151" y="97" type="curve"/>
      <point x="591" y="600" type="line"/>
      <point x="610" y="561"/>
      <point x="620" y="510"/>
      <point x="620" y="450" type="curve" smooth="yes"/>
      <point x="620" y="293"/>
      <point x="543" y="15"/>
    </contour>
    <contour>
      <point x="577" y="623" type="curve"/>
      <point x="138" y="120" type="line"/>
      <point x="118" y="161"/>
      <point x="109" y="213"/>
      <point x="109" y="272" type="curve" smooth="yes"/>
      <point x="109" y="446"/>
      <point x="190" y="700"/>
      <point x="415" y="700" type="curve" smooth="yes"/>
      <point x="490" y="700"/>
      <point x="543" y="672"/>
    </contour>
  </outline>
</glyph>
<glyph name="Thorn" format="2">
  <advance width="530"/>
  <unicode hex="00DE"/>
  <anchor x="212" y="0" name="bottom"/>
  <anchor x="364" y="714" name="top"/>
  <outline>
    <contour>
      <point x="47" y="0" type="line"/>
      <point x="74" y="0" type="line"/>
      <point x="110" y="173" type="line"/>
      <point x="221" y="173" type="line" smooth="yes"/>
      <point x="373" y="173"/>
      <point x="508" y="228"/>
      <point x="508" y="422" type="curve" smooth="yes"/>
      <point x="508" y="525"/>
      <point x="443" y="582"/>
      <point x="317" y="582" type="curve" smooth="yes"/>
      <point x="197" y="582" type="line"/>
      <point x="225" y="714" type="line"/>
      <point x="198" y="714" type="line"/>
    </contour>
    <contour>
      <point x="225" y="198" type="curve" smooth="yes"/>
      <point x="116" y="198" type="line"/>
      <point x="192" y="557" type="line"/>
      <point x="312" y="557" type="line" smooth="yes"/>
      <point x="422" y="557"/>
      <point x="481" y="510"/>
      <point x="481" y="421" type="curve" smooth="yes"/>
      <point x="481" y="251"/>
      <point x="364" y="198"/>
    </contour>
  </outline>
</glyph>
<glyph name="germandbls" format="2">
  <advance width="506"/>
  <unicode hex="00DF"/>
  <anchor x="149" y="-240" name="bottom"/>
  <anchor x="362" y="765" name="top"/>
  <outline>
    <contour>
      <point x="-87" y="-240" type="curve" smooth="yes"/>
      <point x="-30" y="-240"/>
      <point x="15" y="-202"/>
      <point x="32" y="-120" type="curve" smooth="yes"/>
      <point x="175" y="563" type="line" smooth="yes"/>
      <point x="198" y="674"/>
      <point x="250" y="740"/>
      <point x="352" y="740" type="curve" smooth="yes"/>
      <point x="419" y="740"/>
      <point x="458" y="700"/>
      <point x="458" y="648" type="curve" smooth="yes"/>
      <point x="458" y="576"/>
      <point x="415" y="549"/>
      <point x="373" y="523" type="curve" smooth="yes"/>
      <point x="329" y="496"/>
      <point x="283" y="469"/>
      <point x="283" y="393" type="curve" smooth="yes"/>
      <point x="283" y="342"/>
      <point x="321" y="313"/>
      <point x="356" y="278" type="curve" smooth="yes"/>
      <point x="385" y="249"/>
      <point x="411" y="216"/>
      <point x="411" y="163" type="curve" smooth="yes"/>
      <point x="411" y="67"/>
      <point x="357" y="15"/>
      <point x="263" y="15" type="curve" smooth="yes"/>
      <point x="218" y="15"/>
      <point x="177" y="26"/>
      <point x="143" y="45" type="curve"/>
      <point x="142" y="17" type="line"/>
      <point x="169" y="3"/>
      <point x="207" y="-10"/>
      <point x="263" y="-10" type="curve" smooth="yes"/>
      <point x="382" y="-10"/>
      <point x="439" y="63"/>
      <point x="439" y="164" type="curve" smooth="yes"/>
      <point x="439" y="230"/>
      <point x="406" y="267"/>
      <point x="373" y="299" type="curve" smooth="yes"/>
      <point x="341" y="330"/>
      <point x="309" y="355"/>
      <point x="309" y="393" type="curve" smooth="yes"/>
      <point x="309" y="453"/>
      <point x="346" y="478"/>
      <point x="386" y="502" type="curve" smooth="yes"/>
      <point x="433" y="531"/>
      <point x="486" y="559"/>
      <point x="486" y="649" type="curve" smooth="yes"/>
      <point x="486" y="714"/>
      <point x="440" y="765"/>
      <point x="353" y="765" type="curve" smooth="yes"/>
      <point x="240" y="765"/>
      <point x="177" y="696"/>
      <point x="149" y="563" type="curve" smooth="yes"/>
      <point x="6" y="-116" type="line" smooth="yes"/>
      <point x="-7" y="-178"/>
      <point x="-38" y="-215"/>
      <point x="-86" y="-215" type="curve" smooth="yes"/>
      <point x="-104" y="-215"/>
      <point x="-124" y="-212"/>
      <point x="-139" y="-204" type="curve"/>
      <point x="-139" y="-230" type="line"/>
      <point x="-126" y="-236"/>
      <point x="-109" y="-240"/>
    </contour>
  </outline>
</glyph>
<glyph name="ae" format="2">
  <advance width="799"/>
  <unicode hex="00E6"/>
  <anchor x="346" y="0" name="bottom"/>
  <anchor x="458" y="528" name="top"/>
  <outline>
    <contour>
      <point x="184" y="-10" type="curve" smooth="yes"/>
      <point x="272" y="-10"/>
      <point x="333" y="66"/>
      <point x="365" y="133" type="curve"/>
      <point x="367" y="133" type="line"/>
      <point x="340" y="0" type="line"/>
      <point x="361" y="0" type="line"/>
      <point x="392" y="146" type="line"/>
      <point x="407" y="36"/>
      <point x="477" y="-10"/>
      <point x="563" y="-10" type="curve" smooth="yes"/>
      <point x="610" y="-10"/>
      <point x="662" y="5"/>
      <point x="692" y="23" type="curve"/>
      <point x="692" y="48" type="line"/>
      <point x="661" y="33"/>
      <point x="615" y="15"/>
      <point x="565" y="15" type="curve" smooth="yes"/>
      <point x="465" y="15"/>
      <point x="412" y="81"/>
      <point x="412" y="191" type="curve" smooth="yes"/>
      <point x="412" y="215"/>
      <point x="414" y="240"/>
      <point x="416" y="256" type="curve"/>
      <point x="448" y="256" type="line" smooth="yes"/>
      <point x="622" y="256"/>
      <point x="764" y="294"/>
      <point x="764" y="426" type="curve" smooth="yes"/>
      <point x="764" y="490"/>
      <point x="714" y="538"/>
      <point x="649" y="538" type="curve" smooth="yes"/>
      <point x="557" y="538"/>
      <point x="493" y="484"/>
      <point x="446" y="404" type="curve"/>
      <point x="472" y="528" type="line"/>
      <point x="450" y="528" type="line"/>
      <point x="422" y="407" type="line"/>
      <point x="420" y="407" type="line"/>
      <point x="415" y="458"/>
      <point x="390" y="538"/>
      <point x="304" y="538" type="curve" smooth="yes"/>
      <point x="139" y="538"/>
      <point x="50" y="338"/>
      <point x="50" y="175" type="curve" smooth="yes"/>
      <point x="50" y="62"/>
      <point x="99" y="-10"/>
    </contour>
    <contour>
      <point x="187" y="15" type="curve" smooth="yes"/>
      <point x="117" y="15"/>
      <point x="77" y="75"/>
      <point x="77" y="175" type="curve" smooth="yes"/>
      <point x="77" y="333"/>
      <point x="160" y="513"/>
      <point x="303" y="513" type="curve" smooth="yes"/>
      <point x="367" y="513"/>
      <point x="404" y="458"/>
      <point x="404" y="361" type="curve" smooth="yes"/>
      <point x="404" y="334"/>
      <point x="401" y="310"/>
      <point x="392" y="264" type="curve" smooth="yes"/>
      <point x="364" y="123"/>
      <point x="279" y="15"/>
    </contour>
    <contour>
      <point x="465" y="281" type="curve" smooth="yes"/>
      <point x="421" y="281" type="line"/>
      <point x="451" y="428"/>
      <point x="548" y="513"/>
      <point x="646" y="513" type="curve" smooth="yes"/>
      <point x="706" y="513"/>
      <point x="737" y="472"/>
      <point x="737" y="425" type="curve" smooth="yes"/>
      <point x="737" y="324"/>
      <point x="624" y="281"/>
    </contour>
  </outline>
</glyph>
<glyph name="eth" format="2">
  <advance width="523"/>
  <unicode hex="00F0"/>
  <anchor x="209" y="0" name="bottom"/>
  <anchor x="371" y="762" name="top"/>
  <outline>
    <contour>
      <point x="213" y="-10" type="curve" smooth="yes"/>
      <point x="386" y="-10"/>
      <point x="473" y="160"/>
      <point x="473" y="348" type="curve" smooth="yes"/>
      <point x="473" y="484"/>
      <point x="433" y="592"/>
      <point x="386" y="665" type="curve"/>
      <point x="500" y="731" type="line"/>
      <point x="490" y="752" type="line"/>
      <point x="371" y="683" type="line"/>
      <point x="351" y="709"/>
      <point x="325" y="738"/>
      <point x="296" y="762" type="curve"/>
      <point x="277" y="741" type="line"/>
      <point x="307" y="718"/>
      <point x="330" y="695"/>
      <point x="349" y="670" type="curve"/>
      <point x="225" y="598" type="line"/>
      <point x="236" y="577" type="line"/>
      <point x="364" y="652" type="line"/>
      <point x="418" y="572"/>
      <point x="448" y="453"/>
      <point x="448" y="344" type="curve"/>
      <point x="446" y="344" type="line"/>
      <point x="430" y="411"/>
      <point x="372" y="465"/>
      <point x="286" y="465" type="curve" smooth="yes"/>
      <point x="134" y="465"/>
      <point x="49" y="324"/>
      <point x="49" y="180" type="curve" smooth="yes"/>
      <point x="49" y="73"/>
      <point x="110" y="-10"/>
    </contour>
    <contour>
      <point x="214" y="15" type="curve" smooth="yes"/>
      <point x="133" y="15"/>
      <point x="76" y="81"/>
      <point x="76" y="181" type="curve" smooth="yes"/>
      <point x="76" y="318"/>
      <point x="155" y="440"/>
      <point x="285" y="440" type="curve" smooth="yes"/>
      <point x="397" y="440"/>
      <point x="433" y="348"/>
      <point x="433" y="289" type="curve" smooth="yes"/>
      <point x="433" y="109"/>
      <point x="323" y="15"/>
    </contour>
  </outline>
</glyph>
<glyph name="divide" format="2">
  <advance width="536"/>
  <unicode hex="00F7"/>
  <outline>
    <contour>
      <point x="71" y="341" type="line"/>
      <point x="504" y="341" type="line"/>
      <point x="504" y="365" type="line"/>
      <point x="71" y="365" type="line"/>
    </contour>
    <contour>
      <point x="287" y="144" type="curve" smooth="yes"/>
      <point x="309" y="144"/>
      <point x="313" y="158"/>
      <point x="313" y="175" type="curve" smooth="yes"/>
      <point x="313" y="191"/>
      <point x="309" y="206"/>
      <point x="287" y="206" type="curve" smooth="yes"/>
      <point x="267" y="206"/>
      <point x="262" y="191"/>
      <point x="262" y="175" type="curve" smooth="yes"/>
      <point x="262" y="158"/>
      <point x="267" y="144"/>
    </contour>
    <contour>
      <point x="287" y="500" type="curve" smooth="yes"/>
      <point x="309" y="500"/>
      <point x="313" y="514"/>
      <point x="313" y="531" type="curve" smooth="yes"/>
      <point x="313" y="547"/>
      <point x="309" y="562"/>
      <point x="287" y="562" type="curve" smooth="yes"/>
      <point x="267" y="562"/>
      <point x="262" y="547"/>
      <point x="262" y="531" type="curve" smooth="yes"/>
      <point x="262" y="514"/>
      <point x="267" y="500"/>
    </contour>
  </outline>
</glyph>
<glyph name="oslash" format="2">
  <advance width="537"/>
  <unicode hex="00F8"/>
  <anchor x="210" y="-29" name="bottom"/>
  <anchor x="334" y="555" name="top"/>
  <outline>
    <contour>
      <point x="15" y="-29" type="line"/>
      <point x="92" y="54" type="line"/>
      <point x="118" y="15"/>
      <point x="161" y="-10"/>
      <point x="225" y="-10" type="curve" smooth="yes"/>
      <point x="390" y="-10"/>
      <point x="488" y="151"/>
      <point x="488" y="341" type="curve" smooth="yes"/>
      <point x="488" y="383"/>
      <point x="480" y="421"/>
      <point x="465" y="452" type="curve"/>
      <point x="544" y="537" type="line"/>
      <point x="526" y="555" type="line"/>
      <point x="451" y="474" type="line"/>
      <point x="423" y="514"/>
      <point x="379" y="538"/>
      <point x="320" y="538" type="curve" smooth="yes"/>
      <point x="170" y="538"/>
      <point x="54" y="400"/>
      <point x="54" y="189" type="curve" smooth="yes"/>
      <point x="54" y="145"/>
      <point x="62" y="107"/>
      <point x="78" y="76" type="curve"/>
      <point x="-3" y="-11" type="line"/>
    </contour>
    <contour>
      <point x="229" y="15" type="curve" smooth="yes"/>
      <point x="174" y="15"/>
      <point x="134" y="36"/>
      <point x="110" y="73" type="curve"/>
      <point x="446" y="433" type="line"/>
      <point x="456" y="408"/>
      <point x="461" y="376"/>
      <point x="461" y="342" type="curve" smooth="yes"/>
      <point x="461" y="162"/>
      <point x="373" y="15"/>
    </contour>
    <contour>
      <point x="433" y="456" type="curve"/>
      <point x="97" y="95" type="line"/>
      <point x="87" y="119"/>
      <point x="81" y="152"/>
      <point x="81" y="189" type="curve" smooth="yes"/>
      <point x="81" y="386"/>
      <point x="184" y="513"/>
      <point x="318" y="513" type="curve" smooth="yes"/>
      <point x="371" y="513"/>
      <point x="410" y="491"/>
    </contour>
  </outline>
</glyph>
<glyph name="dcroat" format="2">
  <advance width="540"/>
  <unicode hex="0111"/>
  <anchor x="216" y="0" name="bottom"/>
  <anchor x="378" y="760" name="top"/>
  <outline>
    <contour>
      <point x="195" y="-10" type="curve" smooth="yes"/>
      <point x="293" y="-10"/>
      <point x="365" y="69"/>
      <point x="402" y="139" type="curve"/>
      <point x="404" y="139" type="line"/>
      <point x="376" y="0" type="line"/>
      <point x="398" y="0" type="line"/>
      <point x="531" y="630" type="line"/>
      <point x="600" y="630" type="line"/>
      <point x="606" y="655" type="line"/>
      <point x="537" y="655" type="line"/>
      <point x="559" y="760" type="line"/>
      <point x="533" y="760" type="line"/>
      <point x="511" y="655" type="line"/>
      <point x="299" y="655" type="line"/>
      <point x="294" y="630" type="line"/>
      <point x="505" y="630" type="line"/>
      <point x="487" y="543" type="line" smooth="yes"/>
      <point x="478" y="501"/>
      <point x="468" y="452"/>
      <point x="461" y="407" type="curve"/>
      <point x="459" y="407" type="line"/>
      <point x="451" y="472"/>
      <point x="408" y="538"/>
      <point x="313" y="538" type="curve" smooth="yes"/>
      <point x="136" y="538"/>
      <point x="50" y="337"/>
      <point x="50" y="175" type="curve" smooth="yes"/>
      <point x="50" y="64"/>
      <point x="105" y="-10"/>
    </contour>
    <contour>
      <point x="199" y="15" type="curve" smooth="yes"/>
      <point x="121" y="15"/>
      <point x="77" y="77"/>
      <point x="77" y="175" type="curve" smooth="yes"/>
      <point x="77" y="332"/>
      <point x="156" y="513"/>
      <point x="312" y="513" type="curve" smooth="yes"/>
      <point x="389" y="513"/>
      <point x="442" y="464"/>
      <point x="442" y="364" type="curve" smooth="yes"/>
      <point x="442" y="185"/>
      <point x="331" y="15"/>
    </contour>
  </outline>
</glyph>
<glyph name="Hbar" format="2">
  <advance width="647"/>
  <unicode hex="0126"/>
  <anchor x="270" y="0" name="bottom"/>
  <anchor x="422" y="714" name="top"/>
  <outline>
    <contour>
      <point x="47" y="0" type="line"/>
      <point x="74" y="0" type="line"/>
      <point x="151" y="363" type="line"/>
      <point x="548" y="363" type="line"/>
      <point x="472" y="0" type="line"/>
      <point x="499" y="0" type="line"/>
      <point x="615" y="550" type="line"/>
      <point x="708" y="550" type="line"/>
      <point x="714" y="575" type="line"/>
      <point x="620" y="575" type="line"/>
      <point x="650" y="714" type="line"/>
      <point x="623" y="714" type="line"/>
      <point x="594" y="575" type="line"/>
      <point x="195" y="575" type="line"/>
      <point x="225" y="714" type="line"/>
      <point x="198" y="714" type="line"/>
      <point x="169" y="575" type="line"/>
      <point x="76" y="575" type="line"/>
      <point x="70" y="550" type="line"/>
      <point x="164" y="550" type="line"/>
    </contour>
    <contour>
      <point x="156" y="388" type="line"/>
      <point x="190" y="549" type="line"/>
      <point x="588" y="549" type="line"/>
      <point x="554" y="388" type="line"/>
    </contour>
  </outline>
</glyph>
<glyph name="hbar" format="2">
  <advance width="526"/>
  <unicode hex="0127"/>
  <anchor x="210" y="0" name="bottom"/>
  <anchor x="371" y="760" name="top"/>
  <outline>
    <contour>
      <point x="30" y="0" type="line"/>
      <point x="56" y="0" type="line"/>
      <point x="114" y="274" type="line" smooth="yes"/>
      <point x="140" y="398"/>
      <point x="237" y="513"/>
      <point x="342" y="513" type="curve" smooth="yes"/>
      <point x="408" y="513"/>
      <point x="447" y="480"/>
      <point x="447" y="406" type="curve" smooth="yes"/>
      <point x="447" y="388"/>
      <point x="445" y="368"/>
      <point x="440" y="345" type="curve" smooth="yes"/>
      <point x="367" y="0" type="line"/>
      <point x="393" y="0" type="line"/>
      <point x="465" y="342" type="line" smooth="yes"/>
      <point x="470" y="366"/>
      <point x="473" y="390"/>
      <point x="473" y="410" type="curve" smooth="yes"/>
      <point x="473" y="494"/>
      <point x="428" y="538"/>
      <point x="346" y="538" type="curve" smooth="yes"/>
      <point x="245" y="538"/>
      <point x="171" y="453"/>
      <point x="137" y="389" type="curve"/>
      <point x="135" y="389" type="line"/>
      <point x="148" y="441"/>
      <point x="162" y="501"/>
      <point x="190" y="630" type="curve"/>
      <point x="405" y="630" type="line"/>
      <point x="411" y="655" type="line"/>
      <point x="195" y="655" type="line"/>
      <point x="217" y="760" type="line"/>
      <point x="191" y="760" type="line"/>
      <point x="169" y="655" type="line"/>
      <point x="103" y="655" type="line"/>
      <point x="96" y="630" type="line"/>
      <point x="164" y="630" type="line"/>
    </contour>
  </outline>
</glyph>
<glyph name="idotless" format="2">
  <advance width="197"/>
  <unicode hex="0131"/>
  <anchor x="43" y="0" name="bottom"/>
  <anchor x="155" y="528" name="top"/>
  <outline>
    <contour>
      <point x="30" y="0" type="line"/>
      <point x="56" y="0" type="line"/>
      <point x="168" y="528" type="line"/>
      <point x="142" y="528" type="line"/>
    </contour>
  </outline>
</glyph>
<glyph name="kgreenlandic" format="2">
  <advance width="418"/>
  <unicode hex="0138"/>
  <anchor x="156" y="0" name="bottom"/>
  <anchor x="268" y="528" name="top"/>
  <outline>
    <contour>
      <point x="30" y="0" type="line"/>
      <point x="56" y="0" type="line"/>
      <point x="92" y="172" type="line"/>
      <point x="205" y="281" type="line"/>
      <point x="337" y="0" type="line"/>
      <point x="366" y="0" type="line"/>
      <point x="225" y="298" type="line"/>
      <point x="460" y="528" type="line"/>
      <point x="427" y="528" type="line"/>
      <point x="97" y="204" type="line"/>
      <point x="96" y="204" type="line"/>
      <point x="111" y="262"/>
      <point x="123" y="319"/>
      <point x="137" y="384" type="curve" smooth="yes"/>
      <point x="168" y="528" type="line"/>
      <point x="142" y="528" type="line"/>
    </contour>
  </outline>
</glyph>
<glyph name="Lslash" format="2">
  <advance width="466"/>
  <unicode hex="0141"/>
  <anchor x="180" y="0" name="bottom"/>
  <anchor x="332" y="714" name="top"/>
  <outline>
    <contour>
      <point x="47" y="0" type="line"/>
      <point x="395" y="0" type="line"/>
      <point x="400" y="25" type="line"/>
      <point x="79" y="25" type="line"/>
      <point x="138" y="304" type="line"/>
      <point x="326" y="420" type="line"/>
      <point x="314" y="441" type="line"/>
      <point x="145" y="336" type="line"/>
      <point x="225" y="714" type="line"/>
      <point x="198" y="714" type="line"/>
      <point x="114" y="317" type="line"/>
      <point x="12" y="254" type="line"/>
      <point x="24" y="233" type="line"/>
      <point x="107" y="285" type="line"/>
    </contour>
  </outline>
</glyph>
<glyph name="lslash" format="2">
  <advance width="198"/>
  <unicode hex="0142"/>
  <anchor x="46" y="0" name="bottom"/>
  <anchor x="207" y="760" name="top"/>
  <outline>
    <contour>
      <point x="30" y="0" type="line"/>
      <point x="56" y="0" type="line"/>
      <point x="131" y="354" type="line"/>
      <point x="231" y="417" type="line"/>
      <point x="221" y="437" type="line"/>
      <point x="138" y="384" type="line"/>
      <point x="217" y="760" type="line"/>
      <point x="191" y="760" type="line"/>
      <point x="108" y="366" type="line"/>
      <point x="21" y="312" type="line"/>
      <point x="31" y="292" type="line"/>
      <point x="101" y="336" type="line"/>
    </contour>
  </outline>
</glyph>
<glyph name="Eng" format="2">
  <advance width="641"/>
  <unicode hex="014A"/>
  <anchor x="230" y="-174" name="bottom"/>
  <anchor x="419" y="714" name="top"/>
  <outline>
    <contour>
      <point x="324" y="-174" type="curve" smooth="yes"/>
      <point x="419" y="-174"/>
      <point x="471" y="-104"/>
      <point x="494" y="5" type="curve" smooth="yes"/>
      <point x="644" y="714" type="line"/>
      <point x="619" y="714" type="line"/>
      <point x="512" y="211" type="line" smooth="yes"/>
      <point x="502" y="164"/>
      <point x="490" y="106"/>
      <point x="480" y="54" type="curve"/>
      <point x="478" y="54" type="line"/>
      <point x="218" y="714" type="line"/>
      <point x="198" y="714" type="line"/>
      <point x="47" y="0" type="line"/>
      <point x="74" y="0" type="line"/>
      <point x="179" y="502" type="line" smooth="yes"/>
      <point x="190" y="556"/>
      <point x="199" y="601"/>
      <point x="211" y="659" type="curve"/>
      <point x="213" y="659" type="line"/>
      <point x="468" y="11" type="line"/>
      <point x="450" y="-79"/>
      <point x="410" y="-148"/>
      <point x="323" y="-148" type="curve" smooth="yes"/>
      <point x="301" y="-148"/>
      <point x="281" y="-144"/>
      <point x="262" y="-138" type="curve"/>
      <point x="259" y="-161" type="line"/>
      <point x="274" y="-170"/>
      <point x="298" y="-174"/>
    </contour>
  </outline>
</glyph>
<glyph name="eng" format="2">
  <advance width="526"/>
  <unicode hex="014B"/>
  <anchor x="159" y="-240" name="bottom"/>
  <anchor x="322" y="528" name="top"/>
  <anchor x="561" y="528" name="topright"/>
  <outline>
    <contour>
      <point x="250" y="-240" type="curve" smooth="yes"/>
      <point x="308" y="-240"/>
      <point x="350" y="-201"/>
      <point x="367" y="-120" type="curve" smooth="yes"/>
      <point x="465" y="342" type="line" smooth="yes"/>
      <point x="470" y="366"/>
      <point x="473" y="390"/>
      <point x="473" y="410" type="curve" smooth="yes"/>
      <point x="473" y="494"/>
      <point x="428" y="538"/>
      <point x="346" y="538" type="curve" smooth="yes"/>
      <point x="245" y="538"/>
      <point x="170" y="452"/>
      <point x="138" y="389" type="curve"/>
      <point x="136" y="389" type="line"/>
      <point x="164" y="528" type="line"/>
      <point x="142" y="528" type="line"/>
      <point x="30" y="0" type="line"/>
      <point x="56" y="0" type="line"/>
      <point x="114" y="274" type="line" smooth="yes"/>
      <point x="140" y="398"/>
      <point x="237" y="513"/>
      <point x="342" y="513" type="curve" smooth="yes"/>
      <point x="408" y="513"/>
      <point x="447" y="480"/>
      <point x="447" y="406" type="curve" smooth="yes"/>
      <point x="447" y="388"/>
      <point x="445" y="368"/>
      <point x="440" y="345" type="curve" smooth="yes"/>
      <point x="342" y="-116" type="line" smooth="yes"/>
      <point x="329" y="-178"/>
      <point x="298" y="-215"/>
      <point x="251" y="-215" type="curve" smooth="yes"/>
      <point x="233" y="-215"/>
      <point x="213" y="-212"/>
      <point x="198" y="-204" type="curve"/>
      <point x="197" y="-230" type="line"/>
      <point x="211" y="-236"/>
      <point x="228" y="-240"/>
    </contour>
  </outline>
</glyph>
<glyph name="OE" format="2">
  <advance width="835"/>
  <unicode hex="0152"/>
  <anchor x="364" y="0" name="bottom"/>
  <anchor x="516" y="714" name="top"/>
  <outline>
    <contour>
      <point x="317" y="-3" type="curve" smooth="yes"/>
      <point x="339" y="-3"/>
      <point x="360" y="-2"/>
      <point x="378" y="0" type="curve"/>
      <point x="724" y="0" type="line"/>
      <point x="729" y="25" type="line"/>
      <point x="407" y="25" type="line"/>
      <point x="479" y="364" type="line"/>
      <point x="783" y="364" type="line"/>
      <point x="788" y="389" type="line"/>
      <point x="484" y="389" type="line"/>
      <point x="547" y="689" type="line"/>
      <point x="870" y="689" type="line"/>
      <point x="875" y="714" type="line"/>
      <point x="526" y="714" type="line"/>
      <point x="495" y="720"/>
      <point x="461" y="723"/>
      <point x="417" y="723" type="curve" smooth="yes"/>
      <point x="188" y="723"/>
      <point x="82" y="491"/>
      <point x="82" y="271" type="curve" smooth="yes"/>
      <point x="82" y="118"/>
      <point x="145" y="-3"/>
    </contour>
    <contour>
      <point x="318" y="22" type="curve" smooth="yes"/>
      <point x="171" y="22"/>
      <point x="109" y="121"/>
      <point x="109" y="272" type="curve" smooth="yes"/>
      <point x="109" y="446"/>
      <point x="189" y="698"/>
      <point x="414" y="698" type="curve" smooth="yes"/>
      <point x="456" y="698"/>
      <point x="491" y="695"/>
      <point x="520" y="690" type="curve"/>
      <point x="380" y="25" type="line"/>
      <point x="364" y="23"/>
      <point x="340" y="22"/>
    </contour>
  </outline>
</glyph>
<glyph name="oe" format="2">
  <advance width="845"/>
  <unicode hex="0153"/>
  <anchor x="369" y="0" name="bottom"/>
  <anchor x="481" y="528" name="top"/>
  <outline>
    <contour>
      <point x="218" y="-10" type="curve" smooth="yes"/>
      <point x="321" y="-10"/>
      <point x="394" y="58"/>
      <point x="434" y="159" type="curve"/>
      <point x="447" y="38"/>
      <point x="527" y="-10"/>
      <point x="613" y="-10" type="curve" smooth="yes"/>
      <point x="665" y="-10"/>
      <point x="711" y="6"/>
      <point x="741" y="27" type="curve"/>
      <point x="738" y="52" type="line"/>
      <point x="706" y="34"/>
      <point x="672" y="15"/>
      <point x="618" y="15" type="curve" smooth="yes"/>
      <point x="521" y="15"/>
      <point x="458" y="81"/>
      <point x="458" y="191" type="curve" smooth="yes"/>
      <point x="458" y="215"/>
      <point x="460" y="240"/>
      <point x="462" y="256" type="curve"/>
      <point x="494" y="256" type="line" smooth="yes"/>
      <point x="668" y="256"/>
      <point x="810" y="294"/>
      <point x="810" y="430" type="curve" smooth="yes"/>
      <point x="810" y="491"/>
      <point x="763" y="535"/>
      <point x="697" y="535" type="curve" smooth="yes"/>
      <point x="589" y="535"/>
      <point x="511" y="465"/>
      <point x="467" y="359" type="curve"/>
      <point x="461" y="462"/>
      <point x="409" y="538"/>
      <point x="309" y="538" type="curve" smooth="yes"/>
      <point x="162" y="538"/>
      <point x="54" y="400"/>
      <point x="54" y="189" type="curve" smooth="yes"/>
      <point x="54" y="72"/>
      <point x="107" y="-10"/>
    </contour>
    <contour>
      <point x="221" y="15" type="curve" smooth="yes"/>
      <point x="128" y="15"/>
      <point x="81" y="83"/>
      <point x="81" y="189" type="curve" smooth="yes"/>
      <point x="81" y="386"/>
      <point x="175" y="513"/>
      <point x="306" y="513" type="curve" smooth="yes"/>
      <point x="398" y="513"/>
      <point x="443" y="441"/>
      <point x="443" y="342" type="curve" smooth="yes"/>
      <point x="443" y="163"/>
      <point x="360" y="15"/>
    </contour>
    <contour>
      <point x="511" y="281" type="curve" smooth="yes"/>
      <point x="466" y="281" type="line"/>
      <point x="498" y="427"/>
      <point x="591" y="510"/>
      <point x="693" y="510" type="curve" smooth="yes"/>
      <point x="751" y="510"/>
      <point x="783" y="475"/>
      <point x="783" y="429" type="curve" smooth="yes"/>
      <point x="783" y="325"/>
      <point x="669" y="281"/>
    </contour>
  </outline>
</glyph>
<glyph name="Tbar" format="2">
  <advance width="461"/>
  <unicode hex="0166"/>
  <anchor x="177" y="0" name="bottom"/>
  <anchor x="329" y="714" name="top"/>
  <outline>
    <contour>
      <point x="162" y="0" type="line"/>
      <point x="190" y="0" type="line"/>
      <point x="264" y="355" type="line"/>
      <point x="424" y="355" type="line"/>
      <point x="430" y="380" type="line"/>
      <point x="270" y="380" type="line"/>
      <point x="335" y="689" type="line"/>
      <point x="549" y="689" type="line"/>
      <point x="555" y="714" type="line"/>
      <point x="100" y="714" type="line"/>
      <point x="95" y="689" type="line"/>
      <point x="308" y="689" type="line"/>
      <point x="243" y="380" type="line"/>
      <point x="89" y="380" type="line"/>
      <point x="84" y="355" type="line"/>
      <point x="237" y="355" type="line"/>
    </contour>
  </outline>
</glyph>
<glyph name="tbar" format="2">
  <advance width="294"/>
  <unicode hex="0167"/>
  <anchor x="94" y="0" name="bottom"/>
  <anchor x="234" y="659" name="top"/>
  <outline>
    <contour>
      <point x="139" y="-10" type="curve" smooth="yes"/>
      <point x="171" y="-10"/>
      <point x="194" y="-4"/>
      <point x="214" y="3" type="curve"/>
      <point x="214" y="28" type="line"/>
      <point x="194" y="20"/>
      <point x="171" y="15"/>
      <point x="141" y="15" type="curve" smooth="yes"/>
      <point x="94" y="15"/>
      <point x="76" y="40"/>
      <point x="76" y="83" type="curve" smooth="yes"/>
      <point x="76" y="100"/>
      <point x="79" y="120"/>
      <point x="84" y="143" type="curve" smooth="yes"/>
      <point x="114" y="285" type="line"/>
      <point x="234" y="285" type="line"/>
      <point x="240" y="310" type="line"/>
      <point x="119" y="310" type="line"/>
      <point x="159" y="503" type="line"/>
      <point x="313" y="503" type="line"/>
      <point x="320" y="528" type="line"/>
      <point x="165" y="528" type="line"/>
      <point x="193" y="659" type="line"/>
      <point x="173" y="659" type="line"/>
      <point x="138" y="528" type="line"/>
      <point x="65" y="525" type="line"/>
      <point x="60" y="503" type="line"/>
      <point x="133" y="503" type="line"/>
      <point x="93" y="310" type="line"/>
      <point x="24" y="310" type="line"/>
      <point x="19" y="285" type="line"/>
      <point x="88" y="285" type="line"/>
      <point x="57" y="140" type="line" smooth="yes"/>
      <point x="52" y="118"/>
      <point x="49" y="98"/>
      <point x="49" y="80" type="curve" smooth="yes"/>
      <point x="49" y="23"/>
      <point x="76" y="-10"/>
    </contour>
  </outline>
</glyph>
<glyph name="longs" format="2">
  <advance width="251"/>
  <unicode hex="017F"/>
  <anchor x="-88" y="-240" name="bottom"/>
  <anchor x="325" y="765" name="top"/>
  <outline>
    <contour>
      <point x="-84" y="-240" type="curve" smooth="yes"/>
      <point x="-18" y="-240"/>
      <point x="19" y="-200"/>
      <point x="39" y="-106" type="curve" smooth="yes"/>
      <point x="193" y="618" type="line" smooth="yes"/>
      <point x="207" y="684"/>
      <point x="239" y="740"/>
      <point x="320" y="740" type="curve" smooth="yes"/>
      <point x="344" y="740"/>
      <point x="370" y="736"/>
      <point x="388" y="727" type="curve"/>
      <point x="396" y="752" type="line"/>
      <point x="386" y="756"/>
      <point x="359" y="765"/>
      <point x="321" y="765" type="curve" smooth="yes"/>
      <point x="242" y="765"/>
      <point x="188" y="717"/>
      <point x="168" y="622" type="curve" smooth="yes"/>
      <point x="14" y="-102" type="line" smooth="yes"/>
      <point x="-4" y="-185"/>
      <point x="-33" y="-215"/>
      <point x="-84" y="-215" type="curve" smooth="yes"/>
      <point x="-102" y="-215"/>
      <point x="-122" y="-210"/>
      <point x="-134" y="-204" type="curve"/>
      <point x="-134" y="-230" type="line"/>
      <point x="-124" y="-235"/>
      <point x="-102" y="-240"/>
    </contour>
  </outline>
</glyph>
<glyph name="Ohorn" format="2">
  <advance width="677"/>
  <unicode hex="01A0"/>
  <anchor x="306" y="0" name="bottom"/>
  <anchor x="417" y="714" name="top"/>
  <outline>
    <contour>
      <point x="317" y="-10" type="curve" smooth="yes"/>
      <point x="575" y="-10"/>
      <point x="647" y="295"/>
      <point x="647" y="451" type="curve" smooth="yes"/>
      <point x="647" y="501"/>
      <point x="641" y="544"/>
      <point x="628" y="580" type="curve"/>
      <point x="697" y="603"/>
      <point x="738" y="656"/>
      <point x="759" y="751" type="curve"/>
      <point x="755" y="760" type="line"/>
      <point x="732" y="760" type="line"/>
      <point x="715" y="669"/>
      <point x="676" y="617"/>
      <point x="619" y="603" type="curve"/>
      <point x="582" y="685"/>
      <point x="511" y="725"/>
      <point x="417" y="725" type="curve" smooth="yes"/>
      <point x="188" y="725"/>
      <point x="82" y="491"/>
      <point x="82" y="271" type="curve" smooth="yes"/>
      <point x="82" y="117"/>
      <point x="145" y="-10"/>
    </contour>
    <contour>
      <point x="318" y="15" type="curve" smooth="yes"/>
      <point x="171" y="15"/>
      <point x="109" y="121"/>
      <point x="109" y="272" type="curve" smooth="yes"/>
      <point x="109" y="446"/>
      <point x="189" y="700"/>
      <point x="415" y="700" type="curve" smooth="yes"/>
      <point x="554" y="700"/>
      <point x="620" y="604"/>
      <point x="620" y="450" type="curve" smooth="yes"/>
      <point x="620" y="293"/>
      <point x="543" y="15"/>
    </contour>
  </outline>
</glyph>
<glyph name="ohorn" format="2">
  <advance width="534"/>
  <unicode hex="01A1"/>
  <anchor x="214" y="0" name="bottom"/>
  <anchor x="325" y="528" name="top"/>
  <outline>
    <contour>
      <point x="225" y="-10" type="curve" smooth="yes"/>
      <point x="389" y="-10"/>
      <point x="488" y="151"/>
      <point x="488" y="341" type="curve" smooth="yes"/>
      <point x="488" y="363"/>
      <point x="485" y="385"/>
      <point x="481" y="405" type="curve"/>
      <point x="551" y="422"/>
      <point x="590" y="473"/>
      <point x="611" y="568" type="curve"/>
      <point x="607" y="577" type="line"/>
      <point x="584" y="577" type="line"/>
      <point x="567" y="481"/>
      <point x="530" y="439"/>
      <point x="473" y="429" type="curve"/>
      <point x="450" y="495"/>
      <point x="398" y="538"/>
      <point x="320" y="538" type="curve" smooth="yes"/>
      <point x="170" y="538"/>
      <point x="54" y="400"/>
      <point x="54" y="189" type="curve" smooth="yes"/>
      <point x="54" y="72"/>
      <point x="110" y="-10"/>
    </contour>
    <contour>
      <point x="228" y="15" type="curve" smooth="yes"/>
      <point x="130" y="15"/>
      <point x="81" y="83"/>
      <point x="81" y="189" type="curve" smooth="yes"/>
      <point x="81" y="386"/>
      <point x="184" y="513"/>
      <point x="318" y="513" type="curve" smooth="yes"/>
      <point x="414" y="513"/>
      <point x="461" y="441"/>
      <point x="461" y="342" type="curve" smooth="yes"/>
      <point x="461" y="162"/>
      <point x="373" y="15"/>
    </contour>
  </outline>
</glyph>
<glyph name="Uhorn" format="2">
  <advance width="690"/>
  <unicode hex="01AF"/>
  <anchor x="289" y="0" name="bottom"/>
  <anchor x="413" y="714" name="top"/>
  <outline>
    <contour>
      <point x="285" y="-10" type="curve" smooth="yes"/>
      <point x="426" y="-10"/>
      <point x="529" y="69"/>
      <point x="568" y="252" type="curve" smooth="yes"/>
      <point x="637" y="576" type="line"/>
      <point x="712" y="597"/>
      <point x="756" y="651"/>
      <point x="778" y="751" type="curve"/>
      <point x="775" y="760" type="line"/>
      <point x="751" y="760" type="line"/>
      <point x="734" y="671"/>
      <point x="697" y="620"/>
      <point x="643" y="604" type="curve"/>
      <point x="665" y="714" type="line"/>
      <point x="639" y="714" type="line"/>
      <point x="541" y="257" type="line" smooth="yes"/>
      <point x="506" y="94"/>
      <point x="414" y="15"/>
      <point x="286" y="15" type="curve" smooth="yes"/>
      <point x="180" y="15"/>
      <point x="113" y="73"/>
      <point x="113" y="183" type="curve" smooth="yes"/>
      <point x="113" y="205"/>
      <point x="116" y="230"/>
      <point x="122" y="256" type="curve" smooth="yes"/>
      <point x="219" y="714" type="line"/>
      <point x="191" y="714" type="line"/>
      <point x="94" y="254" type="line" smooth="yes"/>
      <point x="88" y="227"/>
      <point x="85" y="204"/>
      <point x="85" y="180" type="curve" smooth="yes"/>
      <point x="85" y="57"/>
      <point x="164" y="-10"/>
    </contour>
  </outline>
</glyph>
<glyph name="Aringacute" format="2">
  <advance width="519"/>
  <unicode hex="01FA"/>
  <anchor x="207" y="0" name="bottom"/>
  <anchor x="421" y="1006" name="top"/>
  <outline>
    <contour>
      <point x="317" y="631" type="curve"/>
      <point x="-48" y="0" type="line"/>
      <point x="-20" y="0" type="line"/>
      <point x="138" y="271" type="line"/>
      <point x="405" y="271" type="line"/>
      <point x="448" y="0" type="line"/>
      <point x="473" y="0" type="line"/>
      <point x="380" y="621" type="line"/>
      <point x="424" y="629"/>
      <point x="459" y="667"/>
      <point x="459" y="721" type="curve" smooth="yes"/>
      <point x="459" y="775"/>
      <point x="417" y="820"/>
      <point x="365" y="820" type="curve" smooth="yes"/>
      <point x="312" y="820"/>
      <point x="267" y="777"/>
      <point x="267" y="719" type="curve" smooth="yes"/>
      <point x="267" y="678"/>
      <point x="287" y="647"/>
    </contour>
    <contour>
      <point x="152" y="296" type="line"/>
      <point x="303" y="559" type="line" smooth="yes"/>
      <point x="317" y="583"/>
      <point x="330" y="607"/>
      <point x="339" y="623" type="curve"/>
      <point x="357" y="620" type="line"/>
      <point x="358" y="602"/>
      <point x="361" y="579"/>
      <point x="364" y="559" type="curve" smooth="yes"/>
      <point x="401" y="296" type="line"/>
    </contour>
    <contour>
      <point x="363" y="644" type="curve" smooth="yes"/>
      <point x="320" y="644"/>
      <point x="291" y="678"/>
      <point x="291" y="719" type="curve" smooth="yes"/>
      <point x="291" y="762"/>
      <point x="322" y="796"/>
      <point x="364" y="796" type="curve" smooth="yes"/>
      <point x="403" y="796"/>
      <point x="435" y="762"/>
      <point x="435" y="721" type="curve" smooth="yes"/>
      <point x="435" y="678"/>
      <point x="406" y="644"/>
    </contour>
    <contour>
      <point x="367" y="852" type="curve"/>
      <point x="367" y="846" type="line"/>
      <point x="388" y="846" type="line"/>
      <point x="438" y="890"/>
      <point x="497" y="954"/>
      <point x="530" y="999" type="curve"/>
      <point x="530" y="1006" type="line"/>
      <point x="500" y="1006" type="line"/>
      <point x="472" y="963"/>
      <point x="410" y="892"/>
    </contour>
  </outline>
</glyph>
<glyph name="aringacute" format="2">
  <advance width="520"/>
  <unicode hex="01FB"/>
  <anchor x="207" y="0" name="bottom"/>
  <anchor x="415" y="978" name="top"/>
  <outline>
    <contour>
      <point x="187" y="-10" type="curve" smooth="yes"/>
      <point x="276" y="-10"/>
      <point x="350" y="78"/>
      <point x="383" y="139" type="curve"/>
      <point x="385" y="139" type="line"/>
      <point x="358" y="0" type="line"/>
      <point x="380" y="0" type="line"/>
      <point x="492" y="528" type="line"/>
      <point x="470" y="528" type="line"/>
      <point x="443" y="407" type="line"/>
      <point x="441" y="407" type="line"/>
      <point x="432" y="465"/>
      <point x="397" y="538"/>
      <point x="308" y="538" type="curve" smooth="yes"/>
      <point x="139" y="538"/>
      <point x="50" y="338"/>
      <point x="50" y="175" type="curve" smooth="yes"/>
      <point x="50" y="64"/>
      <point x="97" y="-10"/>
    </contour>
    <contour>
      <point x="190" y="15" type="curve" smooth="yes"/>
      <point x="114" y="15"/>
      <point x="77" y="77"/>
      <point x="77" y="175" type="curve" smooth="yes"/>
      <point x="77" y="333"/>
      <point x="159" y="513"/>
      <point x="307" y="513" type="curve" smooth="yes"/>
      <point x="379" y="513"/>
      <point x="423" y="458"/>
      <point x="423" y="361" type="curve" smooth="yes"/>
      <point x="423" y="334"/>
      <point x="419" y="306"/>
      <point x="411" y="264" type="curve" smooth="yes"/>
      <point x="384" y="123"/>
      <point x="276" y="15"/>
    </contour>
    <contour>
      <point x="346" y="580" type="curve" smooth="yes"/>
      <point x="399" y="580"/>
      <point x="442" y="621"/>
      <point x="442" y="681" type="curve" smooth="yes"/>
      <point x="442" y="735"/>
      <point x="400" y="780"/>
      <point x="348" y="780" type="curve" smooth="yes"/>
      <point x="295" y="780"/>
      <point x="251" y="737"/>
      <point x="251" y="679" type="curve" smooth="yes"/>
      <point x="251" y="620"/>
      <point x="295" y="580"/>
    </contour>
    <contour>
      <point x="346" y="604" type="curve" smooth="yes"/>
      <point x="304" y="604"/>
      <point x="274" y="638"/>
      <point x="274" y="679" type="curve" smooth="yes"/>
      <point x="274" y="722"/>
      <point x="306" y="756"/>
      <point x="348" y="756" type="curve" smooth="yes"/>
      <point x="386" y="756"/>
      <point x="419" y="722"/>
      <point x="419" y="681" type="curve" smooth="yes"/>
      <point x="419" y="638"/>
      <point x="389" y="604"/>
    </contour>
    <contour>
      <point x="336" y="824" type="curve"/>
      <point x="336" y="818" type="line"/>
      <point x="357" y="818" type="line"/>
      <point x="407" y="862"/>
      <point x="465" y="926"/>
      <point x="499" y="971" type="curve"/>
      <point x="499" y="978" type="line"/>
      <point x="469" y="978" type="line"/>
      <point x="441" y="935"/>
      <point x="379" y="864"/>
    </contour>
  </outline>
</glyph>
<glyph name="jdotless" format="2">
  <advance width="198"/>
  <unicode hex="0237"/>
  <anchor x="-5" y="-240" name="bottom"/>
  <anchor x="158" y="528" name="top"/>
  <outline>
    <contour>
      <point x="-84" y="-240" type="curve" smooth="yes"/>
      <point x="-21" y="-240"/>
      <point x="15" y="-201"/>
      <point x="32" y="-119" type="curve" smooth="yes"/>
      <point x="169" y="528" type="line"/>
      <point x="143" y="528" type="line"/>
      <point x="7" y="-115" type="line" smooth="yes"/>
      <point x="-6" y="-178"/>
      <point x="-32" y="-215"/>
      <point x="-84" y="-215" type="curve" smooth="yes"/>
      <point x="-99" y="-215"/>
      <point x="-122" y="-212"/>
      <point x="-137" y="-204" type="curve"/>
      <point x="-137" y="-230" type="line"/>
      <point x="-125" y="-235"/>
      <point x="-101" y="-240"/>
    </contour>
  </outline>
</glyph>
<glyph name="Astroke" format="2">
  <advance width="520"/>
  <unicode hex="023A"/>
  <anchor x="187" y="-75" name="bottom"/>
  <anchor x="372" y="760" name="top"/>
  <outline>
    <contour>
      <point x="76" y="-75" type="line"/>
      <point x="100" y="-75" type="line"/>
      <point x="540" y="760" type="line"/>
      <point x="517" y="760" type="line"/>
    </contour>
    <component base="A" xOffset="-5"/>
  </outline>
</glyph>
<glyph name="Cstroke" format="2">
  <advance width="564"/>
  <unicode hex="023B"/>
  <anchor x="259" y="-75" name="bottom"/>
  <anchor x="447" y="760" name="top"/>
  <outline>
    <contour>
      <point x="131" y="-75" type="line"/>
      <point x="155" y="-75" type="line"/>
      <point x="595" y="760" type="line"/>
      <point x="572" y="760" type="line"/>
    </contour>
    <component base="C" xOffset="5"/>
  </outline>
</glyph>
<glyph name="Tdiagonalstroke" format="2">
  <advance width="461"/>
  <unicode hex="023E"/>
  <anchor x="169" y="-42" name="bottom"/>
  <anchor x="347" y="793" name="top"/>
  <outline>
    <contour>
      <point x="-41" y="-42" type="line"/>
      <point x="-13" y="-42" type="line"/>
      <point x="521" y="793" type="line"/>
      <point x="495" y="793" type="line"/>
    </contour>
    <component base="T"/>
  </outline>
</glyph>
<glyph name="Estroke" format="2">
  <advance width="507"/>
  <unicode hex="0246"/>
  <anchor x="184" y="-75" name="bottom"/>
  <anchor x="381" y="760" name="top"/>
  <outline>
    <contour>
      <point x="113" y="-75" type="line"/>
      <point x="134" y="-75" type="line"/>
      <point x="508" y="760" type="line"/>
      <point x="487" y="760" type="line"/>
    </contour>
    <component base="E" xOffset="-2"/>
  </outline>
</glyph>
<glyph name="schwahook" format="2">
  <advance width="656"/>
  <unicode hex="025A"/>
  <anchor x="163" y="-10" name="bottom"/>
  <anchor x="251" y="538" name="top"/>
  <outline>
    <contour>
      <point x="163" y="-10" type="curve" smooth="yes"/>
      <point x="303" y="-10"/>
      <point x="414" y="131"/>
      <point x="424" y="315" type="curve"/>
      <point x="476" y="328" type="line"/>
      <point x="476" y="233"/>
      <point x="493" y="190"/>
      <point x="562" y="190" type="curve" smooth="yes"/>
      <point x="588" y="190"/>
      <point x="607" y="194"/>
      <point x="638" y="203" type="curve"/>
      <point x="644" y="230" type="line"/>
      <point x="611" y="219"/>
      <point x="591" y="214"/>
      <point x="570" y="214" type="curve" smooth="yes"/>
      <point x="511" y="214"/>
      <point x="504" y="253"/>
      <point x="504" y="324" type="curve" smooth="yes"/>
      <point x="504" y="361" type="line"/>
      <point x="424" y="341" type="line"/>
      <point x="423" y="482"/>
      <point x="340" y="538"/>
      <point x="251" y="538" type="curve" smooth="yes"/>
      <point x="199" y="538"/>
      <point x="146" y="522"/>
      <point x="118" y="506" type="curve"/>
      <point x="117" y="480" type="line"/>
      <point x="148" y="494"/>
      <point x="192" y="513"/>
      <point x="246" y="513" type="curve" smooth="yes"/>
      <point x="340" y="513"/>
      <point x="398" y="450"/>
      <point x="398" y="334" type="curve"/>
      <point x="365" y="326" type="line" smooth="yes"/>
      <point x="112" y="265"/>
      <point x="45" y="203"/>
      <point x="45" y="103" type="curve" smooth="yes"/>
      <point x="45" y="36"/>
      <point x="93" y="-10"/>
    </contour>
    <contour>
      <point x="167" y="15" type="curve" smooth="yes"/>
      <point x="104" y="15"/>
      <point x="72" y="53"/>
      <point x="72" y="104" type="curve" smooth="yes"/>
      <point x="72" y="188"/>
      <point x="138" y="244"/>
      <point x="365" y="301" type="curve" smooth="yes"/>
      <point x="397" y="309" type="line"/>
      <point x="395" y="173"/>
      <point x="297" y="15"/>
    </contour>
  </outline>
</glyph>
<glyph name="rfishhookreversed" format="2">
  <advance width="279"/>
  <unicode hex="027F"/>
  <anchor x="36" y="-240" name="bottom"/>
  <anchor x="199" y="528" name="top"/>
  <outline>
    <contour>
      <point x="179" y="333" type="curve" smooth="yes"/>
      <point x="56" y="-240" type="line"/>
      <point x="82" y="-240" type="line"/>
      <point x="205" y="333" type="line" smooth="yes"/>
      <point x="213" y="373"/>
      <point x="219" y="409"/>
      <point x="219" y="441" type="curve" smooth="yes"/>
      <point x="219" y="503"/>
      <point x="186" y="538"/>
      <point x="130" y="538" type="curve" smooth="yes"/>
      <point x="106" y="538"/>
      <point x="83" y="532"/>
      <point x="67" y="526" type="curve"/>
      <point x="67" y="501" type="line"/>
      <point x="81" y="507"/>
      <point x="104" y="513"/>
      <point x="130" y="513" type="curve" smooth="yes"/>
      <point x="166" y="513"/>
      <point x="193" y="491"/>
      <point x="193" y="438" type="curve" smooth="yes"/>
      <point x="193" y="408"/>
      <point x="187" y="371"/>
    </contour>
  </outline>
</glyph>
<glyph name="eshsquatreversed" format="2">
  <advance width="250"/>
  <unicode hex="0285"/>
  <anchor x="21" y="-240" name="bottom"/>
  <anchor x="184" y="528" name="top"/>
  <outline>
    <contour>
      <point x="128" y="-240" type="curve" smooth="yes"/>
      <point x="157" y="-240"/>
      <point x="181" y="-234"/>
      <point x="197" y="-228" type="curve"/>
      <point x="197" y="-203" type="line"/>
      <point x="179" y="-209"/>
      <point x="158" y="-215"/>
      <point x="131" y="-215" type="curve" smooth="yes"/>
      <point x="84" y="-215"/>
      <point x="64" y="-186"/>
      <point x="64" y="-139" type="curve" smooth="yes"/>
      <point x="64" y="-106"/>
      <point x="69" y="-71"/>
      <point x="79" y="-27" type="curve" smooth="yes"/>
      <point x="153" y="320" type="line" smooth="yes"/>
      <point x="162" y="362"/>
      <point x="171" y="401"/>
      <point x="171" y="438" type="curve" smooth="yes"/>
      <point x="171" y="486"/>
      <point x="151" y="538"/>
      <point x="81" y="538" type="curve" smooth="yes"/>
      <point x="49" y="538"/>
      <point x="28" y="532"/>
      <point x="13" y="528" type="curve"/>
      <point x="13" y="502" type="line"/>
      <point x="31" y="508"/>
      <point x="51" y="513"/>
      <point x="77" y="513" type="curve" smooth="yes"/>
      <point x="125" y="513"/>
      <point x="144" y="483"/>
      <point x="144" y="436" type="curve" smooth="yes"/>
      <point x="144" y="399"/>
      <point x="136" y="362"/>
      <point x="127" y="320" type="curve" smooth="yes"/>
      <point x="53" y="-27" type="line" smooth="yes"/>
      <point x="43" y="-71"/>
      <point x="37" y="-108"/>
      <point x="37" y="-142" type="curve" smooth="yes"/>
      <point x="37" y="-188"/>
      <point x="58" y="-240"/>
    </contour>
  </outline>
</glyph>
<glyph name="eshcurl" format="2">
  <advance width="227"/>
  <unicode hex="0286"/>
  <anchor x="9" y="-240" name="bottom"/>
  <anchor x="222" y="765" name="top"/>
  <outline>
    <contour>
      <point x="-70" y="-240" type="curve" smooth="yes"/>
      <point x="8" y="-240"/>
      <point x="28" y="-181"/>
      <point x="52" y="-69" type="curve"/>
      <point x="114" y="-69" type="line"/>
      <point x="119" y="-44" type="line"/>
      <point x="56" y="-44" type="line"/>
      <point x="199" y="629" type="line" smooth="yes"/>
      <point x="215" y="704"/>
      <point x="251" y="740"/>
      <point x="308" y="740" type="curve" smooth="yes"/>
      <point x="334" y="740"/>
      <point x="354" y="736"/>
      <point x="374" y="727" type="curve"/>
      <point x="375" y="754" type="line"/>
      <point x="360" y="760"/>
      <point x="340" y="765"/>
      <point x="309" y="765" type="curve" smooth="yes"/>
      <point x="235" y="765"/>
      <point x="191" y="713"/>
      <point x="174" y="633" type="curve" smooth="yes"/>
      <point x="30" y="-44" type="line"/>
      <point x="-19" y="-44" type="line" smooth="yes"/>
      <point x="-110" y="-44"/>
      <point x="-146" y="-97"/>
      <point x="-146" y="-158" type="curve" smooth="yes"/>
      <point x="-146" y="-210"/>
      <point x="-115" y="-240"/>
    </contour>
    <contour>
      <point x="-67" y="-215" type="curve" smooth="yes"/>
      <point x="-100" y="-215"/>
      <point x="-119" y="-191"/>
      <point x="-119" y="-156" type="curve" smooth="yes"/>
      <point x="-119" y="-108"/>
      <point x="-96" y="-69"/>
      <point x="-18" y="-69" type="curve" smooth="yes"/>
      <point x="26" y="-69" type="line"/>
      <point x="4" y="-174"/>
      <point x="-13" y="-215"/>
    </contour>
  </outline>
</glyph>
<glyph name="ezhcurl" format="2">
  <advance width="362"/>
  <unicode hex="0293"/>
  <anchor x="77" y="-240" name="bottom"/>
  <anchor x="240" y="528" name="top"/>
  <outline>
    <contour>
      <point x="51" y="-240" type="curve" smooth="yes"/>
      <point x="144" y="-240"/>
      <point x="194" y="-204"/>
      <point x="229" y="-167" type="curve"/>
      <point x="242" y="-186"/>
      <point x="256" y="-214"/>
      <point x="266" y="-240" type="curve"/>
      <point x="289" y="-230" type="line"/>
      <point x="277" y="-197"/>
      <point x="263" y="-169"/>
      <point x="246" y="-147" type="curve"/>
      <point x="282" y="-95"/>
      <point x="295" y="-31"/>
      <point x="295" y="26" type="curve" smooth="yes"/>
      <point x="295" y="169"/>
      <point x="204" y="213"/>
      <point x="105" y="214" type="curve"/>
      <point x="384" y="503" type="line"/>
      <point x="390" y="528" type="line"/>
      <point x="78" y="528" type="line"/>
      <point x="73" y="503" type="line"/>
      <point x="348" y="503" type="line"/>
      <point x="70" y="212" type="line"/>
      <point x="65" y="189" type="line"/>
      <point x="101" y="189" type="line" smooth="yes"/>
      <point x="191" y="189"/>
      <point x="268" y="149"/>
      <point x="268" y="25" type="curve" smooth="yes"/>
      <point x="268" y="-24"/>
      <point x="257" y="-80"/>
      <point x="228" y="-125" type="curve"/>
      <point x="184" y="-78"/>
      <point x="128" y="-57"/>
      <point x="59" y="-57" type="curve" smooth="yes"/>
      <point x="-28" y="-57"/>
      <point x="-71" y="-97"/>
      <point x="-71" y="-155" type="curve" smooth="yes"/>
      <point x="-71" y="-208"/>
      <point x="-29" y="-240"/>
    </contour>
    <contour>
      <point x="56" y="-214" type="curve" smooth="yes"/>
      <point x="-17" y="-214"/>
      <point x="-44" y="-188"/>
      <point x="-44" y="-153" type="curve" smooth="yes"/>
      <point x="-44" y="-112"/>
      <point x="-17" y="-82"/>
      <point x="59" y="-82" type="curve" smooth="yes"/>
      <point x="132" y="-82"/>
      <point x="179" y="-106"/>
      <point x="212" y="-146" type="curve"/>
      <point x="183" y="-181"/>
      <point x="138" y="-214"/>
    </contour>
  </outline>
</glyph>
<glyph name="cstretched" format="2">
  <advance width="394"/>
  <unicode hex="0297"/>
  <anchor x="183" y="-239" name="bottom"/>
  <anchor x="326" y="528" name="top"/>
  <outline>
    <contour>
      <point x="187" y="-239" type="curve" smooth="yes"/>
      <point x="241" y="-239"/>
      <point x="273" y="-226"/>
      <point x="299" y="-213" type="curve"/>
      <point x="299" y="-186" type="line"/>
      <point x="270" y="-202"/>
      <point x="241" y="-214"/>
      <point x="190" y="-214" type="curve" smooth="yes"/>
      <point x="111" y="-214"/>
      <point x="55" y="-162"/>
      <point x="55" y="7" type="curve" smooth="yes"/>
      <point x="55" y="251"/>
      <point x="143" y="515"/>
      <point x="330" y="515" type="curve" smooth="yes"/>
      <point x="369" y="515"/>
      <point x="399" y="506"/>
      <point x="426" y="485" type="curve"/>
      <point x="439" y="509" type="line"/>
      <point x="413" y="528"/>
      <point x="380" y="540"/>
      <point x="331" y="540" type="curve" smooth="yes"/>
      <point x="120" y="540"/>
      <point x="28" y="261"/>
      <point x="28" y="7" type="curve" smooth="yes"/>
      <point x="28" y="-178"/>
      <point x="93" y="-239"/>
    </contour>
  </outline>
</glyph>
<glyph name="eopenclosed" format="2">
  <advance width="479"/>
  <unicode hex="029A"/>
  <anchor x="187" y="0" name="bottom"/>
  <anchor x="299" y="528" name="top"/>
  <outline>
    <contour>
      <point x="183" y="-10" type="curve" smooth="yes"/>
      <point x="383" y="-10"/>
      <point x="436" y="186"/>
      <point x="436" y="335" type="curve" smooth="yes"/>
      <point x="436" y="474"/>
      <point x="371" y="537"/>
      <point x="271" y="537" type="curve" smooth="yes"/>
      <point x="156" y="537"/>
      <point x="107" y="463"/>
      <point x="107" y="386" type="curve" smooth="yes"/>
      <point x="107" y="324"/>
      <point x="142" y="297"/>
      <point x="179" y="286" type="curve"/>
      <point x="179" y="284" type="line"/>
      <point x="111" y="270"/>
      <point x="45" y="225"/>
      <point x="45" y="124" type="curve" smooth="yes"/>
      <point x="45" y="43"/>
      <point x="95" y="-10"/>
    </contour>
    <contour>
      <point x="185" y="15" type="curve" smooth="yes"/>
      <point x="112" y="15"/>
      <point x="72" y="55"/>
      <point x="72" y="126" type="curve" smooth="yes"/>
      <point x="72" y="242"/>
      <point x="163" y="270"/>
      <point x="262" y="270" type="curve" smooth="yes"/>
      <point x="287" y="270" type="line"/>
      <point x="292" y="295" type="line"/>
      <point x="261" y="295" type="line" smooth="yes"/>
      <point x="184" y="295"/>
      <point x="134" y="318"/>
      <point x="134" y="389" type="curve" smooth="yes"/>
      <point x="134" y="454"/>
      <point x="177" y="512"/>
      <point x="269" y="512" type="curve" smooth="yes"/>
      <point x="352" y="512"/>
      <point x="409" y="459"/>
      <point x="409" y="335" type="curve" smooth="yes"/>
      <point x="409" y="196"/>
      <point x="364" y="15"/>
    </contour>
  </outline>
</glyph>
<glyph name="kturned" format="2">
  <advance width="423"/>
  <unicode hex="029E"/>
  <anchor x="107" y="-232" name="bottom"/>
  <anchor x="268.115" y="528" name="top"/>
  <anchor x="408" y="528" name="topright"/>
  <outline>
    <contour>
      <point x="300" y="144" type="curve" smooth="yes"/>
      <point x="220" y="-232" type="line"/>
      <point x="246" y="-232" type="line"/>
      <point x="408" y="528" type="line"/>
      <point x="381" y="528" type="line"/>
      <point x="345" y="356" type="line"/>
      <point x="232" y="247" type="line"/>
      <point x="101" y="528" type="line"/>
      <point x="72" y="528" type="line"/>
      <point x="213" y="230" type="line"/>
      <point x="-22" y="0" type="line"/>
      <point x="11" y="0" type="line"/>
      <point x="340" y="324" type="line"/>
      <point x="341" y="324" type="line"/>
      <point x="325" y="261"/>
      <point x="314" y="210"/>
    </contour>
  </outline>
</glyph>
<glyph name="qhook" format="2">
  <advance width="531"/>
  <unicode hex="02A0"/>
  <anchor x="161" y="-240" name="bottom"/>
  <anchor x="375" y="770" name="top"/>
  <outline>
    <contour>
      <point x="376" y="17" type="curve" smooth="yes"/>
      <point x="321" y="-240" type="line"/>
      <point x="347" y="-240" type="line"/>
      <point x="540" y="673" type="line" smooth="yes"/>
      <point x="549" y="715"/>
      <point x="562" y="745"/>
      <point x="603" y="745" type="curve" smooth="yes"/>
      <point x="624" y="745"/>
      <point x="640" y="737"/>
      <point x="650" y="729" type="curve"/>
      <point x="655" y="755" type="line"/>
      <point x="645" y="762"/>
      <point x="629" y="770"/>
      <point x="605" y="770" type="curve" smooth="yes"/>
      <point x="550" y="770"/>
      <point x="527" y="734"/>
      <point x="515" y="676" type="curve" smooth="yes"/>
      <point x="487" y="543" type="line" smooth="yes"/>
      <point x="478" y="501"/>
      <point x="468" y="452"/>
      <point x="461" y="407" type="curve"/>
      <point x="459" y="407" type="line"/>
      <point x="451" y="468"/>
      <point x="408" y="538"/>
      <point x="313" y="538" type="curve" smooth="yes"/>
      <point x="136" y="538"/>
      <point x="50" y="337"/>
      <point x="50" y="174" type="curve" smooth="yes"/>
      <point x="50" y="64"/>
      <point x="94" y="-10"/>
      <point x="190" y="-10" type="curve" smooth="yes"/>
      <point x="287" y="-10"/>
      <point x="364" y="73"/>
      <point x="403" y="143" type="curve"/>
      <point x="405" y="143" type="line"/>
      <point x="395" y="104"/>
      <point x="384" y="54"/>
    </contour>
    <contour>
      <point x="193" y="15" type="curve" smooth="yes"/>
      <point x="115" y="15"/>
      <point x="77" y="74"/>
      <point x="77" y="174" type="curve" smooth="yes"/>
      <point x="77" y="332"/>
      <point x="156" y="513"/>
      <point x="312" y="513" type="curve" smooth="yes"/>
      <point x="389" y="513"/>
      <point x="442" y="463"/>
      <point x="442" y="361" type="curve" smooth="yes"/>
      <point x="442" y="175"/>
      <point x="314" y="15"/>
    </contour>
  </outline>
</glyph>
<glyph name="circumflex" format="2">
  <advance width="310"/>
  <unicode hex="02C6"/>
  <outline>
    <contour>
      <point x="114" y="612" type="curve"/>
      <point x="113" y="606" type="line"/>
      <point x="136" y="606" type="line"/>
      <point x="176" y="643"/>
      <point x="222" y="693"/>
      <point x="256" y="731" type="curve"/>
      <point x="272" y="693"/>
      <point x="298" y="643"/>
      <point x="324" y="606" type="curve"/>
      <point x="342" y="606" type="line"/>
      <point x="344" y="612" type="line"/>
      <point x="317" y="653"/>
      <point x="285" y="722"/>
      <point x="272" y="763" type="curve"/>
      <point x="250" y="763" type="line"/>
      <point x="219" y="721"/>
      <point x="155" y="653"/>
    </contour>
  </outline>
</glyph>
<glyph name="caron" format="2">
  <advance width="310"/>
  <unicode hex="02C7"/>
  <outline>
    <contour>
      <point x="217" y="606" type="curve"/>
      <point x="239" y="606" type="line"/>
      <point x="270" y="648"/>
      <point x="333" y="716"/>
      <point x="375" y="757" type="curve"/>
      <point x="376" y="763" type="line"/>
      <point x="353" y="763" type="line"/>
      <point x="313" y="726"/>
      <point x="267" y="676"/>
      <point x="233" y="638" type="curve"/>
      <point x="216" y="676"/>
      <point x="191" y="726"/>
      <point x="165" y="763" type="curve"/>
      <point x="147" y="763" type="line"/>
      <point x="145" y="757" type="line"/>
      <point x="171" y="716"/>
      <point x="204" y="647"/>
    </contour>
  </outline>
</glyph>
<glyph name="breve" format="2">
  <advance width="304"/>
  <unicode hex="02D8"/>
  <outline>
    <contour>
      <point x="231" y="606" type="curve" smooth="yes"/>
      <point x="298" y="606"/>
      <point x="340" y="645"/>
      <point x="361" y="718" type="curve"/>
      <point x="335" y="718" type="line"/>
      <point x="319" y="665"/>
      <point x="289" y="631"/>
      <point x="232" y="631" type="curve" smooth="yes"/>
      <point x="170" y="631"/>
      <point x="155" y="676"/>
      <point x="162" y="718" type="curve"/>
      <point x="137" y="718" type="line"/>
      <point x="136" y="714"/>
      <point x="135" y="705"/>
      <point x="135" y="697" type="curve" smooth="yes"/>
      <point x="135" y="639"/>
      <point x="174" y="606"/>
    </contour>
  </outline>
</glyph>
<glyph name="dotaccent" format="2">
  <advance width="130"/>
  <unicode hex="02D9"/>
  <outline>
    <contour>
      <point x="153" y="659" type="curve" smooth="yes"/>
      <point x="171" y="659"/>
      <point x="181" y="681"/>
      <point x="181" y="699" type="curve" smooth="yes"/>
      <point x="181" y="710"/>
      <point x="175" y="721"/>
      <point x="160" y="721" type="curve" smooth="yes"/>
      <point x="140" y="721"/>
      <point x="130" y="699"/>
      <point x="130" y="681" type="curve" smooth="yes"/>
      <point x="130" y="667"/>
      <point x="139" y="659"/>
    </contour>
  </outline>
</glyph>
<glyph name="ring" format="2">
  <advance width="275"/>
  <unicode hex="02DA"/>
  <outline>
    <contour>
      <point x="232" y="611" type="curve" smooth="yes"/>
      <point x="285" y="611"/>
      <point x="328" y="652"/>
      <point x="328" y="712" type="curve" smooth="yes"/>
      <point x="328" y="766"/>
      <point x="286" y="811"/>
      <point x="234" y="811" type="curve" smooth="yes"/>
      <point x="181" y="811"/>
      <point x="137" y="768"/>
      <point x="137" y="710" type="curve" smooth="yes"/>
      <point x="137" y="651"/>
      <point x="181" y="611"/>
    </contour>
    <contour>
      <point x="232" y="635" type="curve" smooth="yes"/>
      <point x="190" y="635"/>
      <point x="160" y="669"/>
      <point x="160" y="710" type="curve" smooth="yes"/>
      <point x="160" y="753"/>
      <point x="192" y="787"/>
      <point x="234" y="787" type="curve" smooth="yes"/>
      <point x="272" y="787"/>
      <point x="305" y="753"/>
      <point x="305" y="712" type="curve" smooth="yes"/>
      <point x="305" y="669"/>
      <point x="275" y="635"/>
    </contour>
  </outline>
</glyph>
<glyph name="ogonek" format="2">
  <advance width="207"/>
  <unicode hex="02DB"/>
  <outline>
    <contour>
      <point x="20" y="-217" type="curve" smooth="yes"/>
      <point x="39" y="-217"/>
      <point x="55" y="-213"/>
      <point x="66" y="-209" type="curve"/>
      <point x="66" y="-185" type="line"/>
      <point x="55" y="-189"/>
      <point x="41" y="-192"/>
      <point x="24" y="-192" type="curve" smooth="yes"/>
      <point x="-4" y="-192"/>
      <point x="-19" y="-176"/>
      <point x="-19" y="-148" type="curve" smooth="yes"/>
      <point x="-19" y="-82"/>
      <point x="48" y="-33"/>
      <point x="93" y="0" type="curve"/>
      <point x="62" y="0" type="line"/>
      <point x="12" y="-35"/>
      <point x="-45" y="-80"/>
      <point x="-45" y="-150" type="curve" smooth="yes"/>
      <point x="-45" y="-192"/>
      <point x="-18" y="-217"/>
    </contour>
  </outline>
</glyph>
<glyph name="tilde" format="2">
  <advance width="379"/>
  <unicode hex="02DC"/>
  <outline>
    <contour>
      <point x="115" y="618" type="curve"/>
      <point x="140" y="618" type="line"/>
      <point x="158" y="678"/>
      <point x="182" y="691"/>
      <point x="207" y="691" type="curve" smooth="yes"/>
      <point x="255" y="691"/>
      <point x="283" y="617"/>
      <point x="338" y="617" type="curve" smooth="yes"/>
      <point x="390" y="617"/>
      <point x="417" y="653"/>
      <point x="435" y="716" type="curve"/>
      <point x="409" y="716" type="line"/>
      <point x="390" y="655"/>
      <point x="366" y="642"/>
      <point x="339" y="642" type="curve" smooth="yes"/>
      <point x="297" y="642"/>
      <point x="269" y="716"/>
      <point x="209" y="716" type="curve" smooth="yes"/>
      <point x="159" y="716"/>
      <point x="132" y="683"/>
    </contour>
  </outline>
</glyph>
<glyph name="hungarumlaut" format="2">
  <advance width="365"/>
  <unicode hex="02DD"/>
  <outline>
    <contour>
      <point x="266" y="612" type="curve"/>
      <point x="266" y="606" type="line"/>
      <point x="288" y="606" type="line"/>
      <point x="338" y="650"/>
      <point x="396" y="714"/>
      <point x="430" y="759" type="curve"/>
      <point x="430" y="766" type="line"/>
      <point x="400" y="766" type="line"/>
      <point x="372" y="723"/>
      <point x="309" y="652"/>
    </contour>
    <contour>
      <point x="114" y="612" type="curve"/>
      <point x="114" y="606" type="line"/>
      <point x="135" y="606" type="line"/>
      <point x="186" y="650"/>
      <point x="244" y="714"/>
      <point x="278" y="759" type="curve"/>
      <point x="278" y="766" type="line"/>
      <point x="248" y="766" type="line"/>
      <point x="220" y="723"/>
      <point x="157" y="652"/>
    </contour>
  </outline>
</glyph>
<glyph name="rhotichookmod" format="2">
  <advance width="193"/>
  <unicode hex="02DE"/>
  <outline>
    <contour>
      <point x="102" y="205" type="curve" smooth="yes"/>
      <point x="128" y="205"/>
      <point x="147" y="209"/>
      <point x="178" y="218" type="curve"/>
      <point x="184" y="245" type="line"/>
      <point x="151" y="234"/>
      <point x="131" y="229"/>
      <point x="110" y="229" type="curve" smooth="yes"/>
      <point x="51" y="229"/>
      <point x="44" y="268"/>
      <point x="44" y="339" type="curve" smooth="yes"/>
      <point x="44" y="376" type="line"/>
      <point x="-74" y="342" type="line"/>
      <point x="-79" y="314" type="line"/>
      <point x="16" y="341" type="line"/>
      <point x="16" y="248"/>
      <point x="33" y="205"/>
    </contour>
  </outline>
</glyph>
<glyph name="dblverticallineabovecomb" format="2">
  <unicode hex="030E"/>
  <anchor x="58" y="528" name="_top"/>
  <anchor x="107" y="762" name="top"/>
  <outline>
    <contour>
      <point x="123" y="596" type="line"/>
      <point x="149" y="596" type="line"/>
      <point x="185" y="762" type="line"/>
      <point x="159" y="762" type="line"/>
    </contour>
    <contour>
      <point x="-4" y="596" type="line"/>
      <point x="22" y="596" type="line"/>
      <point x="58" y="762" type="line"/>
      <point x="32" y="762" type="line"/>
    </contour>
  </outline>
</glyph>
<glyph name="dblgravecomb" format="2">
  <unicode hex="030F"/>
  <anchor x="-229" y="528" name="_top"/>
  <anchor x="-218" y="766" name="top"/>
  <outline>
    <contour>
      <point x="-114" y="606" type="curve"/>
      <point x="-94" y="606" type="line"/>
      <point x="-94" y="612" type="line"/>
      <point x="-127" y="651"/>
      <point x="-174" y="721"/>
      <point x="-195" y="766" type="curve"/>
      <point x="-225" y="766" type="line"/>
      <point x="-225" y="759" type="line"/>
      <point x="-198" y="712"/>
      <point x="-154" y="650"/>
    </contour>
    <contour>
      <point x="-267" y="606" type="curve"/>
      <point x="-246" y="606" type="line"/>
      <point x="-246" y="612" type="line"/>
      <point x="-280" y="651"/>
      <point x="-326" y="721"/>
      <point x="-347" y="766" type="curve"/>
      <point x="-377" y="766" type="line"/>
      <point x="-377" y="759" type="line"/>
      <point x="-350" y="712"/>
      <point x="-306" y="650"/>
    </contour>
  </outline>
</glyph>
<glyph name="candraBinducomb" format="2">
  <unicode hex="0310"/>
  <anchor x="61" y="528" name="_top"/>
  <anchor x="114" y="775" name="top"/>
  <outline>
    <contour>
      <point x="80" y="606" type="curve" smooth="yes"/>
      <point x="147" y="606"/>
      <point x="189" y="645"/>
      <point x="210" y="718" type="curve"/>
      <point x="184" y="718" type="line"/>
      <point x="168" y="665"/>
      <point x="138" y="631"/>
      <point x="81" y="631" type="curve" smooth="yes"/>
      <point x="19" y="631"/>
      <point x="4" y="676"/>
      <point x="11" y="718" type="curve"/>
      <point x="-14" y="718" type="line"/>
      <point x="-15" y="714"/>
      <point x="-16" y="705"/>
      <point x="-16" y="697" type="curve" smooth="yes"/>
      <point x="-16" y="639"/>
      <point x="23" y="606"/>
    </contour>
    <contour>
      <point x="97" y="713" type="curve" smooth="yes"/>
      <point x="115" y="713"/>
      <point x="125" y="735"/>
      <point x="125" y="753" type="curve" smooth="yes"/>
      <point x="125" y="764"/>
      <point x="120" y="775"/>
      <point x="104" y="775" type="curve" smooth="yes"/>
      <point x="85" y="775"/>
      <point x="75" y="753"/>
      <point x="75" y="735" type="curve" smooth="yes"/>
      <point x="75" y="721"/>
      <point x="83" y="713"/>
    </contour>
  </outline>
</glyph>
<glyph name="breveinvertedcomb" format="2">
  <unicode hex="0311"/>
  <anchor x="68" y="528" name="_top"/>
  <anchor x="87" y="719" name="top"/>
  <outline>
    <contour>
      <point x="-38" y="607" type="curve"/>
      <point x="-13" y="607" type="line"/>
      <point x="4" y="660"/>
      <point x="34" y="694"/>
      <point x="91" y="694" type="curve" smooth="yes"/>
      <point x="152" y="694"/>
      <point x="167" y="649"/>
      <point x="160" y="607" type="curve"/>
      <point x="185" y="607" type="line"/>
      <point x="186" y="611"/>
      <point x="188" y="620"/>
      <point x="188" y="628" type="curve" smooth="yes"/>
      <point x="188" y="686"/>
      <point x="149" y="719"/>
      <point x="91" y="719" type="curve" smooth="yes"/>
      <point x="24" y="719"/>
      <point x="-17" y="680"/>
    </contour>
  </outline>
</glyph>
<glyph name="lefttackbelowcomb" format="2">
  <unicode hex="0318"/>
  <anchor x="-44" y="6" name="_bottom"/>
  <anchor x="-87" y="-195" name="bottom"/>
  <outline>
    <contour>
      <point x="-64" y="-195" type="line"/>
      <point x="-38" y="-195" type="line"/>
      <point x="-6" y="-44" type="line"/>
      <point x="-32" y="-44" type="line"/>
      <point x="-45" y="-103" type="line"/>
      <point x="-130" y="-103" type="line"/>
      <point x="-135" y="-128" type="line"/>
      <point x="-50" y="-128" type="line"/>
    </contour>
  </outline>
</glyph>
<glyph name="righttackbelowcomb" format="2">
  <unicode hex="0319"/>
  <anchor x="-52" y="7" name="_bottom"/>
  <anchor x="-94" y="-194" name="bottom"/>
  <outline>
    <contour>
      <point x="-143" y="-194" type="line"/>
      <point x="-117" y="-194" type="line"/>
      <point x="-104" y="-135" type="line"/>
      <point x="-19" y="-135" type="line"/>
      <point x="-14" y="-110" type="line"/>
      <point x="-99" y="-110" type="line"/>
      <point x="-85" y="-43" type="line"/>
      <point x="-111" y="-43" type="line"/>
    </contour>
  </outline>
</glyph>
<glyph name="leftangleabovecomb" format="2">
  <unicode hex="031A"/>
  <anchor x="230" y="650" name="_topright"/>
  <outline>
    <contour>
      <point x="188" y="694" type="line"/>
      <point x="214" y="694" type="line"/>
      <point x="252" y="883" type="line"/>
      <point x="64" y="883" type="line"/>
      <point x="59" y="858" type="line"/>
      <point x="220" y="858" type="line"/>
    </contour>
  </outline>
</glyph>
<glyph name="horncomb" format="2">
  <unicode hex="031B"/>
  <anchor x="78" y="587" name="_topright"/>
  <outline>
    <contour>
      <point x="-11" y="587" type="curve"/>
      <point x="-17" y="560" type="line"/>
      <point x="105" y="576"/>
      <point x="154" y="635"/>
      <point x="182" y="749" type="curve"/>
      <point x="176" y="760" type="line"/>
      <point x="155" y="760" type="line"/>
      <point x="129" y="652"/>
      <point x="80" y="598"/>
    </contour>
  </outline>
</glyph>
<glyph name="uptackbelowcomb" format="2">
  <unicode hex="031D"/>
  <anchor x="-62" y="2" name="_bottom"/>
  <anchor x="-102" y="-193" name="bottom"/>
  <outline>
    <contour>
      <point x="-156" y="-193" type="line"/>
      <point x="-26" y="-193" type="line"/>
      <point x="-21" y="-168" type="line"/>
      <point x="-76" y="-168" type="line"/>
      <point x="-51" y="-48" type="line"/>
      <point x="-76" y="-48" type="line"/>
      <point x="-101" y="-168" type="line"/>
      <point x="-150" y="-168" type="line"/>
    </contour>
  </outline>
</glyph>
<glyph name="downtackbelowcomb" format="2">
  <unicode hex="031E"/>
  <anchor x="-57" y="0" name="_bottom"/>
  <anchor x="-98" y="-193" name="bottom"/>
  <outline>
    <contour>
      <point x="-110" y="-193" type="line"/>
      <point x="-85" y="-193" type="line"/>
      <point x="-60" y="-73" type="line"/>
      <point x="-11" y="-73" type="line"/>
      <point x="-5" y="-48" type="line"/>
      <point x="-135" y="-48" type="line"/>
      <point x="-140" y="-73" type="line"/>
      <point x="-85" y="-73" type="line"/>
    </contour>
  </outline>
</glyph>
<glyph name="plusbelowcomb" format="2">
  <unicode hex="031F"/>
  <anchor x="-51" y="22" name="_bottom"/>
  <anchor x="-96" y="-193" name="bottom"/>
  <outline>
    <contour>
      <point x="-109" y="-193" type="line"/>
      <point x="-84" y="-193" type="line"/>
      <point x="-69" y="-123" type="line"/>
      <point x="-11" y="-123" type="line"/>
      <point x="-6" y="-98" type="line"/>
      <point x="-64" y="-98" type="line"/>
      <point x="-49" y="-28" type="line"/>
      <point x="-74" y="-28" type="line"/>
      <point x="-89" y="-98" type="line"/>
      <point x="-149" y="-98" type="line"/>
      <point x="-153" y="-123" type="line"/>
      <point x="-94" y="-123" type="line"/>
    </contour>
  </outline>
</glyph>
<glyph name="dotbelowcomb" format="2">
  <unicode hex="0323"/>
  <anchor x="-324" y="0" name="_bottom"/>
  <anchor x="-352" y="-131" name="bottom"/>
  <outline>
    <contour>
      <point x="-349" y="-131" type="curve" smooth="yes"/>
      <point x="-330" y="-131"/>
      <point x="-320" y="-109"/>
      <point x="-320" y="-91" type="curve" smooth="yes"/>
      <point x="-320" y="-80"/>
      <point x="-326" y="-69"/>
      <point x="-341" y="-69" type="curve" smooth="yes"/>
      <point x="-361" y="-69"/>
      <point x="-371" y="-91"/>
      <point x="-371" y="-109" type="curve" smooth="yes"/>
      <point x="-371" y="-123"/>
      <point x="-362" y="-131"/>
    </contour>
  </outline>
</glyph>
<glyph name="commaaccentcomb" format="2">
  <unicode hex="0326"/>
  <anchor x="-45" y="0" name="_bottom"/>
  <anchor x="-101" y="-221" name="bottom"/>
  <outline>
    <contour>
      <point x="-140" y="-214" type="curve"/>
      <point x="-140" y="-221" type="line"/>
      <point x="-123" y="-221" type="line"/>
      <point x="-84" y="-180"/>
      <point x="-48" y="-120"/>
      <point x="-28" y="-71" type="curve"/>
      <point x="-28" y="-61" type="line"/>
      <point x="-51" y="-61" type="line"/>
      <point x="-70" y="-115"/>
      <point x="-107" y="-174"/>
    </contour>
  </outline>
</glyph>
<glyph name="bridgebelowcomb" format="2">
  <unicode hex="032A"/>
  <anchor x="-56" y="4" name="_bottom"/>
  <anchor x="-93" y="-177" name="bottom"/>
  <outline>
    <contour>
      <point x="-236" y="-177" type="line"/>
      <point x="-211" y="-177" type="line"/>
      <point x="-189" y="-71" type="line"/>
      <point x="45" y="-71" type="line"/>
      <point x="24" y="-177" type="line"/>
      <point x="48" y="-177" type="line"/>
      <point x="76" y="-46" type="line"/>
      <point x="-209" y="-46" type="line"/>
    </contour>
  </outline>
</glyph>
<glyph name="dblarchinvertedbelowcomb" format="2">
  <unicode hex="032B"/>
  <anchor x="-46" y="0" name="_bottom"/>
  <anchor x="-80" y="-163" name="bottom"/>
  <outline>
    <contour>
      <point x="-147" y="-163" type="curve" smooth="yes"/>
      <point x="-116" y="-163"/>
      <point x="-91" y="-144"/>
      <point x="-77" y="-116" type="curve"/>
      <point x="-72" y="-143"/>
      <point x="-49" y="-163"/>
      <point x="-21" y="-163" type="curve" smooth="yes"/>
      <point x="25" y="-163"/>
      <point x="59" y="-132"/>
      <point x="69" y="-61" type="curve"/>
      <point x="45" y="-61" type="line"/>
      <point x="35" y="-117"/>
      <point x="10" y="-138"/>
      <point x="-18" y="-138" type="curve" smooth="yes"/>
      <point x="-44" y="-138"/>
      <point x="-58" y="-117"/>
      <point x="-58" y="-91" type="curve" smooth="yes"/>
      <point x="-58" y="-84"/>
      <point x="-57" y="-70"/>
      <point x="-55" y="-61" type="curve"/>
      <point x="-80" y="-61" type="line"/>
      <point x="-89" y="-111"/>
      <point x="-111" y="-138"/>
      <point x="-145" y="-138" type="curve" smooth="yes"/>
      <point x="-169" y="-138"/>
      <point x="-184" y="-122"/>
      <point x="-184" y="-91" type="curve" smooth="yes"/>
      <point x="-184" y="-84"/>
      <point x="-181" y="-70"/>
      <point x="-179" y="-61" type="curve"/>
      <point x="-204" y="-61" type="line"/>
      <point x="-207" y="-75"/>
      <point x="-208" y="-85"/>
      <point x="-208" y="-97" type="curve" smooth="yes"/>
      <point x="-208" y="-141"/>
      <point x="-186" y="-163"/>
    </contour>
  </outline>
</glyph>
<glyph name="lowlinecomb" format="2">
  <unicode hex="0332"/>
  <anchor x="-54" y="0" name="_bottom"/>
  <anchor x="-84" y="-140" name="bottom"/>
  <outline>
    <contour>
      <point x="-262" y="-140" type="line"/>
      <point x="96" y="-140" type="line"/>
      <point x="100" y="-115" type="line"/>
      <point x="-257" y="-115" type="line"/>
    </contour>
  </outline>
</glyph>
<glyph name="bridgeinvertedbelowcomb" format="2">
  <unicode hex="033A"/>
  <anchor x="-56" y="4" name="_bottom"/>
  <anchor x="-93" y="-177" name="bottom"/>
  <outline>
    <contour>
      <point x="-236" y="-177" type="line"/>
      <point x="48" y="-177" type="line"/>
      <point x="76" y="-46" type="line"/>
      <point x="51" y="-46" type="line"/>
      <point x="29" y="-152" type="line"/>
      <point x="-207" y="-152" type="line"/>
      <point x="-184" y="-46" type="line"/>
      <point x="-209" y="-46" type="line"/>
    </contour>
  </outline>
</glyph>
<glyph name="squarebelowcomb" format="2">
  <unicode hex="033B"/>
  <anchor x="-50" y="12" name="_bottom"/>
  <anchor x="-99" y="-218" name="bottom"/>
  <outline>
    <contour>
      <point x="-274" y="-218" type="line"/>
      <point x="71" y="-218" type="line"/>
      <point x="109" y="-38" type="line"/>
      <point x="-236" y="-38" type="line"/>
    </contour>
    <contour>
      <point x="-243" y="-193" type="line"/>
      <point x="-215" y="-63" type="line"/>
      <point x="78" y="-63" type="line"/>
      <point x="50" y="-193" type="line"/>
    </contour>
  </outline>
</glyph>
